<svg width="41" height="45" viewBox="0 0 41 45" fill="none" xmlns="http://www.w3.org/2000/svg">
<path d="M1.98763 44.1568C1.90103 44.7023 1.38865 45.0742 0.843201 44.9876C0.297745 44.901 -0.0742302 44.3887 0.0123711 43.8432L1.98763 44.1568ZM40.7071 7.29289C41.0976 7.68342 41.0976 8.31658 40.7071 8.70711L34.3431 15.0711C33.9526 15.4616 33.3195 15.4616 32.9289 15.0711C32.5384 14.6805 32.5384 14.0474 32.9289 13.6569L38.5858 8L32.9289 2.34315C32.5384 1.95262 32.5384 1.31946 32.9289 0.928932C33.3195 0.538408 33.9526 0.538408 34.3431 0.928932L40.7071 7.29289ZM0.0123711 43.8432C0.987652 37.7002 4.14098 28.5253 10.4575 20.8639C16.7989 13.1723 26.3407 7 40 7V9C27.0317 9 18.0261 14.8277 12.0007 22.1361C5.9504 29.4747 2.91752 38.2998 1.98763 44.1568L0.0123711 43.8432Z" fill="#00B8AD"/>
</svg>
