<svg width="196" height="196" viewBox="0 0 196 196" fill="none" xmlns="http://www.w3.org/2000/svg">
<g clip-path="url(#clip0_2570_15611)">
<path d="M0 49C0 21.9324 21.9324 0 49 0H147C174.068 0 196 21.9324 196 49V147C196 174.068 174.068 196 147 196H49C21.9324 196 0 174.068 0 147V49Z" fill="url(#paint0_linear_2570_15611)"/>
<path fill-rule="evenodd" clip-rule="evenodd" d="M35.6367 70.4138C35.6367 66.8276 38.5464 63.9204 42.1181 63.9204H150.505C154.085 63.9204 156.987 66.8213 156.987 70.4138V144.098H35.6367V70.4138Z" fill="#754AAA"/>
<path d="M96.3114 148.432C99.9018 148.432 102.812 145.522 102.812 141.931C102.812 138.341 99.9018 135.43 96.3114 135.43C92.7211 135.43 89.8105 138.341 89.8105 141.931C89.8105 145.522 92.7211 148.432 96.3114 148.432Z" fill="#754AAA"/>
<path fill-rule="evenodd" clip-rule="evenodd" d="M42.1377 57.4196C42.1377 57.4196 55.6812 50.9187 69.2248 50.9187C82.7683 50.9187 96.3118 57.4196 96.3118 57.4196V137.597C96.3118 137.597 82.7683 131.096 69.2248 131.096C55.6812 131.096 42.1377 137.597 42.1377 137.597V57.4196Z" fill="#D8D8D8"/>
<path d="M50.8057 74.7556H87.6441V70.4216H50.8057V74.7556Z" fill="#B6B6B6"/>
<path d="M50.8057 83.4233H70.3083V79.0894H50.8057V83.4233Z" fill="#B6B6B6"/>
<path d="M50.8057 92.091H81.1432V87.7571H50.8057V92.091Z" fill="#B6B6B6"/>
<path fill-rule="evenodd" clip-rule="evenodd" d="M96.3115 57.4196C96.3115 57.4196 109.855 50.9187 123.399 50.9187C136.942 50.9187 150.486 57.4196 150.486 57.4196V137.597C150.486 137.597 136.942 131.096 123.399 131.096C109.855 131.096 96.3115 137.597 96.3115 137.597V57.4196Z" fill="#E9E9E9"/>
<path d="M104.979 74.7556H143.985V70.4216H104.979V74.7556Z" fill="#B6B6B6"/>
<path d="M104.979 83.4233H143.985V79.0894H104.979V83.4233Z" fill="#B6B6B6"/>
<path d="M104.979 92.091H143.985V87.7571H104.979V92.091Z" fill="#B6B6B6"/>
<path d="M104.979 100.759H130.983V96.4253H104.979V100.759Z" fill="#B6B6B6"/>
<path d="M165.381 59.5538C165.381 68.7966 157.888 76.2895 148.645 76.2895C139.402 76.2895 131.909 68.7966 131.909 59.5538C131.909 50.3109 139.402 42.8181 148.645 42.8181C157.888 42.8181 165.381 50.3109 165.381 59.5538Z" fill="#DCDCDC" stroke="white"/>
<path d="M140.689 62.9786L147.875 67.5753L156.735 51.5991" stroke="#7F31B7" stroke-width="4" stroke-linecap="round" stroke-linejoin="round"/>
</g>
<defs>
<linearGradient id="paint0_linear_2570_15611" x1="0" y1="0" x2="196" y2="196" gradientUnits="userSpaceOnUse">
<stop stop-color="#9200D1"/>
<stop offset="1" stop-color="#52008A"/>
</linearGradient>
<clipPath id="clip0_2570_15611">
<rect width="196" height="196" fill="white"/>
</clipPath>
</defs>
</svg>
