<svg width="220" height="164" viewBox="0 0 220 164" fill="none" xmlns="http://www.w3.org/2000/svg">
<path d="M220 144.056H0V144.166H220V144.056Z" fill="#D7DEE3"/>
<path d="M197.956 151.136H183.383V151.246H197.956V151.136Z" fill="#D7DEE3"/>
<path d="M120.217 149.758H114.545V149.868H120.217V149.758Z" fill="#D7DEE3"/>
<path d="M153.856 150.225H141.914V150.335H153.856V150.225Z" fill="#D7DEE3"/>
<path d="M182.942 147.053H158.254V147.163H182.942V147.053Z" fill="#D7DEE3"/>
<path d="M34.7552 152.144H23.082V152.254H34.7552V152.144Z" fill="#D7DEE3"/>
<path d="M48.7919 152.144H38.6719V152.254H48.7919V152.144Z" fill="#D7DEE3"/>
<path d="M84.397 149.705H57.6406V149.815H84.397V149.705Z" fill="#D7DEE3"/>
<path d="M104.28 124.432H19.3205C18.6549 124.431 18.017 124.166 17.5468 123.695C17.0766 123.224 16.8125 122.585 16.8125 121.92V2.4904C16.8183 1.82865 17.0849 1.19591 17.5545 0.729616C18.0241 0.263322 18.6587 0.00113361 19.3205 0H104.28C104.946 0 105.585 0.264699 106.057 0.735865C106.528 1.20703 106.793 1.84607 106.793 2.5124V121.92C106.793 122.586 106.528 123.225 106.057 123.696C105.585 124.167 104.946 124.432 104.28 124.432ZM19.3205 0.0880003C18.6841 0.0891659 18.0742 0.342789 17.6246 0.7932C17.175 1.24361 16.9225 1.85401 16.9225 2.4904V121.92C16.9225 122.556 17.175 123.166 17.6246 123.617C18.0742 124.067 18.6841 124.321 19.3205 124.322H104.28C104.917 124.321 105.527 124.067 105.978 123.617C106.428 123.167 106.681 122.556 106.683 121.92V2.4904C106.681 1.8536 106.428 1.24322 105.978 0.792931C105.527 0.342646 104.917 0.0891634 104.28 0.0880003H19.3205Z" fill="#D7DEE3"/>
<path d="M199.457 124.432H114.493C113.827 124.431 113.189 124.166 112.718 123.695C112.247 123.224 111.982 122.586 111.98 121.92V2.4904C111.987 1.82825 112.255 1.19551 112.725 0.729341C113.196 0.263168 113.831 0.00112125 114.493 0H199.457C200.118 0.00228998 200.751 0.26499 201.22 0.73116C201.689 1.19733 201.955 1.82941 201.96 2.4904V121.92C201.96 122.584 201.697 123.222 201.228 123.693C200.758 124.164 200.122 124.43 199.457 124.432ZM114.493 0.0880003C113.856 0.0891634 113.246 0.342646 112.795 0.792931C112.345 1.24322 112.092 1.8536 112.09 2.4904V121.92C112.092 122.556 112.345 123.167 112.795 123.617C113.246 124.067 113.856 124.321 114.493 124.322H199.457C200.094 124.321 200.704 124.067 201.154 123.617C201.605 123.167 201.858 122.556 201.859 121.92V2.4904C201.858 1.8536 201.605 1.24322 201.154 0.792931C200.704 0.342646 200.094 0.0891634 199.457 0.0880003H114.493Z" fill="#D7DEE3"/>
<path d="M116.556 106.212C115.676 103.682 108.728 107.122 105.908 111.316C104.029 114.105 102.881 117.088 102.348 121.092C102.41 116.525 102.485 111.615 102.555 106.982C103.127 105.829 104.43 103.167 105.362 101.055C108.491 94.0147 115.922 91.3747 118.488 86.9483C121.854 81.1227 121.832 72.3887 118.972 69.2339C116.481 66.4971 108.24 85.0211 107.312 87.0891C104.779 92.6277 103.183 98.5485 102.59 104.61C102.661 100.258 102.727 96.2499 102.78 93.1699C102.956 83.1159 103.171 79.8819 103.272 78.8875C103.616 78.4035 104.02 77.8359 104.258 77.5323C106.251 74.9671 110.678 71.9091 112.886 68.1779C116.116 62.7263 115.597 56.2055 113.326 53.7767C110.959 51.2379 106.77 57.2395 104.548 63.1839C102.326 69.1283 103.277 74.8219 102.652 79.7631C102.524 80.7311 102.388 84.4095 102.265 89.5135C101.587 84.0223 100.245 80.3439 97.7548 76.9163C94.6748 72.7011 92.0348 67.5663 89.5312 68.2307C87.0276 68.8951 88.3652 75.6843 90.3628 80.4539C92.1228 84.7043 100.923 88.9371 102.199 92.3559C102.045 99.2727 101.908 108.038 101.812 116.195C101.121 111.98 101.596 111.628 98.7624 105.173C97.0816 101.336 90.178 96.6063 89.3552 99.2419C88.5324 101.878 89.7952 106.858 92.3868 110.348C94.49 113.164 99.154 113.159 100.232 114.906C100.487 115.315 101.319 116.877 101.794 117.775C101.68 127.736 101.631 136.532 101.688 139.528L102.128 139.559C102.128 138.785 102.164 133.716 102.252 127.01C103.387 123.442 111.012 121.361 113.366 117.647C115.843 113.78 117.616 109.248 116.556 106.212Z" fill="#C8D0D8"/>
<path d="M109.389 144.056H94.7548C94.3666 144.057 93.9901 143.923 93.6894 143.677C93.3886 143.432 93.182 143.09 93.1048 142.709L92.0664 137.588H112.078L111.035 142.709C110.958 143.09 110.753 143.431 110.453 143.677C110.153 143.922 109.777 144.056 109.389 144.056Z" fill="#D7DEE3"/>
<path d="M112.494 139.572H91.6471C91.4042 139.572 91.1699 139.482 90.9895 139.32C90.8091 139.157 90.6953 138.934 90.6703 138.692L90.2303 134.904C90.2155 134.766 90.2297 134.628 90.272 134.496C90.3143 134.365 90.3838 134.244 90.4759 134.141C90.5679 134.038 90.6806 133.955 90.8066 133.899C90.9326 133.842 91.069 133.813 91.2071 133.812H112.908C113.046 133.813 113.182 133.842 113.308 133.899C113.434 133.955 113.546 134.038 113.638 134.141C113.73 134.244 113.799 134.365 113.84 134.496C113.882 134.628 113.896 134.767 113.88 134.904L113.44 138.692C113.417 138.929 113.308 139.149 113.134 139.311C112.959 139.473 112.732 139.566 112.494 139.572Z" fill="#D7DEE3"/>
<path d="M176.34 142.222H190.354V82.4213H176.34V142.222Z" fill="#D7DEE3"/>
<path d="M116.797 144.056H189.406V142.221H116.797V144.056Z" fill="#D7DEE3"/>
<path d="M176.333 82.4209H115.855V142.221H176.333V82.4209Z" fill="#EEF1F5"/>
<path d="M170.826 105.991H121.365V118.654H170.826V105.991Z" fill="#D7DEE3"/>
<path d="M170.826 122.289H121.365V134.952H170.826V122.289Z" fill="#D7DEE3"/>
<path d="M140.544 108.174H151.645C152.401 108.174 153.014 107.562 153.014 106.808C153.014 106.053 152.401 105.441 151.645 105.441H140.544C139.788 105.441 139.176 106.053 139.176 106.808C139.176 107.562 139.788 108.174 140.544 108.174Z" fill="#EEF1F5"/>
<path d="M170.826 89.6943H121.365V102.358H170.826V89.6943Z" fill="#D7DEE3"/>
<path d="M140.544 91.8769H151.645C152.007 91.8758 152.354 91.7318 152.61 91.4764C152.866 91.221 153.011 90.8747 153.014 90.5129C153.013 90.1504 152.868 89.803 152.612 89.5466C152.355 89.2902 152.008 89.1457 151.645 89.1445H140.544C140.182 89.1457 139.834 89.2902 139.578 89.5466C139.321 89.803 139.177 90.1504 139.176 90.5129C139.178 90.8747 139.323 91.221 139.579 91.4764C139.836 91.7318 140.182 91.8758 140.544 91.8769Z" fill="#EEF1F5"/>
<path d="M140.544 124.472H151.645C152.008 124.472 152.355 124.328 152.611 124.072C152.868 123.817 153.013 123.47 153.014 123.108C153.013 122.745 152.868 122.398 152.612 122.141C152.355 121.885 152.008 121.74 151.645 121.739H140.544C140.182 121.74 139.834 121.885 139.578 122.141C139.321 122.398 139.177 122.745 139.176 123.108C139.177 123.47 139.322 123.817 139.578 124.072C139.835 124.328 140.182 124.472 140.544 124.472Z" fill="#EEF1F5"/>
<path d="M114.611 82.4209L176.334 82.4209V80.7137L114.611 80.7137V82.4209Z" fill="#D7DEE3"/>
<path d="M191.681 80.7178H176.334V82.425H191.681V80.7178Z" fill="#C8D0D8"/>
<path d="M64.8602 144.056H78.707L78.707 54.5025H64.8602L64.8602 144.056Z" fill="#D7DEE3"/>
<path d="M29.5723 144.056H75.9351L80.8059 33.8271H34.4431L29.5723 144.056Z" fill="#C8D0D8"/>
<path d="M22.8086 144.056H74.095L78.9614 33.8271H27.6794L22.8086 144.056Z" fill="#D7DEE3"/>
<path d="M69.0757 138.652L73.1765 39.2344H32.7009L28.5957 138.652H69.0757Z" fill="white"/>
<path d="M51.6816 138.652L65.4404 39.2344H61.124L47.3652 138.652H51.6816Z" fill="#F4F6F8"/>
<path d="M45.535 138.652L59.2938 39.2344H51.9326L38.1738 138.652H45.535Z" fill="#F4F6F8"/>
<path d="M129.127 63.8525L185.24 63.8525V11.3605L129.127 11.3605V63.8525Z" fill="#C8D0D8"/>
<path d="M127.38 63.8525L184.422 63.8525V11.3605L127.38 11.3605V63.8525Z" fill="#EEF1F5"/>
<path d="M129.127 66H185.24V63.8528L129.127 63.8528V66Z" fill="#C8D0D8"/>
<path d="M125.822 66H179.053V63.8528L125.822 63.8528V66Z" fill="#EEF1F5"/>
<path d="M181.984 60.5967V14.6123L129.818 14.6123V60.5967H181.984Z" fill="#F4F6F8"/>
<path d="M130.17 60.6016V14.6172H129.822V60.6016H130.17Z" fill="#C8D0D8"/>
<path d="M173.333 60.5967L164.313 14.6123H152.49L161.51 60.5967H173.333Z" fill="white"/>
<path d="M159.597 60.5967L150.577 14.6123H145.24L154.26 60.5967H159.597Z" fill="white"/>
<path d="M180.242 58.1061V9.55648C180.242 9.40825 180.122 9.28809 179.974 9.28809H179.952C179.804 9.28809 179.683 9.40825 179.683 9.55648V58.1061C179.683 58.2543 179.804 58.3745 179.952 58.3745H179.974C180.122 58.3745 180.242 58.2543 180.242 58.1061Z" fill="#D7DEE3"/>
<path opacity="0.5" d="M126.104 17.3184L186.186 17.3184V9.28396L126.104 9.28396V17.3184Z" fill="#C8D0D8"/>
<path d="M126.104 10.2832L186.186 10.2832V9.2844L126.104 9.2844V10.2832Z" fill="#D7DEE3"/>
<path d="M126.206 9.72363L186.09 9.72363C186.301 9.72363 186.473 9.55225 186.473 9.34083V9.23083C186.473 9.01942 186.301 8.84803 186.09 8.84803L126.206 8.84803C125.994 8.84803 125.823 9.01942 125.823 9.23083V9.34083C125.823 9.55225 125.994 9.72363 126.206 9.72363Z" fill="#D7DEE3"/>
<path d="M126.03 17.5303H186.261C186.289 17.5303 186.316 17.5248 186.341 17.5142C186.367 17.5035 186.39 17.4879 186.409 17.4682C186.428 17.4485 186.443 17.4252 186.453 17.3996C186.464 17.374 186.469 17.3466 186.468 17.3191C186.468 17.2643 186.446 17.2117 186.407 17.1729C186.369 17.1341 186.316 17.1123 186.261 17.1123H126.03C125.974 17.1123 125.921 17.1339 125.882 17.1726C125.842 17.2113 125.82 17.2639 125.818 17.3191C125.818 17.3751 125.841 17.4288 125.88 17.4684C125.92 17.5081 125.974 17.5303 126.03 17.5303Z" fill="white"/>
<path d="M110.001 163.926C157.117 163.926 195.313 161.696 195.313 158.946C195.313 156.195 157.117 153.965 110.001 153.965C62.8848 153.965 24.6895 156.195 24.6895 158.946C24.6895 161.696 62.8848 163.926 110.001 163.926Z" fill="#EEF1F5"/>
<path d="M28.5297 95.5162L28.084 95.5684L28.8761 102.342L29.3219 102.29L28.5297 95.5162Z" fill="#00B8AD"/>
<path d="M29.6176 104.809L29.1719 104.861L29.5715 108.279L30.0173 108.227L29.6176 104.809Z" fill="#00B8AD"/>
<path d="M59.2202 81.7041L58.6922 80.2213C58.329 79.2021 57.6307 78.3364 56.7115 77.7657C55.7923 77.195 54.7067 76.9531 53.6322 77.0797L32.6046 79.5393C31.3449 79.687 30.1955 80.3291 29.4091 81.3242C28.6228 82.3193 28.2639 83.586 28.4114 84.8457L34.3954 136.018C34.4451 136.446 34.5786 136.86 34.7885 137.236C34.9983 137.612 35.2802 137.944 35.6182 138.211C35.9562 138.478 36.3435 138.676 36.758 138.794C37.1726 138.911 37.6062 138.946 38.0342 138.895L113.274 130.095C113.703 130.047 114.118 129.914 114.495 129.705C114.873 129.495 115.205 129.213 115.473 128.875C115.741 128.537 115.94 128.15 116.058 127.734C116.176 127.319 116.211 126.885 116.161 126.456L110.969 82.2189C110.868 81.3553 110.429 80.567 109.747 80.0274C109.066 79.4877 108.198 79.2409 107.334 79.3413L63.6422 84.4541C62.7028 84.5628 61.7543 84.3501 60.9513 83.8508C60.1483 83.3514 59.5381 82.5947 59.2202 81.7041Z" fill="#00B8AD"/>
<path d="M61.321 59.4503L37.5488 64.1875L44.0755 96.9395L67.8477 92.2023L61.321 59.4503Z" fill="#00B8AD"/>
<path opacity="0.7" d="M61.321 59.4503L37.5488 64.1875L44.0755 96.9395L67.8477 92.2023L61.321 59.4503Z" fill="white"/>
<g opacity="0.4">
<path d="M58.1473 67.3194L43.5041 70.241C43.163 70.3072 42.8095 70.2362 42.5204 70.0435C42.2313 69.8507 42.0298 69.5517 41.9597 69.2114C41.8935 68.8702 41.9645 68.5168 42.1572 68.2276C42.35 67.9385 42.649 67.737 42.9893 67.667L57.6413 64.7586C57.9825 64.6924 58.3359 64.7633 58.6251 64.9561C58.9142 65.1488 59.1157 65.4478 59.1857 65.7882C59.2479 66.1286 59.1739 66.4798 58.9797 66.7661C58.7855 67.0525 58.4866 67.2512 58.1473 67.3194Z" fill="#00B8AD"/>
<path d="M59.2261 72.7443L44.5829 75.6791C44.2424 75.7441 43.8901 75.6725 43.602 75.4798C43.3138 75.2872 43.113 74.989 43.0429 74.6495C42.978 74.3091 43.0496 73.9567 43.2422 73.6686C43.4348 73.3804 43.7331 73.1796 44.0725 73.1095L58.7157 70.1923C59.0562 70.1274 59.4085 70.199 59.6966 70.3916C59.9848 70.5842 60.1856 70.8825 60.2557 71.2219C60.3156 71.5597 60.2416 71.9076 60.0494 72.1917C59.8572 72.4759 59.5619 72.6741 59.2261 72.7443Z" fill="#00B8AD"/>
<path d="M60.3042 78.1609L45.661 81.0781C45.3206 81.143 44.9682 81.0714 44.6801 80.8788C44.392 80.6861 44.1911 80.3879 44.121 80.0485C44.0561 79.708 44.1277 79.3557 44.3203 79.0675C44.513 78.7794 44.8112 78.5786 45.1506 78.5085L59.7938 75.5869C60.1343 75.5219 60.4866 75.5935 60.7748 75.7861C61.0629 75.9788 61.2637 76.277 61.3338 76.6165C61.4 76.9576 61.3291 77.311 61.1363 77.6002C60.9436 77.8893 60.6446 78.0908 60.3042 78.1609Z" fill="#00B8AD"/>
<path d="M61.3856 83.5992L46.7424 86.5164C46.4013 86.5826 46.0478 86.5116 45.7587 86.3189C45.4696 86.1261 45.2681 85.8271 45.198 85.4868C45.1318 85.1456 45.2028 84.7922 45.3955 84.503C45.5883 84.2139 45.8873 84.0125 46.2276 83.9424L60.8708 81.0252C61.2119 80.959 61.5654 81.0299 61.8545 81.2227C62.1437 81.4154 62.3451 81.7144 62.4152 82.0548C62.4814 82.3959 62.4105 82.7494 62.2177 83.0385C62.025 83.3276 61.726 83.5291 61.3856 83.5992Z" fill="#00B8AD"/>
<path d="M58.4593 89.7898L47.82 91.9106C47.4796 91.9755 47.1272 91.9039 46.8391 91.7113C46.551 91.5186 46.3502 91.2204 46.28 90.881C46.2138 90.5398 46.2848 90.1864 46.4776 89.8972C46.6703 89.6081 46.9693 89.4066 47.3096 89.3366L57.9488 87.2158C58.2893 87.1508 58.6417 87.2224 58.9298 87.415C59.2179 87.6077 59.4187 87.9059 59.4888 88.2454C59.5551 88.5865 59.4841 88.94 59.2913 89.2291C59.0986 89.5182 58.7996 89.7197 58.4593 89.7898Z" fill="#00B8AD"/>
</g>
<path d="M95.1917 53.1383L71.1758 56.4238L75.7024 89.5116L99.7183 86.2261L95.1917 53.1383Z" fill="#00B8AD"/>
<path opacity="0.7" d="M95.1917 53.1383L71.1758 56.4238L75.7024 89.5116L99.7183 86.2261L95.1917 53.1383Z" fill="white"/>
<g opacity="0.4">
<path d="M91.548 60.8079L76.7552 62.8319C76.4107 62.8771 76.0623 62.7846 75.7856 62.5746C75.5088 62.3645 75.326 62.0539 75.2768 61.7099C75.2317 61.3654 75.3241 61.017 75.5342 60.7402C75.7442 60.4635 76.0549 60.2807 76.3988 60.2315L91.1916 58.2075C91.5361 58.1623 91.8846 58.2548 92.1613 58.4648C92.4381 58.6749 92.6209 58.9856 92.67 59.3295C92.7152 59.674 92.6228 60.0224 92.4127 60.2992C92.2027 60.5759 91.892 60.7587 91.548 60.8079Z" fill="#00B8AD"/>
<path d="M92.2955 66.2772L77.5027 68.3012C77.1582 68.3464 76.8098 68.254 76.5331 68.0439C76.2563 67.8339 76.0735 67.5232 76.0243 67.1792C75.9804 66.8354 76.0734 66.4881 76.2834 66.2124C76.4933 65.9366 76.8032 65.7544 77.1463 65.7052L91.9391 63.6812C92.283 63.636 92.6308 63.7278 92.9074 63.9369C93.1841 64.1461 93.3673 64.4557 93.4175 64.7988C93.4627 65.1433 93.3703 65.4917 93.1602 65.7685C92.9502 66.0453 92.6395 66.2281 92.2955 66.2772Z" fill="#00B8AD"/>
<path d="M82.3257 73.2155L78.2513 73.7743C77.9068 73.8195 77.5584 73.7271 77.2817 73.517C77.0049 73.307 76.8221 72.9963 76.7729 72.6523C76.7277 72.3079 76.8202 71.9594 77.0303 71.6827C77.2403 71.4059 77.551 71.2231 77.8949 71.1739L81.9737 70.6152C82.3175 70.5712 82.6648 70.6642 82.9406 70.8742C83.2164 71.0841 83.3985 71.3941 83.4477 71.7371C83.4929 72.0816 83.4005 72.4301 83.1904 72.7068C82.9804 72.9836 82.6697 73.1664 82.3257 73.2155Z" fill="#00B8AD"/>
<path d="M90.232 72.1337L86.1532 72.6925C85.8094 72.7364 85.4621 72.6434 85.1863 72.4335C84.9105 72.2235 84.7284 71.9136 84.6792 71.5705C84.634 71.226 84.7265 70.8776 84.9365 70.6008C85.1465 70.324 85.4572 70.1412 85.8012 70.0921L89.8756 69.5377C90.2194 69.4924 90.5673 69.5843 90.8439 69.7934C91.1205 70.0025 91.3038 70.3121 91.354 70.6553C91.3992 70.9998 91.3067 71.3482 91.0967 71.6249C90.8866 71.9017 90.5759 72.0845 90.232 72.1337Z" fill="#00B8AD"/>
<path d="M93.7916 77.22L78.9988 79.244C78.6543 79.2892 78.3059 79.1967 78.0291 78.9867C77.7524 78.7767 77.5696 78.466 77.5204 78.122C77.4765 77.7782 77.5695 77.4309 77.7794 77.1551C77.9894 76.8794 78.2993 76.6972 78.6424 76.648L93.4352 74.6196C93.7797 74.5744 94.1281 74.6669 94.4049 74.8769C94.6817 75.087 94.8645 75.3977 94.9136 75.7416C94.9588 76.0861 94.8664 76.4345 94.6563 76.7113C94.4463 76.9881 94.1356 77.1709 93.7916 77.22Z" fill="#00B8AD"/>
<path d="M90.5006 83.2435L79.747 84.7131C79.4039 84.7571 79.0572 84.6646 78.7815 84.4556C78.5058 84.2466 78.3233 83.9377 78.273 83.5955C78.2277 83.2516 78.3196 82.9038 78.5287 82.6271C78.7379 82.3505 79.0475 82.1673 79.3906 82.1171L90.1442 80.6475C90.4873 80.6034 90.8341 80.6959 91.1097 80.9049C91.3854 81.1139 91.568 81.4228 91.6182 81.7651C91.6635 82.1089 91.5716 82.4567 91.3625 82.7334C91.1534 83.01 90.8438 83.1933 90.5006 83.2435Z" fill="#00B8AD"/>
</g>
<path d="M72.5309 57.9661L48.3828 60.0703L51.2819 93.3402L75.43 91.2361L72.5309 57.9661Z" fill="#00B8AD"/>
<path opacity="0.8" d="M72.5309 57.9661L48.3828 60.0703L51.2819 93.3402L75.43 91.2361L72.5309 57.9661Z" fill="white"/>
<g opacity="0.4">
<path d="M68.5125 65.4544L53.6361 66.748C53.29 66.7761 52.9468 66.6668 52.6807 66.4436C52.4147 66.2204 52.2474 65.9013 52.2149 65.5556C52.188 65.2102 52.2979 64.8681 52.521 64.603C52.7441 64.338 53.0624 64.1712 53.4073 64.1388L68.2837 62.8188C68.6298 62.7907 68.9731 62.9 69.2391 63.1232C69.5051 63.3464 69.6725 63.6655 69.7049 64.0112C69.7219 64.1843 69.7045 64.3591 69.6537 64.5255C69.6029 64.6919 69.5196 64.8466 69.4088 64.9807C69.298 65.1149 69.1618 65.2258 69.008 65.307C68.8541 65.3883 68.6858 65.4384 68.5125 65.4544Z" fill="#00B8AD"/>
<path d="M68.9914 70.9549L54.115 72.2749C53.7689 72.303 53.4256 72.1936 53.1596 71.9704C52.8936 71.7472 52.7262 71.4282 52.6938 71.0825C52.6657 70.7363 52.775 70.3931 52.9982 70.1271C53.2214 69.861 53.5405 69.6937 53.8862 69.6613L68.7626 68.3413C69.1087 68.3131 69.452 68.4225 69.718 68.6457C69.984 68.8689 70.1514 69.1879 70.1838 69.5337C70.2119 69.8798 70.1026 70.223 69.8794 70.4891C69.6562 70.7551 69.3371 70.9224 68.9914 70.9549Z" fill="#00B8AD"/>
<path d="M69.4719 76.4549L54.5955 77.7749C54.2494 77.803 53.9061 77.6936 53.6401 77.4704C53.3741 77.2472 53.2067 76.9282 53.1743 76.5825C53.1461 76.2363 53.2555 75.8931 53.4787 75.6271C53.7019 75.361 54.0209 75.1937 54.3667 75.1613L69.2431 73.8413C69.5892 73.8131 69.9324 73.9225 70.1985 74.1457C70.4645 74.3689 70.6318 74.6879 70.6643 75.0337C70.6924 75.3798 70.583 75.723 70.3598 75.9891C70.1366 76.2551 69.8176 76.4224 69.4719 76.4549Z" fill="#00B8AD"/>
<path d="M69.9601 81.9538L55.0837 83.2738C54.7376 83.302 54.3944 83.1926 54.1284 82.9694C53.8623 82.7462 53.695 82.4272 53.6625 82.0814C53.6344 81.7353 53.7438 81.3921 53.967 81.1261C54.1902 80.86 54.5092 80.6927 54.8549 80.6603L69.7313 79.3666C70.0775 79.3385 70.4207 79.4479 70.6867 79.6711C70.9528 79.8943 71.1201 80.2133 71.1525 80.559C71.1735 80.9008 71.0608 81.2373 70.8384 81.4975C70.6159 81.7578 70.301 81.9214 69.9601 81.9538Z" fill="#00B8AD"/>
<path d="M66.3648 87.8103L55.554 88.7519C55.2057 88.7837 54.859 88.676 54.5901 88.4525C54.3212 88.2289 54.1519 87.9078 54.1196 87.5595C54.0914 87.2134 54.2008 86.8702 54.424 86.6041C54.6472 86.3381 54.9662 86.1708 55.312 86.1383L66.1228 85.1967C66.4689 85.1686 66.8122 85.278 67.0782 85.5012C67.3442 85.7244 67.5115 86.0434 67.544 86.3891C67.5723 86.7332 67.4647 87.0746 67.2443 87.3403C67.0239 87.6059 66.7081 87.7747 66.3648 87.8103Z" fill="#00B8AD"/>
</g>
<path d="M101.956 56.3494L77.7441 57.5166L79.3522 90.8739L103.564 89.7067L101.956 56.3494Z" fill="#00B8AD"/>
<path opacity="0.8" d="M101.956 56.3494L77.7441 57.5166L79.3522 90.8739L103.564 89.7067L101.956 56.3494Z" fill="white"/>
<g opacity="0.4">
<path d="M97.6547 63.668L82.7431 64.3896C82.3966 64.404 82.0583 64.2814 81.8014 64.0484C81.5445 63.8154 81.3896 63.4907 81.3703 63.1444C81.3559 62.7978 81.4784 62.4596 81.7114 62.2027C81.9444 61.9458 82.2692 61.7909 82.6155 61.7716L97.5315 61.05C97.878 61.0356 98.2163 61.1581 98.4732 61.3911C98.7301 61.6241 98.8849 61.9489 98.9043 62.2952C98.9187 62.6424 98.7955 62.9813 98.5616 63.2383C98.3276 63.4954 98.0018 63.6497 97.6547 63.668Z" fill="#00B8AD"/>
<path d="M97.9227 69.1851L83.0067 69.9023C82.6602 69.9167 82.3219 69.7941 82.0651 69.5611C81.8082 69.3281 81.6533 69.0033 81.6339 68.6571C81.6196 68.3098 81.7427 67.9709 81.9767 67.7139C82.2106 67.4569 82.5365 67.3025 82.8835 67.2843L97.7951 66.5627C98.1424 66.5483 98.4813 66.6714 98.7383 66.9054C98.9953 67.1393 99.1497 67.4652 99.1679 67.8123C99.1824 68.1588 99.0598 68.4971 98.8268 68.7539C98.5938 69.0108 98.269 69.1657 97.9227 69.1851Z" fill="#00B8AD"/>
<path d="M87.3859 75.2397L83.2763 75.4377C82.9298 75.4522 82.5915 75.3296 82.3346 75.0966C82.0777 74.8636 81.9228 74.5388 81.9035 74.1925C81.8891 73.846 82.0116 73.5077 82.2446 73.2509C82.4776 72.994 82.8024 72.8391 83.1487 72.8197L87.2583 72.6173C87.6055 72.603 87.9444 72.7261 88.2015 72.9601C88.4585 73.194 88.6128 73.5199 88.6311 73.8669C88.6455 74.2135 88.523 74.5517 88.2899 74.8086C88.0569 75.0655 87.7322 75.2204 87.3859 75.2397Z" fill="#00B8AD"/>
<path d="M95.3527 74.835L91.2431 75.033C90.8966 75.0474 90.5583 74.9248 90.3014 74.6918C90.0445 74.4588 89.8896 74.134 89.8703 73.7878C89.8559 73.4412 89.9784 73.103 90.2114 72.8461C90.4444 72.5892 90.7692 72.4343 91.1155 72.415L95.2251 72.217C95.5716 72.2025 95.9099 72.3251 96.1668 72.5581C96.4237 72.7911 96.5785 73.1159 96.5979 73.4622C96.6123 73.8087 96.4897 74.147 96.2567 74.4038C96.0237 74.6607 95.699 74.8156 95.3527 74.835Z" fill="#00B8AD"/>
<path d="M98.4559 80.2163L83.5399 80.9335C83.1934 80.9479 82.8551 80.8254 82.5983 80.5924C82.3414 80.3593 82.1865 80.0346 82.1671 79.6883C82.1528 79.3411 82.2759 79.0021 82.5099 78.7451C82.7438 78.4881 83.0697 78.3337 83.4167 78.3155L98.3283 77.5939C98.6756 77.5795 99.0145 77.7027 99.2715 77.9366C99.5285 78.1706 99.6829 78.4964 99.7011 78.8435C99.7156 79.19 99.593 79.5283 99.36 79.7852C99.127 80.0421 98.8022 80.1969 98.4559 80.2163Z" fill="#00B8AD"/>
<path d="M94.6447 85.9277L83.8075 86.4513C83.461 86.4657 83.1227 86.3432 82.8658 86.1102C82.6089 85.8772 82.4541 85.5524 82.4347 85.2061C82.4203 84.8596 82.5429 84.5213 82.7759 84.2644C83.0089 84.0076 83.3336 83.8527 83.6799 83.8333L94.5171 83.3097C94.8637 83.2953 95.2019 83.4179 95.4588 83.6509C95.7157 83.8839 95.8706 84.2087 95.8899 84.5549C95.9043 84.9015 95.7818 85.2397 95.5488 85.4966C95.3158 85.7535 94.991 85.9084 94.6447 85.9277Z" fill="#00B8AD"/>
</g>
<path d="M65.9347 82.6495L65.5475 81.2019C65.2763 80.2 64.6464 79.3327 63.7776 78.7649C62.9088 78.197 61.8616 77.9682 60.8351 78.1219L39.8075 80.5815C38.5318 80.7378 37.357 81.3541 36.5032 82.3148C35.6494 83.2755 35.1754 84.5146 35.1699 85.7999L36.3623 135.894C36.3694 136.306 36.4648 136.713 36.642 137.085C36.8192 137.458 37.0742 137.789 37.3897 138.054C37.7053 138.32 38.0741 138.516 38.4714 138.627C38.8687 138.739 39.2853 138.764 39.6931 138.701L114.933 129.901C115.807 129.795 116.612 129.374 117.197 128.717C117.783 128.06 118.109 127.213 118.114 126.333L117.085 83.0279C117.077 82.6151 116.981 82.2087 116.803 81.836C116.626 81.4633 116.37 81.133 116.054 80.8671C115.739 80.6013 115.369 80.406 114.972 80.2945C114.574 80.183 114.158 80.1578 113.75 80.2207L70.0619 85.3291C69.1651 85.466 68.2493 85.2687 67.4884 84.7747C66.7275 84.2807 66.1746 83.5244 65.9347 82.6495Z" fill="#00B8AD"/>
<path opacity="0.3" d="M65.9347 82.6495L65.5475 81.2019C65.2763 80.2 64.6464 79.3327 63.7776 78.7649C62.9088 78.197 61.8616 77.9682 60.8351 78.1219L39.8075 80.5815C38.5318 80.7378 37.357 81.3541 36.5032 82.3148C35.6494 83.2755 35.1754 84.5146 35.1699 85.7999L36.3623 135.894C36.3694 136.306 36.4648 136.713 36.642 137.085C36.8192 137.458 37.0742 137.789 37.3897 138.054C37.7053 138.32 38.0741 138.516 38.4714 138.627C38.8687 138.739 39.2853 138.764 39.6931 138.701L114.933 129.901C115.807 129.795 116.612 129.374 117.197 128.717C117.783 128.06 118.109 127.213 118.114 126.333L117.085 83.0279C117.077 82.6151 116.981 82.2087 116.803 81.836C116.626 81.4633 116.37 81.133 116.054 80.8671C115.739 80.6013 115.369 80.406 114.972 80.2945C114.574 80.183 114.158 80.1578 113.75 80.2207L70.0619 85.3291C69.1651 85.466 68.2493 85.2687 67.4884 84.7747C66.7275 84.2807 66.1746 83.5244 65.9347 82.6495Z" fill="black"/>
<path d="M139.48 58.5687C139.155 60.2011 138.807 61.8115 138.416 63.4087C138.024 65.0059 137.641 66.6207 137.214 68.2179L136.563 70.6071L136.48 70.9151C136.44 71.0471 136.396 71.1791 136.343 71.3155C136.231 71.615 136.083 71.9 135.903 72.1647C135.685 72.4935 135.406 72.7773 135.08 73.0007C134.722 73.2436 134.31 73.3947 133.879 73.4407C133.228 73.488 132.576 73.3492 132 73.0403C131.563 72.8022 131.153 72.5175 130.777 72.1911C130.097 71.5965 129.495 70.9178 128.986 70.1715L130.24 69.0803C130.839 69.5459 131.471 69.9665 132.132 70.3387C132.419 70.5014 132.723 70.6327 133.039 70.7303C133.307 70.8183 133.545 70.8051 133.545 70.7611C133.545 70.7171 133.501 70.7611 133.479 70.7611C133.457 70.7611 133.479 70.7611 133.479 70.6863C133.479 70.6115 133.532 70.5323 133.562 70.4179L133.664 69.9295L134.174 67.5271L135.208 62.7223C135.542 61.1207 135.903 59.5147 136.251 57.9307L139.48 58.5687Z" fill="#FFC3BD"/>
<path d="M138.02 53.5391C134.267 56.4123 134.421 61.8287 134.421 61.8287L141.131 63.4347C141.131 63.4347 143.194 57.9875 142.358 55.9943C141.487 53.9175 140.136 51.9199 138.02 53.5391Z" fill="#1D2B36"/>
<path d="M130.574 69.1461L128.105 66.6777L126.785 70.5409C126.785 70.5409 128.871 71.6629 130.864 70.6025L130.574 69.1461Z" fill="#FFC3BD"/>
<path d="M124.688 66.2949L124.234 69.3485L126.773 70.5409L128.106 66.6777L124.688 66.2949Z" fill="#FFC3BD"/>
<path d="M159.773 155.698L155.998 156.068L152.068 147.079L155.844 146.709L159.773 155.698Z" fill="#FFC3BD"/>
<path d="M184.097 142.41L181.259 145.072L175.139 138.345L177.977 135.683L184.097 142.41Z" fill="#FFC3BD"/>
<path d="M179.96 143.796L182.09 139.96C182.126 139.892 182.185 139.841 182.256 139.814C182.327 139.787 182.406 139.787 182.477 139.814L185.755 141.064C185.836 141.098 185.909 141.149 185.969 141.213C186.029 141.277 186.075 141.353 186.103 141.436C186.132 141.519 186.143 141.607 186.135 141.695C186.127 141.782 186.101 141.867 186.059 141.944C185.293 143.264 184.857 143.871 183.92 145.561C183.344 146.599 182.222 148.98 181.425 150.401C180.629 151.822 179.168 151.127 179.371 150.458C180.281 147.457 180.11 145.79 179.855 144.47C179.811 144.24 179.848 144.002 179.96 143.796Z" fill="#1D2B36"/>
<path d="M155.496 154.902H160.133C160.217 154.902 160.298 154.929 160.364 154.98C160.43 155.031 160.477 155.103 160.498 155.183L161.506 158.848C161.531 158.935 161.535 159.026 161.518 159.114C161.501 159.203 161.464 159.286 161.409 159.357C161.354 159.429 161.284 159.487 161.203 159.526C161.122 159.565 161.033 159.585 160.943 159.583C159.306 159.583 158.532 159.583 156.494 159.583H150.264C148.566 159.583 148.214 157.872 148.913 157.713C152.059 157.018 153.868 156.059 154.84 155.144C155.02 154.983 155.254 154.897 155.496 154.902Z" fill="#1D2B36"/>
<path opacity="0.2" d="M152.072 147.083L154.096 151.717H158.034L155.847 146.714L152.072 147.083Z" fill="black"/>
<path opacity="0.2" d="M177.977 135.688L175.139 138.349L178.298 141.817L181.136 139.15L177.977 135.688Z" fill="black"/>
<path d="M139.155 52.9849C139.155 52.9849 137.457 53.7285 143.15 76.2565L158.964 74.8881C158.146 68.4773 157.794 64.5085 159.725 51.0313C157.472 50.7649 155.203 50.6634 152.936 50.7277C150.531 50.7637 148.131 50.971 145.755 51.3481C143.529 51.7816 141.326 52.3279 139.155 52.9849Z" fill="#1D2B36"/>
<path d="M152.935 50.5996C152.935 50.5996 153.815 50.5996 154.889 50.5996C155.527 51.5808 153.459 55.8796 150.049 58.6912C149.53 57.1281 148.576 55.7453 147.299 54.7048L152.935 50.5996Z" fill="white"/>
<path d="M145.754 51.29C145.754 51.29 145.354 51.3472 144.399 51.5672C143.761 52.5484 142.683 56.7416 144.562 58.88C145.035 57.2584 145.984 55.8161 147.286 54.7396L145.754 51.29Z" fill="white"/>
<path d="M151.522 42.7021C151.271 45.0517 151.183 49.3021 152.934 50.7277C152.934 50.7277 151.064 52.6373 147.285 54.7405C144.535 52.8397 145.753 51.3481 145.753 51.3481C148.275 50.5121 148.041 48.6069 147.439 46.8469L151.522 42.7021Z" fill="#FFC3BD"/>
<path d="M147.219 54.7536C147.219 54.7536 149.538 52.228 150.739 52.712C151.94 53.196 151.012 54.0628 150.906 54.8768C150.8 55.6908 151.372 57.8556 149.766 57.2924C148.16 56.7292 147.219 54.7536 147.219 54.7536Z" fill="#00B8AD"/>
<path d="M147.127 54.7004C147.127 54.7004 146.031 52.7644 144.848 53.024C143.664 53.2836 144.368 53.9612 144.474 54.6916C144.61 55.6244 143.625 57.4196 145.05 56.8916C146.476 56.3636 147.127 54.7004 147.127 54.7004Z" fill="#00B8AD"/>
<g opacity="0.2">
<path d="M146.52 54.2832C146.504 54.6735 146.579 55.0622 146.74 55.4184C146.885 55.1909 147.013 54.9526 147.122 54.7056C146.96 54.4297 146.773 54.169 146.564 53.9268C146.527 54.0419 146.512 54.1627 146.52 54.2832Z" fill="black"/>
<path d="M148.065 53.9355C147.568 54.3755 147.225 54.7539 147.225 54.7539C147.352 55.0181 147.5 55.2725 147.665 55.5151C147.93 55.2485 148.087 54.8924 148.105 54.5163C148.147 54.3229 148.133 54.1215 148.065 53.9355Z" fill="black"/>
</g>
<path d="M147.194 55.5452C146.864 55.5452 146.661 55.1888 146.639 54.3396C146.617 53.4904 147.268 53.9612 147.268 53.9612C147.268 53.9612 148.148 53.5212 147.99 54.5376C147.876 55.3428 147.532 55.5452 147.194 55.5452Z" fill="#00B8AD"/>
<path opacity="0.2" d="M149.859 44.3965L147.443 46.8473C147.588 47.2554 147.699 47.6748 147.773 48.1013C148.746 47.8769 150.154 46.8649 150.167 45.8265C150.151 45.3352 150.047 44.8507 149.859 44.3965Z" fill="black"/>
<path d="M147.787 34.7598C147.787 34.7598 145.147 38.4162 144.707 40.0398C142.912 41.087 142.551 35.9346 143.501 32.7578C146.467 34.619 147.787 34.7598 147.787 34.7598Z" fill="#1D2B36"/>
<path d="M153.59 39.0322C152.609 42.7854 152.27 44.3958 149.973 45.9666C146.511 48.3338 142.115 46.3098 141.952 42.3366C141.807 38.7638 143.435 33.2242 147.452 32.4454C148.338 32.2657 149.254 32.3161 150.114 32.5918C150.975 32.8676 151.75 33.3594 152.365 34.0202C152.981 34.6811 153.417 35.4889 153.632 36.3664C153.846 37.2439 153.832 38.1618 153.59 39.0322Z" fill="#FFC3BD"/>
<path d="M155.632 37.5319C155.632 37.5319 153.744 40.5899 153.489 41.9319C152.121 42.8603 151.544 38.7859 152.121 36.2119C152.75 33.9195 155.632 37.5319 155.632 37.5319Z" fill="#1D2B36"/>
<path d="M154.88 35.4066C154.334 35.8202 153.758 34.2934 154.299 33.123C153.256 33.189 152.002 32.5686 152.271 31.561C150.216 32.2518 149.455 30.1618 149.692 28.7142C149.978 26.9542 151.51 26.5802 152.412 27.0422C152.412 26.2546 154.4 24.6134 155.157 25.8982C156.561 25.401 158.822 25.555 158.774 27.2798C159.702 27.3062 162.444 28.3578 161.414 30.7998C162.624 30.8702 163.28 32.4058 162.606 33.5674C162.871 33.7078 163.099 33.9101 163.27 34.157C163.44 34.4039 163.549 34.6882 163.586 34.9859C163.624 35.2837 163.589 35.5861 163.485 35.8676C163.381 36.1491 163.211 36.4015 162.989 36.6034C163.548 37.765 161.854 39.4942 160.952 39.2874C160.265 40.339 159.214 41.131 158.528 40.2334C157.208 41.2058 155.689 39.9694 156.028 39.019C154.532 38.7902 153.006 36.2954 154.88 35.4066Z" fill="#1D2B36"/>
<path d="M157.116 31.7108C158.101 33.3564 158.018 35.2308 156.935 35.8688C155.853 36.5068 154.168 35.7148 153.182 34.0692C152.197 32.4236 152.276 30.5492 153.363 29.9112C154.449 29.2732 156.13 30.0696 157.116 31.7108Z" fill="#00B8AD"/>
<path d="M147.963 34.3197C147.906 34.7905 146.608 34.6673 146.234 33.8357C145.697 34.3989 144.435 34.6893 144.003 34.0777C143.273 35.4505 141.803 35.0897 141.425 34.4341C141.047 33.7785 140.796 32.5597 141.557 32.3177C141.117 31.9393 141.249 30.1573 142.402 30.3817C142.886 29.4313 144.21 28.3533 145.178 29.1937C145.706 28.7537 147.818 27.8385 148.672 29.5149C148.859 29.3869 149.073 29.3031 149.297 29.2696C149.521 29.2362 149.75 29.254 149.967 29.3218C150.183 29.3895 150.381 29.5055 150.546 29.6608C150.712 29.8162 150.839 30.007 150.92 30.2189C152.289 29.8625 152.883 30.9009 152.878 31.4641C153.851 31.7281 153.917 33.4089 153.318 33.7697C153.551 34.6189 153.428 35.5297 152.535 35.4505C152.363 36.5945 150.832 36.7705 150.471 36.1501C149.477 36.7881 147.449 35.6793 147.963 34.3197Z" fill="#1D2B36"/>
<path d="M145.641 31.072C146.754 29.532 150.815 28.872 154.331 31.1996C157.499 33.2808 157.292 38.1164 154.771 37.8568C152.249 37.5972 149.759 34.6448 149.759 34.6448L145.641 31.072Z" fill="#1D2B36"/>
<path d="M153.898 42.4196C153.547 43.0812 152.95 43.5777 152.235 43.8012C151.28 44.0872 150.787 43.2424 151.034 42.3316C151.258 41.5132 152.019 40.378 152.983 40.4924C153.193 40.5203 153.393 40.6004 153.564 40.7253C153.736 40.8502 153.873 41.0159 153.964 41.2074C154.055 41.3989 154.096 41.6102 154.085 41.8219C154.073 42.0336 154.009 42.239 153.898 42.4196Z" fill="#FFC3BD"/>
<path d="M143.15 76.2561C143.15 76.2561 137.8 99.9281 141.39 116.617C143.784 127.793 152.39 150.37 152.39 150.37L159.14 150.198C159.14 150.198 152.606 126.504 151.255 117.198C148.945 101.261 154.731 75.2705 154.731 75.2705L143.15 76.2561Z" fill="#00B8AD"/>
<path opacity="0.2" d="M149.318 81.0391L152.68 86.3587C151.664 92.6661 151.019 99.0277 150.748 105.411C146.018 96.9187 148.28 85.5315 149.318 81.0391Z" fill="black"/>
<path d="M151.438 150.722L159.772 150.507L159.292 147.95L150.787 148.351L151.438 150.722Z" fill="#1D2B36"/>
<path d="M146.607 76.0058C146.607 76.0058 149.745 101.108 156.551 114.814C162.047 125.884 176.712 141.654 176.712 141.654L180.461 137.791C180.461 137.791 170.557 120.666 166.473 113.313C156.455 95.2734 164.643 81.5234 158.963 74.9014L146.607 76.0058Z" fill="#00B8AD"/>
<path d="M176.334 142.159L181.174 137.443L179.568 135.256L174.434 140.377L176.334 142.159Z" fill="#1D2B36"/>
<path d="M159.122 73.9415L159.958 75.2967C160.024 75.3979 159.901 75.5211 159.72 75.5387L143.132 76.9731C142.991 76.9731 142.868 76.9247 142.851 76.8367L142.587 75.4331C142.565 75.3363 142.683 75.2439 142.837 75.2307L158.853 73.8447C158.903 73.8354 158.954 73.8395 159.001 73.8565C159.048 73.8736 159.09 73.9029 159.122 73.9415Z" fill="#00B8AD"/>
<path opacity="0.5" d="M159.122 73.9415L159.958 75.2967C160.024 75.3979 159.901 75.5211 159.72 75.5387L143.132 76.9731C142.991 76.9731 142.868 76.9247 142.851 76.8367L142.587 75.4331C142.565 75.3363 142.683 75.2439 142.837 75.2307L158.853 73.8447C158.903 73.8354 158.954 73.8395 159.001 73.8565C159.048 73.8736 159.09 73.9029 159.122 73.9415Z" fill="white"/>
<path d="M157.125 75.9179L157.565 75.8828C157.648 75.8828 157.71 75.8256 157.701 75.7728L157.34 73.9512C157.34 73.894 157.252 73.8588 157.164 73.8676L156.724 73.9028C156.636 73.9028 156.575 73.96 156.588 74.0128L156.949 75.8344C156.962 75.8872 157.041 75.9267 157.125 75.9179Z" fill="#00B8AD"/>
<path d="M144.351 77.022L144.791 76.9868C144.875 76.9868 144.936 76.9296 144.927 76.8768L144.567 75.0552C144.551 75.0236 144.525 74.9982 144.493 74.9831C144.461 74.968 144.425 74.9639 144.391 74.9716L143.951 75.0068C143.863 75.0068 143.801 75.064 143.814 75.1168L144.175 76.9384C144.188 77 144.267 77.0308 144.351 77.022Z" fill="#00B8AD"/>
<path d="M150.74 76.472L151.18 76.4324C151.268 76.4324 151.33 76.3752 151.317 76.3224L150.956 74.5008C150.956 74.448 150.868 74.4084 150.784 74.4172L150.344 74.4568C150.261 74.4568 150.199 74.514 150.208 74.5668L150.569 76.3884C150.577 76.4412 150.652 76.4764 150.74 76.472Z" fill="#00B8AD"/>
<path d="M147.238 38.9048C147.176 39.2128 146.965 39.4328 146.763 39.3932C146.56 39.3536 146.446 39.0676 146.503 38.7596C146.56 38.4516 146.78 38.2316 146.983 38.2712C147.185 38.3108 147.299 38.5924 147.238 38.9048Z" fill="#1D2B36"/>
<path d="M143.735 38.2129C143.796 37.9029 143.681 37.6193 143.478 37.5795C143.276 37.5397 143.062 37.7586 143.001 38.0686C142.94 38.3786 143.055 38.6622 143.258 38.702C143.46 38.7419 143.674 38.5229 143.735 38.2129Z" fill="#1D2B36"/>
<path d="M143.571 37.6196L142.867 37.2588C142.867 37.2588 143.136 37.9144 143.571 37.6196Z" fill="#1D2B36"/>
<path d="M144.94 38.9883C144.528 39.6408 144.028 40.2331 143.453 40.7483C143.587 40.8952 143.751 41.0109 143.934 41.087C144.117 41.163 144.315 41.1976 144.514 41.1883L144.94 38.9883Z" fill="#ED847E"/>
<path d="M145.944 42.6406C146.594 42.6475 147.222 42.4086 147.704 41.9718C147.713 41.9649 147.721 41.956 147.726 41.9457C147.732 41.9354 147.735 41.9241 147.735 41.9125C147.736 41.9009 147.734 41.8892 147.73 41.8785C147.725 41.8677 147.719 41.858 147.71 41.8501C147.701 41.8422 147.691 41.8363 147.68 41.8328C147.669 41.8293 147.657 41.8283 147.646 41.8298C147.634 41.8313 147.623 41.8354 147.613 41.8417C147.604 41.848 147.595 41.8564 147.589 41.8662C147.293 42.1273 146.939 42.3148 146.557 42.4134C146.175 42.5121 145.775 42.5191 145.389 42.4338C145.379 42.4319 145.369 42.432 145.359 42.4341C145.35 42.4362 145.34 42.4403 145.332 42.446C145.324 42.4517 145.317 42.4591 145.312 42.4676C145.306 42.4761 145.303 42.4855 145.301 42.4954C145.299 42.5053 145.298 42.5156 145.3 42.5257C145.302 42.5358 145.306 42.5453 145.312 42.5537C145.317 42.5621 145.325 42.5691 145.334 42.5742C145.343 42.5793 145.353 42.5825 145.363 42.5834C145.554 42.6235 145.748 42.6427 145.944 42.6406Z" fill="#1D2B36"/>
<path d="M149.335 37.7041C149.363 37.7036 149.39 37.6961 149.415 37.6821C149.45 37.6611 149.475 37.627 149.485 37.5874C149.495 37.5478 149.488 37.5059 149.467 37.4709C149.322 37.2236 149.119 37.0148 148.877 36.8617C148.634 36.7086 148.358 36.6158 148.073 36.5909C148.052 36.5903 148.032 36.5937 148.013 36.6009C147.994 36.6081 147.977 36.619 147.962 36.6329C147.948 36.6468 147.936 36.6634 147.928 36.6819C147.919 36.7003 147.915 36.7203 147.914 36.7405C147.914 36.7607 147.917 36.7809 147.924 36.7998C147.931 36.8187 147.942 36.836 147.956 36.8507C147.97 36.8654 147.987 36.8772 148.005 36.8855C148.024 36.8938 148.043 36.8983 148.064 36.8989C148.3 36.9249 148.526 37.0066 148.724 37.1375C148.923 37.2683 149.087 37.4444 149.203 37.6513C149.219 37.67 149.24 37.6846 149.263 37.6938C149.286 37.703 149.311 37.7065 149.335 37.7041Z" fill="#1D2B36"/>
<path d="M142.771 36.4622C142.795 36.4679 142.821 36.4679 142.845 36.4622C143.05 36.3413 143.28 36.2702 143.517 36.255C143.754 36.2397 143.991 36.2805 144.209 36.3742C144.245 36.3891 144.285 36.3901 144.321 36.3768C144.358 36.3636 144.388 36.3371 144.406 36.3027C144.423 36.2684 144.427 36.2286 144.417 36.1913C144.407 36.154 144.383 36.1219 144.35 36.1014C144.087 35.982 143.798 35.9281 143.509 35.9442C143.221 35.9603 142.94 36.0459 142.691 36.1938C142.657 36.2141 142.631 36.247 142.621 36.2856C142.61 36.3242 142.615 36.3655 142.634 36.4006C142.649 36.4223 142.67 36.4395 142.694 36.4504C142.718 36.4612 142.744 36.4653 142.771 36.4622Z" fill="#1D2B36"/>
<path d="M160.398 54.6309C160.697 54.9213 160.904 55.1501 161.137 55.4097C161.37 55.6693 161.577 55.9245 161.788 56.1841C162.206 56.7077 162.607 57.2445 162.981 57.7945C163.724 58.9033 164.383 60.0668 164.952 61.2749C165.519 62.4886 165.977 63.7506 166.32 65.0457C166.492 65.6925 166.646 66.3657 166.76 67.0125C166.979 67.9469 166.872 68.9279 166.457 69.7933C166.215 70.2478 165.881 70.6466 165.476 70.9637C165.124 71.234 164.738 71.456 164.327 71.6237C163.621 71.896 162.881 72.0707 162.127 72.1429C160.79 72.2713 159.443 72.2536 158.11 72.0901C155.558 71.7933 153.039 71.2585 150.586 70.4929L150.991 68.8957C152.188 69.0937 153.42 69.2785 154.634 69.4061C155.848 69.5337 157.072 69.6481 158.273 69.6745C159.436 69.7164 160.601 69.6516 161.753 69.4809C162.249 69.4002 162.732 69.2522 163.188 69.0409C163.467 68.9351 163.697 68.7298 163.834 68.4645C163.871 68.363 163.889 68.2556 163.887 68.1477C163.893 68.0686 163.893 67.9891 163.887 67.9101C163.887 67.8221 163.856 67.7429 163.817 67.5801C163.694 67.0125 163.531 66.4537 163.355 65.8993C162.997 64.7939 162.555 63.7172 162.035 62.6785C161.512 61.6336 160.912 60.6291 160.24 59.6733C159.91 59.1893 159.562 58.7185 159.201 58.2653C159.021 58.0365 158.832 57.8253 158.647 57.6009C158.462 57.3765 158.251 57.1609 158.106 57.0025L160.398 54.6309Z" fill="#FFC3BD"/>
<path d="M151.998 69.1373L148.918 67.5049L148.777 71.5837C148.777 71.5837 150.977 71.7245 152.236 70.7037L151.998 69.1373Z" fill="#FFC3BD"/>
<path d="M146.595 91.0805L149.138 63.4441L143.704 59.2817L127.116 57.7549L124.234 89.0213L146.595 91.0805Z" fill="#00B8AD"/>
<path opacity="0.8" d="M146.595 91.0805L149.138 63.4441L143.704 59.2817L127.116 57.7549L124.234 89.0213L146.595 91.0805Z" fill="white"/>
<path d="M149.137 63.4437L143.703 59.2812L145.129 64.2621L149.137 63.4437Z" fill="#00B8AD"/>
<path d="M126.178 93.8518C129.921 93.8518 132.954 90.8181 132.954 87.0758C132.954 83.3335 129.921 80.2998 126.178 80.2998C122.436 80.2998 119.402 83.3335 119.402 87.0758C119.402 90.8181 122.436 93.8518 126.178 93.8518Z" fill="#00B8AD"/>
<path d="M129.527 91.3115C131.868 89.4617 132.267 86.0638 130.417 83.7223C128.567 81.3808 125.169 80.9822 122.828 82.8321C120.486 84.682 120.088 88.0798 121.937 90.4214C123.787 92.7629 127.185 93.1614 129.527 91.3115Z" fill="white"/>
<path d="M129.519 86.6007L127.134 86.3235L127.411 83.9387L125.704 83.7363L125.427 86.1211L123.042 85.8395L122.84 87.5511L125.225 87.8327L124.943 90.2131L126.655 90.4155L126.932 88.0307L129.317 88.3123L129.519 86.6007Z" fill="#00B8AD"/>
<path opacity="0.4" d="M145.081 69.1729C145.059 69.4148 144.99 69.6499 144.877 69.8649C144.764 70.0799 144.609 70.2704 144.423 70.4257C144.236 70.581 144.02 70.698 143.788 70.7699C143.556 70.8418 143.312 70.8673 143.071 70.8449L130.971 69.7317C130.482 69.6859 130.032 69.4486 129.719 69.0717C129.406 68.6948 129.254 68.2091 129.299 67.7209C129.321 67.479 129.39 67.2439 129.503 67.0289C129.616 66.8139 129.771 66.6234 129.957 66.4681C130.144 66.3128 130.36 66.1958 130.592 66.1239C130.824 66.052 131.067 66.0265 131.309 66.0489L143.409 67.1621C143.651 67.1842 143.886 67.2537 144.101 67.3668C144.316 67.4798 144.507 67.6341 144.662 67.8209C144.817 68.0077 144.934 68.2232 145.006 68.4552C145.078 68.6872 145.104 68.9311 145.081 69.1729Z" fill="#00B8AD"/>
<path opacity="0.4" d="M140.958 74.1656C140.936 74.4075 140.866 74.6427 140.753 74.8576C140.64 75.0726 140.486 75.2632 140.299 75.4185C140.112 75.5738 139.897 75.6907 139.665 75.7626C139.433 75.8346 139.189 75.86 138.947 75.8376L130.49 75.0588C130.249 75.0367 130.013 74.9672 129.798 74.8541C129.583 74.7411 129.393 74.5868 129.238 74.4C129.082 74.2133 128.965 73.9977 128.893 73.7658C128.822 73.5338 128.796 73.2899 128.818 73.048C128.841 72.8062 128.91 72.571 129.023 72.3561C129.136 72.1411 129.29 71.9505 129.477 71.7952C129.664 71.6399 129.88 71.523 130.112 71.4511C130.343 71.3791 130.587 71.3536 130.829 71.376L139.286 72.1592C139.773 72.205 140.223 72.4417 140.536 72.8176C140.849 73.1936 141.001 73.6782 140.958 74.1656Z" fill="#00B8AD"/>
<path d="M147.035 67.7469L147.497 70.7961L148.773 71.5837L148.914 67.5049L147.035 67.7469Z" fill="#FFC3BD"/>
<path d="M159.72 51.0401C161.661 51.3833 164.38 56.9449 164.38 56.9449L159.492 61.3449C159.492 61.3449 155.602 57.1033 155.809 54.5777C155.989 52.4437 157.256 50.6001 159.72 51.0401Z" fill="#1D2B36"/>
<path d="M179.203 145.86C179.254 145.859 179.304 145.852 179.353 145.838C179.819 145.68 180.123 144.822 180.263 144.325C180.266 144.31 180.265 144.295 180.261 144.281C180.256 144.268 180.248 144.255 180.237 144.245C180.225 144.236 180.21 144.23 180.195 144.23C180.18 144.23 180.165 144.236 180.153 144.245C180.013 144.316 178.772 144.98 178.732 145.469C178.726 145.522 178.736 145.576 178.759 145.624C178.782 145.672 178.819 145.713 178.864 145.741C178.96 145.819 179.08 145.861 179.203 145.86ZM180.083 144.461C179.867 145.147 179.59 145.601 179.326 145.689C179.266 145.707 179.203 145.709 179.142 145.696C179.081 145.682 179.024 145.652 178.979 145.609C178.955 145.596 178.936 145.576 178.923 145.552C178.911 145.527 178.905 145.5 178.908 145.473C178.908 145.174 179.634 144.703 180.061 144.461H180.083Z" fill="#00B8AD"/>
<path d="M179.009 144.654C179.432 144.652 179.848 144.555 180.228 144.368C180.238 144.361 180.247 144.351 180.254 144.34C180.26 144.328 180.263 144.315 180.263 144.302C180.263 144.289 180.26 144.275 180.253 144.263C180.246 144.252 180.236 144.242 180.223 144.236C180.184 144.214 179.202 143.673 178.674 143.862C178.608 143.882 178.547 143.917 178.497 143.964C178.446 144.011 178.408 144.07 178.384 144.135C178.351 144.197 178.34 144.268 178.353 144.337C178.366 144.405 178.401 144.468 178.454 144.514C178.618 144.621 178.814 144.67 179.009 144.654ZM180.016 144.302C179.598 144.483 178.784 144.593 178.556 144.399C178.516 144.364 178.476 144.311 178.529 144.192C178.545 144.149 178.571 144.109 178.604 144.077C178.638 144.045 178.678 144.021 178.723 144.008C179.079 143.88 179.739 144.166 180.016 144.32V144.302Z" fill="#00B8AD"/>
<path d="M153.441 155.65C153.866 155.64 154.29 155.585 154.704 155.487C154.718 155.482 154.731 155.473 154.74 155.46C154.748 155.447 154.753 155.432 154.753 155.417C154.753 155.401 154.748 155.386 154.74 155.374C154.731 155.361 154.718 155.352 154.704 155.347C154.514 155.254 152.829 154.466 152.407 154.766C152.368 154.791 152.337 154.827 152.318 154.869C152.298 154.911 152.291 154.957 152.297 155.003C152.298 155.089 152.319 155.174 152.359 155.251C152.399 155.327 152.456 155.393 152.526 155.443C152.801 155.608 153.122 155.68 153.441 155.65ZM154.44 155.386C153.942 155.479 153.018 155.602 152.636 155.316C152.587 155.277 152.546 155.228 152.518 155.173C152.489 155.118 152.472 155.057 152.468 154.995C152.465 154.975 152.467 154.955 152.475 154.937C152.483 154.919 152.496 154.904 152.512 154.893C152.746 154.731 153.74 155.078 154.44 155.386Z" fill="#00B8AD"/>
<path d="M154.686 155.492C154.703 155.497 154.721 155.497 154.739 155.492C154.75 155.482 154.758 155.47 154.761 155.456C154.765 155.441 154.765 155.427 154.761 155.413C154.761 155.342 154.365 153.683 153.441 153.789C153.212 153.82 153.146 153.93 153.137 154.022C153.08 154.462 154.14 155.294 154.646 155.505L154.686 155.492ZM153.533 153.921C154.118 153.921 154.457 154.889 154.571 155.276C154.021 154.986 153.251 154.295 153.3 154.027C153.3 154.005 153.3 153.943 153.471 153.925L153.533 153.921Z" fill="#00B8AD"/>
<path d="M147.065 38.3061L146.365 37.9453C146.365 37.9453 146.634 38.6009 147.065 38.3061Z" fill="#1D2B36"/>
</svg>
