<svg width="290" height="171" viewBox="0 0 290 171" fill="none" xmlns="http://www.w3.org/2000/svg">
<ellipse cx="147.915" cy="68.0704" rx="32.3468" ry="32.6512" fill="#EEF1F5"/>
<path d="M289.605 164.882C289.605 164.951 224.768 165.002 144.807 165.002C64.8467 165.002 0 164.951 0 164.882C0 164.812 64.8235 164.761 144.807 164.761C224.791 164.761 289.605 164.817 289.605 164.882Z" fill="#263238"/>
<path d="M131.492 79.7662C131.092 79.1638 130.577 78.6251 130.166 78.0864L131.492 79.7662Z" fill="#FFBE9D"/>
<path d="M137.163 100.721C137.223 101.016 137.223 101.32 137.163 101.614C137.166 101.914 137.107 102.211 136.989 102.486C136.924 101.89 136.98 101.287 137.153 100.714L137.163 100.721Z" fill="#455A64"/>
<path d="M196.568 149.046L167.169 96.8371C173.766 92.0885 178.491 85.1076 180.501 77.1402C185.084 59.0663 174.686 40.3475 157.123 35.0387C152.782 33.724 148.228 33.3001 143.724 33.7915C139.221 34.2829 134.859 35.68 130.89 37.9016C126.921 40.1232 123.425 43.1252 120.604 46.7334C117.784 50.3416 115.694 54.4842 114.458 58.921C109.321 77.3493 119.946 96.745 138.049 101.962C145.385 104.088 153.209 103.645 160.269 100.704L189.212 153.309C189.484 153.804 189.85 154.24 190.288 154.591C190.726 154.941 191.228 155.2 191.765 155.353C192.302 155.505 192.863 155.548 193.416 155.479C193.969 155.41 194.504 155.23 194.988 154.95C195.475 154.67 195.901 154.294 196.244 153.845C196.587 153.396 196.839 152.882 196.986 152.333C197.133 151.784 197.172 151.211 197.1 150.647C197.028 150.083 196.848 149.538 196.568 149.046ZM138.894 99.2612C132.889 97.5741 127.51 94.1114 123.437 89.311C119.364 84.5106 116.781 78.5881 116.013 72.2925C115.246 65.9968 116.329 59.6107 119.125 53.9418C121.921 48.2729 126.306 43.5757 131.724 40.4444C137.141 37.313 143.349 35.888 149.563 36.3496C155.776 36.8113 161.715 39.1388 166.629 43.0378C171.543 46.9369 175.212 52.2323 177.17 58.2546C179.129 64.2768 179.29 70.7553 177.634 76.8708C175.412 85.0714 170.083 92.0374 162.818 96.2364C155.553 100.435 146.947 101.523 138.894 99.2612Z" fill="#455A64"/>
<path d="M138.452 40.9925C138.155 41.1414 137.846 41.267 137.53 41.3681C136.956 41.5878 136.173 41.9068 135.334 42.3179C134.495 42.729 133.761 43.1542 133.232 43.4732C132.958 43.6632 132.67 43.8303 132.369 43.9729C132.612 43.7409 132.88 43.5365 133.166 43.3633C133.835 42.9157 134.532 42.5144 135.254 42.1619C135.977 41.8072 136.724 41.5041 137.488 41.2547C137.799 41.1307 138.122 41.0427 138.452 40.9925Z" fill="#E0E0E0"/>
<path d="M128.332 90.0576C128.332 90.0576 128.298 90.0328 128.238 89.9761L127.981 89.7209C127.762 89.4906 127.407 89.1752 127.01 88.718C125.852 87.449 124.809 86.0754 123.895 84.6142C123.257 83.6082 122.676 82.5657 122.155 81.492C121.568 80.2565 121.059 78.984 120.631 77.6823C118.63 71.6674 118.584 65.1562 120.499 59.1123C121.255 56.6566 122.315 54.3093 123.655 52.1273C124.55 50.6553 125.573 49.2676 126.711 47.981C127.104 47.5167 127.452 47.1942 127.668 46.9603L127.922 46.7016C127.981 46.6449 128.012 46.6166 128.016 46.6201C127.991 46.6537 127.964 46.6857 127.936 46.7158L127.692 46.9887C127.487 47.2297 127.146 47.5557 126.763 48.0306C125.65 49.3314 124.646 50.7255 123.763 52.1982C123.153 53.2137 122.599 54.2632 122.103 55.3416C121.544 56.5834 121.06 57.8593 120.656 59.1619C118.773 65.1746 118.819 71.6415 120.788 77.6256C121.21 78.9228 121.712 80.1916 122.291 81.4247C122.802 82.4956 123.372 83.5368 123.996 84.5433C124.9 86.0037 125.923 87.3837 127.055 88.6684C127.445 89.1326 127.79 89.4551 127.998 89.6961C128.103 89.8095 128.183 89.8981 128.245 89.9619C128.277 89.9915 128.306 90.0235 128.332 90.0576Z" fill="#F4F6F8"/>
<path d="M38.8969 54.9849C38.8969 54.9849 34.8576 54.6927 35.2332 63.7545C35.6089 72.8162 36.5271 77.6392 36.5271 77.6392C36.5271 77.6392 36.4112 79.6473 34.853 79.2531C33.2948 78.8589 30.3685 76.9065 28.9262 78.3673C27.4839 79.8282 27.9569 82.2072 29.9465 84.9434C31.936 87.6795 36.0726 93.8428 36.439 94.3993C36.8054 94.9558 36.9538 95.9761 35.85 95.8787C34.7463 95.7813 27.3077 93.2538 26.3199 96.8479C25.3321 100.442 32.1261 107.171 32.8542 107.922C33.5823 108.674 33.624 109.142 33.3179 109.597C33.0119 110.051 30.6003 108.966 28.4532 108.335C26.306 107.704 23.709 107.347 23.3148 109.476C22.9206 111.605 25.9118 117.824 37.1161 124.367L42.5049 127.061L47.6062 123.815C58.1009 116.186 60.4522 109.694 59.8493 107.616C59.2464 105.539 56.6911 106.151 54.6182 106.995C52.5452 107.839 50.245 109.156 49.9064 108.734C49.5679 108.312 49.5586 107.839 50.2079 107.023C50.8571 106.206 56.9462 98.8421 55.606 95.3546C54.2657 91.8672 47.11 95.1228 46.0202 95.3546C44.9303 95.5865 44.9767 94.5245 45.2828 93.9402C45.5889 93.3559 49.0995 86.8076 50.8015 83.886C52.5034 80.9643 52.8049 78.5946 51.1632 77.2358C49.5215 75.877 46.8596 78.1633 45.3524 78.7105C43.8452 79.2577 43.5252 77.2729 43.5252 77.2729C43.5252 77.2729 43.9611 72.3803 43.4231 63.3278C42.8852 54.2753 38.7856 55.0081 38.7856 55.0081" fill="#EBEBEB"/>
<path d="M39.2168 63.0959C39.2207 63.1592 39.2207 63.2227 39.2168 63.286C39.2168 63.4221 39.2307 63.6076 39.2585 63.8425C39.291 64.3434 39.342 65.0622 39.4023 65.9804C39.5275 67.8354 39.6852 70.5299 39.866 73.8642C40.2371 80.5145 40.6683 89.7061 41.1089 99.8345C41.5495 109.963 41.9622 119.182 42.2961 125.832C42.4631 129.148 42.6022 131.861 42.6949 133.716C42.7413 134.644 42.7784 135.358 42.8016 135.859C42.8016 136.095 42.8016 136.281 42.8016 136.415C42.8016 136.55 42.8016 136.605 42.8016 136.605C42.8016 136.605 42.8016 136.541 42.8016 136.415C42.8016 136.29 42.8016 136.1 42.7599 135.859C42.7274 135.363 42.6764 134.644 42.6161 133.721C42.4909 131.866 42.3332 129.172 42.1524 125.837C41.786 119.192 41.3547 110 40.9095 99.8669C40.4643 89.7339 40.0562 80.5284 39.7269 73.8967C39.5553 70.5762 39.4208 67.8679 39.3235 66.0129C39.2771 65.0854 39.2446 64.3712 39.2168 63.875C39.2168 63.6338 39.2168 63.4483 39.2168 63.3139C39.2168 63.1794 39.2168 63.0959 39.2168 63.0959Z" fill="#E0E0E0"/>
<path d="M32.9102 81.2657C33.0328 81.3439 33.145 81.4374 33.2441 81.544C33.4527 81.7341 33.7449 82.0078 34.102 82.3648C34.8115 83.0697 35.7669 84.0715 36.801 85.1937L39.4398 88.0783L40.2421 88.9455C40.3477 89.0467 40.4425 89.1586 40.525 89.2794C40.4009 89.2031 40.2871 89.1112 40.1865 89.0058C39.9778 88.8157 39.6856 88.542 39.3331 88.1757C38.6282 87.4661 37.6868 86.4552 36.6526 85.3329L33.9953 82.4715L33.1884 81.6043C33.0815 81.5038 32.988 81.3901 32.9102 81.2657Z" fill="#E0E0E0"/>
<path d="M41.0573 89.1032C41.0156 89.0614 42.9865 86.9977 45.4583 84.4935C47.9301 81.9892 49.9706 79.9858 50.0077 80.0275C50.0448 80.0693 48.0785 82.1283 45.6067 84.6372C43.1349 87.1461 41.099 89.1449 41.0573 89.1032Z" fill="#E0E0E0"/>
<path d="M41.0352 104.732C41.1519 104.64 41.2778 104.561 41.4108 104.495L42.4635 103.902C43.3539 103.401 44.5829 102.71 45.9092 101.894C47.2355 101.077 48.4135 100.303 49.2621 99.7371L50.2639 99.0646C50.3832 98.9747 50.5124 98.8985 50.6488 98.8374C50.551 98.9492 50.4387 99.0475 50.3149 99.1296C50.0876 99.3104 49.7584 99.5562 49.3456 99.8577C48.5155 100.456 47.3468 101.249 46.0159 102.07C44.6849 102.891 43.442 103.563 42.5331 104.031C42.0693 104.263 41.7076 104.449 41.4479 104.565C41.318 104.638 41.1793 104.694 41.0352 104.732Z" fill="#E0E0E0"/>
<path d="M32.1035 99.2594C32.237 99.2963 32.3638 99.3542 32.4792 99.431L33.4577 99.9735C34.2785 100.437 35.4008 101.096 36.639 101.829C37.8772 102.561 38.9949 103.243 39.7926 103.739C40.196 103.99 40.516 104.203 40.7201 104.337C40.8402 104.404 40.951 104.487 41.0493 104.583C40.9183 104.541 40.7936 104.482 40.6783 104.407C40.4464 104.286 40.1125 104.101 39.6998 103.864C38.879 103.401 37.752 102.742 36.5185 102.009C35.2849 101.277 34.1626 100.618 33.3603 100.099C32.9615 99.853 32.6415 99.635 32.4328 99.5005C32.3143 99.4327 32.2039 99.3518 32.1035 99.2594Z" fill="#E0E0E0"/>
<path d="M30.332 113.047C30.4942 113.106 30.6496 113.182 30.7958 113.274L32.0479 113.965C33.1053 114.559 34.5522 115.389 36.1475 116.316C37.7428 117.244 39.1851 118.097 40.2193 118.718L41.4389 119.47C41.5922 119.556 41.7381 119.656 41.8749 119.767C41.7124 119.708 41.5569 119.632 41.4111 119.539L40.1543 118.848C39.1016 118.255 37.6501 117.425 36.0548 116.497C34.4594 115.57 33.0218 114.716 31.983 114.095L30.7633 113.344C30.6116 113.257 30.4673 113.157 30.332 113.047Z" fill="#E0E0E0"/>
<path d="M41.6562 119.53C41.8007 119.411 41.956 119.305 42.12 119.215L43.4324 118.417C44.5362 117.745 46.0619 116.808 47.7175 115.727C49.3731 114.647 50.8478 113.64 51.8913 112.898L53.1481 112.022C53.2941 111.909 53.4492 111.808 53.6118 111.72C53.4835 111.858 53.3404 111.981 53.1852 112.087C52.8976 112.314 52.4803 112.634 51.9609 113.014C50.9174 113.784 49.4566 114.818 47.7871 115.899C46.1176 116.979 44.5872 117.898 43.4649 118.538C42.8991 118.858 42.44 119.113 42.12 119.28C41.9744 119.379 41.819 119.463 41.6562 119.53Z" fill="#E0E0E0"/>
<path d="M49.7581 128.833H34.8438L39.7132 165.678H44.8933L49.7581 128.833Z" fill="#E0E0E0"/>
<path d="M35.6172 133.364C35.6349 133.412 35.6617 133.456 35.696 133.494C35.7943 133.607 35.9184 133.694 36.0578 133.749C36.3177 133.84 36.5949 133.87 36.8682 133.837C37.1415 133.804 37.4036 133.709 37.6345 133.559C38.2328 133.225 38.7614 132.571 39.5684 132.283C40.4627 131.996 41.4272 132.016 42.3092 132.339C43.2077 132.647 44.0657 133.063 44.8644 133.577C45.53 133.994 46.2225 134.366 46.9374 134.69C47.4258 134.913 47.9422 135.069 48.4724 135.154C48.6155 135.172 48.7595 135.182 48.9037 135.182C48.9996 135.182 49.0506 135.182 49.0568 135.182C48.3481 135.073 47.6582 134.865 47.007 134.565C46.3087 134.22 45.6305 133.836 44.9757 133.415C44.1683 132.88 43.2955 132.452 42.3787 132.14C41.4458 131.8 40.4252 131.789 39.4849 132.107C39.0871 132.27 38.7189 132.497 38.3951 132.78C38.1269 133.021 37.8417 133.242 37.5418 133.443C37.3327 133.588 37.0945 133.685 36.8437 133.729C36.593 133.772 36.3358 133.76 36.0902 133.693C35.9127 133.615 35.7521 133.503 35.6172 133.364Z" fill="#F5F5F5"/>
<path d="M36.1664 140.149C36.1664 140.149 36.2823 139.996 36.5142 139.754C36.8523 139.419 37.2589 139.161 37.7061 138.998C38.3697 138.759 39.0741 138.651 39.779 138.683C40.6512 138.749 41.5185 138.868 42.3761 139.04C43.2516 139.208 44.1472 139.244 45.0334 139.147C45.7562 139.054 46.4612 138.854 47.1249 138.553C47.5685 138.348 47.9897 138.098 48.3817 137.807C48.5309 137.705 48.6652 137.584 48.7805 137.445C48.2297 137.797 47.653 138.107 47.0553 138.372C46.3995 138.641 45.7098 138.819 45.0055 138.901C44.1399 138.984 43.2668 138.942 42.4132 138.776C41.5467 138.605 40.6698 138.492 39.7883 138.437C39.0544 138.413 38.3233 138.541 37.6411 138.813C37.1808 138.999 36.771 139.292 36.4447 139.666C36.3598 139.769 36.2838 139.88 36.2174 139.996C36.1757 140.102 36.1571 140.144 36.1664 140.149Z" fill="#F5F5F5"/>
<path d="M48.0703 143.78C47.9454 143.686 47.8059 143.614 47.6576 143.566C47.2609 143.42 46.8456 143.331 46.424 143.302C45.8036 143.264 45.1809 143.3 44.5689 143.409C43.8733 143.525 43.1267 143.715 42.3429 143.872C41.6148 144.042 40.8692 144.126 40.1216 144.123C39.5155 144.108 38.9176 143.979 38.3593 143.743C37.8458 143.513 37.3861 143.178 37.0098 142.759C37.0655 142.905 37.1508 143.038 37.2602 143.149C37.5431 143.467 37.8869 143.726 38.2712 143.91C38.8429 144.185 39.4643 144.343 40.0984 144.373C40.8659 144.392 41.6326 144.312 42.38 144.137C43.1731 143.97 43.9104 143.77 44.5921 143.65C45.1923 143.533 45.8033 143.48 46.4147 143.492C46.976 143.523 47.5317 143.619 48.0703 143.78Z" fill="#F5F5F5"/>
<path d="M37.4829 148.89C37.9394 148.697 38.4441 148.647 38.9298 148.747C39.4561 148.874 39.9653 149.064 40.4463 149.312C41.0647 149.607 41.7305 149.789 42.4126 149.85C43.6589 149.962 44.9084 149.673 45.9789 149.025C46.3044 148.826 46.6062 148.591 46.8785 148.325C47.0594 148.13 47.1568 148.018 47.1429 148.009C46.7457 148.314 46.3323 148.597 45.9047 148.858C44.8486 149.437 43.6452 149.692 42.4451 149.591C41.0538 149.512 39.9501 148.663 38.9715 148.556C38.5937 148.494 38.2062 148.527 37.8446 148.654C37.6035 148.788 37.4736 148.881 37.4829 148.89Z" fill="#F5F5F5"/>
<path d="M64.7631 159.241L63.9005 162.872C63.9005 162.872 57.9598 170.584 56.128 170.209C54.9269 169.963 56.4016 167.95 58.6601 162.088L59.1239 159.672L64.7631 159.241Z" fill="#748494"/>
<path d="M55.8867 169.068C55.9573 169.2 56.0676 169.307 56.2021 169.374C56.3878 169.454 56.5919 169.481 56.7922 169.454C56.9924 169.426 57.1813 169.344 57.3383 169.216C58.3796 168.349 59.3677 167.42 60.297 166.434C61.3961 165.279 62.319 164.171 62.9682 163.35L63.7288 162.376C63.7984 162.278 63.8679 162.19 63.9328 162.107C63.9547 162.074 63.9813 162.044 64.0117 162.019C64.0117 162.019 64.0117 162.056 63.9514 162.121C63.8911 162.186 63.8262 162.297 63.7613 162.399C63.5943 162.64 63.3439 162.983 63.0285 163.396C62.1992 164.48 61.3122 165.519 60.3712 166.508C59.4406 167.504 58.4411 168.434 57.38 169.29C57.1829 169.431 56.9528 169.517 56.7122 169.541C56.5286 169.552 56.3456 169.512 56.1835 169.425C56.0817 169.37 55.9956 169.29 55.9331 169.193C55.9087 169.155 55.8929 169.112 55.8867 169.068Z" fill="#263238"/>
<path d="M56.7266 166.591C56.8827 166.53 57.0522 166.511 57.2181 166.536C57.6161 166.576 57.999 166.709 58.3358 166.925C58.6851 167.125 58.9675 167.423 59.1474 167.783C59.2254 167.926 59.2698 168.085 59.2772 168.247C59.2772 168.247 59.2216 168.066 59.0824 167.806C58.8912 167.472 58.6143 167.195 58.2801 167.004C57.9543 166.797 57.5899 166.658 57.2089 166.596C56.9167 166.568 56.7312 166.61 56.7266 166.591Z" fill="#263238"/>
<path d="M62.3528 164.778C62.3528 164.778 62.3157 164.723 62.2786 164.607C62.2268 164.445 62.188 164.279 62.1626 164.11C62.0777 163.544 62.1752 162.966 62.4409 162.459C62.6967 161.945 63.1204 161.532 63.642 161.291C63.7898 161.221 63.9455 161.17 64.1058 161.138C64.1687 161.127 64.233 161.127 64.2959 161.138C64.0745 161.195 63.8588 161.273 63.6513 161.37C63.1598 161.622 62.7605 162.023 62.5105 162.515C62.2579 163.006 62.1547 163.561 62.2137 164.11C62.2879 164.509 62.3713 164.774 62.3528 164.778Z" fill="#263238"/>
<path d="M64.3825 159.872C64.4103 159.872 64.2758 160.386 64.1645 161.031C64.1209 161.425 64.0177 161.809 63.8585 162.172C63.8353 162.172 63.9512 161.653 64.0625 161.008C64.1124 160.615 64.2202 160.233 64.3825 159.872Z" fill="#263238"/>
<path d="M58.5566 162.603C58.805 162.531 59.0688 162.531 59.3172 162.603C59.5729 162.642 59.8116 162.755 60.0036 162.928C60.0036 162.956 59.6928 162.798 59.294 162.705C58.8952 162.612 58.5566 162.654 58.5566 162.603Z" fill="#263238"/>
<path d="M58.4316 163.225C58.6368 163.14 58.8655 163.132 59.0763 163.201C59.2943 163.235 59.4933 163.345 59.6374 163.512C59.6374 163.512 59.3823 163.382 59.0484 163.303C58.7145 163.225 58.4363 163.257 58.4316 163.225Z" fill="#263238"/>
<path d="M57.9609 164.004C58.059 163.943 58.169 163.904 58.2834 163.89C58.3979 163.875 58.5141 163.886 58.6241 163.92C58.7386 163.937 58.8482 163.978 58.9457 164.041C59.0432 164.103 59.1264 164.185 59.1899 164.282C59.0071 164.186 58.8162 164.107 58.6195 164.045C58.402 164.009 58.1813 163.995 57.9609 164.004Z" fill="#263238"/>
<path d="M58.9668 162.343C58.9668 162.343 59.2404 162.269 59.6624 162.102C59.9101 162.006 60.1503 161.891 60.3812 161.759C60.5111 161.685 60.6409 161.601 60.7754 161.509C60.9099 161.416 61.0259 161.286 61.0212 161.147C61.0166 161.008 60.845 160.929 60.7059 160.961C60.564 161.009 60.4375 161.094 60.3395 161.207C60.1215 161.411 59.936 161.611 59.783 161.778C59.4816 162.121 59.3192 162.348 59.3192 162.334C59.348 162.274 59.3821 162.217 59.4213 162.163C59.4955 162.056 59.6021 161.908 59.7505 161.731C59.9179 161.521 60.0991 161.323 60.2931 161.138C60.4028 161.009 60.5455 160.913 60.7059 160.859C60.7546 160.843 60.8064 160.836 60.8577 160.842C60.909 160.847 60.9586 160.864 61.0028 160.89C61.047 160.917 61.0849 160.953 61.1137 160.995C61.1425 161.038 61.1616 161.087 61.1696 161.138C61.1602 161.233 61.1284 161.325 61.0768 161.405C61.0252 161.486 60.9553 161.553 60.8728 161.601C60.7414 161.694 60.6052 161.779 60.4647 161.856C60.2285 161.987 59.9819 162.097 59.7274 162.186C59.5555 162.244 59.3806 162.292 59.2033 162.33C59.1256 162.346 59.0459 162.35 58.9668 162.343Z" fill="#263238"/>
<path d="M59.2765 162.269C59.2296 162.05 59.194 161.829 59.1698 161.606C59.1306 161.368 59.062 161.136 58.9657 160.915C58.9082 160.789 58.8333 160.672 58.7431 160.567C58.655 160.465 58.5159 160.377 58.4046 160.442C58.2933 160.507 58.2794 160.669 58.2933 160.804C58.3165 160.941 58.3554 161.075 58.4092 161.203C58.5074 161.421 58.6388 161.623 58.7988 161.801C59.0724 162.107 59.2904 162.265 59.2625 162.265C59.206 162.241 59.153 162.21 59.1049 162.172C58.9721 162.073 58.8465 161.964 58.7292 161.847C58.555 161.668 58.4123 161.461 58.3072 161.235C58.2433 161.102 58.1996 160.959 58.1774 160.813C58.1583 160.728 58.1634 160.64 58.192 160.558C58.2207 160.476 58.2719 160.404 58.3397 160.349C58.4223 160.318 58.5133 160.315 58.5976 160.342C58.6819 160.369 58.7545 160.424 58.8034 160.498C58.9006 160.611 58.9789 160.74 59.0353 160.878C59.1338 161.105 59.1979 161.346 59.2254 161.592C59.2486 161.801 59.2579 161.968 59.2625 162.084C59.2776 162.144 59.2823 162.207 59.2765 162.269Z" fill="#263238"/>
<g opacity="0.4">
<path d="M63.8998 162.872L64.3171 161.128C64.3171 161.128 62.861 161.397 62.4853 162.487C62.262 163.079 62.164 163.711 62.1978 164.342L59.035 167.755C59.035 167.755 58.242 166.207 56.8043 166.578C56.8043 166.578 55.6728 169.068 55.7099 169.689C55.747 170.311 56.4704 170.237 56.7255 170.121C57.7716 169.514 58.7257 168.761 59.559 167.885C61.2332 166.146 63.0882 163.943 63.8998 162.872Z" fill="black"/>
</g>
<path d="M93.2041 161.574L93.2319 156.732L84.1609 156.625L84.0449 163.707L84.6061 163.749C87.1103 163.92 97.3361 164.435 99.0195 163.948C100.888 163.405 93.2041 161.574 93.2041 161.574Z" fill="#748494"/>
<g opacity="0.4">
<path d="M87.3373 163.675C87.2108 162.908 86.8063 162.214 86.2011 161.727C85.6084 161.243 84.8551 160.999 84.0911 161.045L84.0586 163.577L87.3373 163.675Z" fill="black"/>
</g>
<g opacity="0.4">
<path d="M96.9605 162.603C96.9605 162.603 99.6502 163.415 99.3071 163.855C98.9639 164.296 88.6083 164.166 84.0449 163.707V163.507L96.1025 163.763C96.1025 163.763 96.4318 162.622 96.9605 162.603Z" fill="black"/>
</g>
<path d="M83.9199 163.498H84.0776L84.5414 163.531L86.1923 163.623C87.5836 163.688 89.5082 163.758 91.6321 163.786C93.7561 163.814 95.6854 163.786 97.0766 163.786L98.7276 163.735H99.1913C99.2423 163.738 99.2934 163.738 99.3444 163.735C99.2921 163.727 99.239 163.727 99.1867 163.735H98.7229H97.072C95.6807 163.735 93.7561 163.735 91.6275 163.735C89.4989 163.735 87.5789 163.647 86.1877 163.6L84.5414 163.545H84.0776L83.9199 163.498Z" fill="#263238"/>
<path d="M96.1395 163.902C96.2123 163.629 96.3182 163.365 96.4548 163.118C96.6196 162.889 96.8111 162.68 97.0252 162.496C96.7546 162.612 96.5253 162.807 96.3672 163.055C96.2092 163.303 96.1298 163.594 96.1395 163.888V163.902Z" fill="#263238"/>
<path d="M93.4785 162.51C93.5063 162.51 93.6362 162.371 93.7707 162.167C93.8658 162.049 93.9339 161.911 93.9701 161.764C93.9423 161.764 93.8124 161.898 93.6779 162.107C93.5819 162.225 93.5137 162.363 93.4785 162.51Z" fill="#263238"/>
<path d="M92.7501 162.112C92.7501 162.135 92.9124 162.042 93.0701 161.903C93.2277 161.764 93.3437 161.634 93.3205 161.611C93.2973 161.588 93.1582 161.685 93.0005 161.819C92.8428 161.954 92.7315 162.088 92.7501 162.112Z" fill="#263238"/>
<path d="M92.2949 161.263C92.4425 161.32 92.6009 161.344 92.7587 161.333C92.9148 161.353 93.0734 161.337 93.2224 161.286C93.0746 161.23 92.9162 161.208 92.7587 161.221C92.6029 161.204 92.4451 161.218 92.2949 161.263Z" fill="#263238"/>
<path d="M92.1426 160.646C92.2987 160.751 92.4831 160.806 92.6713 160.804C92.856 160.838 93.0469 160.816 93.2185 160.739C93.0408 160.709 92.8607 160.695 92.6805 160.697C92.5036 160.66 92.3232 160.643 92.1426 160.646Z" fill="#263238"/>
<path d="M93.7988 161.727C93.9905 161.761 94.1868 161.761 94.3785 161.727C94.5908 161.703 94.8004 161.66 95.0046 161.597C95.1286 161.564 95.2484 161.518 95.3617 161.458C95.4304 161.417 95.4817 161.353 95.5054 161.277C95.5165 161.234 95.5145 161.189 95.4996 161.148C95.4847 161.107 95.4577 161.071 95.422 161.045C95.2012 160.933 94.9484 160.901 94.7066 160.954C94.4648 161.007 94.2489 161.143 94.0956 161.337C94.0039 161.452 93.9375 161.585 93.9009 161.727C93.8877 161.778 93.8877 161.833 93.9009 161.884C93.9625 161.704 94.0551 161.536 94.1745 161.388C94.3068 161.236 94.481 161.126 94.6753 161.073C94.789 161.035 94.9093 161.02 95.0288 161.029C95.1484 161.039 95.2648 161.073 95.371 161.128C95.4591 161.198 95.422 161.305 95.3199 161.365C95.2152 161.421 95.1048 161.466 94.9907 161.499C94.7936 161.565 94.5921 161.616 94.3878 161.653C94.0214 161.727 93.7988 161.727 93.7988 161.727Z" fill="#263238"/>
<path d="M93.9473 161.755C94.0208 161.634 94.0472 161.49 94.0215 161.351C94.004 161.199 93.9517 161.053 93.8684 160.924C93.8223 160.839 93.7558 160.767 93.6749 160.713C93.594 160.66 93.5012 160.627 93.4047 160.618C93.3456 160.632 93.2938 160.667 93.2594 160.717C93.2251 160.766 93.2107 160.827 93.2192 160.887C93.2317 160.98 93.265 161.069 93.3166 161.147C93.391 161.277 93.4813 161.397 93.5855 161.504C93.6753 161.611 93.79 161.694 93.9194 161.745C93.9194 161.745 93.8035 161.639 93.6458 161.453C93.5532 161.344 93.4724 161.226 93.4047 161.101C93.3258 160.975 93.2748 160.753 93.4047 160.73C93.5345 160.706 93.6968 160.864 93.785 160.98C93.8653 161.093 93.9192 161.223 93.9426 161.36C93.9569 161.491 93.9584 161.623 93.9473 161.755Z" fill="#263238"/>
<path d="M84.125 161.017C84.125 161.017 84.3847 161.017 84.7928 161.05C85.327 161.114 85.8318 161.329 86.2482 161.67C86.6646 162.011 86.9753 162.463 87.144 162.974C87.2785 163.364 87.2878 163.628 87.311 163.623C87.32 163.563 87.32 163.503 87.311 163.443C87.2998 163.276 87.2687 163.111 87.2182 162.951C87.0615 162.417 86.7481 161.942 86.3186 161.588C85.8868 161.234 85.358 161.021 84.8021 160.975C84.6356 160.958 84.4678 160.958 84.3012 160.975C84.2406 160.98 84.1811 160.994 84.125 161.017Z" fill="#263238"/>
<path d="M85.1271 157.256C85.0566 157.872 85.0225 158.491 85.0251 159.111C84.9864 159.729 84.9864 160.348 85.0251 160.966C85.0926 160.35 85.1266 159.731 85.1271 159.111C85.1634 158.493 85.1634 157.874 85.1271 157.256Z" fill="#263238"/>
<path d="M88.4883 162.807C88.9205 162.914 89.3648 162.964 89.81 162.956C90.2556 162.983 90.7029 162.954 91.141 162.867C91.141 162.835 90.5427 162.867 89.8146 162.867C89.0865 162.867 88.4929 162.775 88.4883 162.807Z" fill="#263238"/>
<path d="M86.7116 162.779C86.6884 162.803 86.758 162.909 86.8183 163.044C86.8786 163.178 86.9064 163.303 86.9388 163.299C86.9713 163.294 86.9852 163.16 86.9388 163.002C86.8925 162.844 86.7302 162.761 86.7116 162.779Z" fill="#263238"/>
<path d="M86.0527 161.94C86.0527 161.94 86.0852 162.056 86.1779 162.153C86.2707 162.251 86.3634 162.311 86.3866 162.288C86.4098 162.265 86.3495 162.172 86.2568 162.075C86.164 161.977 86.0713 161.917 86.0527 161.94Z" fill="#263238"/>
<path d="M85.0981 161.546C85.0981 161.578 85.2233 161.578 85.3578 161.625C85.4923 161.671 85.585 161.745 85.6082 161.727C85.6314 161.708 85.5572 161.578 85.3949 161.523C85.2326 161.467 85.0888 161.518 85.0981 161.546Z" fill="#263238"/>
<path d="M84.416 161.356C84.416 161.383 84.4578 161.434 84.532 161.462C84.6062 161.49 84.6757 161.495 84.6896 161.462C84.7035 161.43 84.6479 161.388 84.5737 161.356C84.4995 161.323 84.4299 161.328 84.416 161.356Z" fill="#263238"/>
<path d="M99.3404 68.1829L95.8576 159.093L81.7317 159.389L84.0783 80.6162L68.1901 159.992H54.7598L72.0624 68.3638L99.3404 68.1829Z" fill="#263238"/>
<path d="M87.3346 71.4895C87.3201 71.9923 87.2658 72.4931 87.1723 72.9874C87.0378 73.9149 86.843 75.1763 86.6065 76.5768C86.5169 77.2422 86.3821 77.9007 86.203 78.5478C86.0438 79.0957 85.72 79.5814 85.2755 79.9391C84.9804 80.1807 84.627 80.3406 84.2506 80.4028C84.1153 80.4378 83.9733 80.4378 83.8379 80.4028C84.346 80.3374 84.8224 80.1199 85.2048 79.779C85.5871 79.438 85.8575 78.9895 85.9804 78.4921C86.1419 77.852 86.2673 77.2032 86.3561 76.549C86.5926 75.1578 86.8198 73.8824 86.9914 72.9735C87.064 72.4701 87.1788 71.9737 87.3346 71.4895Z" fill="#455A64"/>
<path d="M84.3923 71.9254C84.4248 71.9486 84.3089 72.0924 84.3923 72.3335C84.408 72.3977 84.4372 72.4578 84.478 72.5098C84.5188 72.5618 84.5702 72.6045 84.6289 72.635C84.6994 72.6653 84.7775 72.6735 84.8528 72.6586C84.9281 72.6437 84.9972 72.6064 85.0509 72.5515C85.1103 72.5047 85.1551 72.4418 85.1798 72.3702C85.2044 72.2987 85.208 72.2215 85.19 72.148C85.1668 72.0854 85.1303 72.0285 85.0831 71.9813C85.0359 71.9341 84.979 71.8976 84.9164 71.8744C84.6892 71.777 84.5268 71.8744 84.5083 71.8373C84.4897 71.8002 84.6381 71.6333 84.972 71.7075C85.0673 71.7296 85.156 71.7738 85.231 71.8367C85.3059 71.8995 85.365 71.9792 85.4033 72.0692C85.44 72.1875 85.4416 72.3139 85.4078 72.4331C85.3741 72.5523 85.3064 72.6591 85.2131 72.7407C85.1198 72.8222 85.0049 72.8748 84.8822 72.8923C84.7596 72.9098 84.6345 72.8912 84.5222 72.839C84.44 72.7897 84.3702 72.7223 84.3179 72.6419C84.2657 72.5616 84.2325 72.4704 84.2208 72.3752C84.1697 72.0274 84.3831 71.8929 84.3923 71.9254Z" fill="#455A64"/>
<path d="M76.8059 73.2193C76.6372 72.8096 76.5735 72.3643 76.6205 71.9238C76.6674 71.4833 76.8236 71.0614 77.0749 70.6965C77.1444 70.729 76.9404 71.2623 76.8708 71.9533C76.8012 72.6443 76.8801 73.2054 76.8059 73.2193Z" fill="#455A64"/>
<path d="M78.5083 73.1126C78.3009 72.7002 78.2294 72.2326 78.3043 71.777C78.2943 71.3161 78.4289 70.8637 78.6892 70.4832C78.6677 70.9229 78.6213 71.3611 78.5501 71.7956C78.5603 72.235 78.5464 72.6747 78.5083 73.1126Z" fill="#455A64"/>
<path d="M93.1084 73.4836C93.0962 73.0277 93.1225 72.5716 93.1872 72.1202C93.1713 71.6633 93.1915 71.2058 93.2475 70.7521C93.4393 71.189 93.5052 71.6709 93.4376 72.1433C93.4481 72.6113 93.3345 73.0737 93.1084 73.4836Z" fill="#455A64"/>
<path d="M94.953 73.3816C94.8835 73.3538 95.1014 72.7602 95.1524 71.9903C95.2034 71.2205 95.0736 70.5991 95.1524 70.5991C95.3938 71.0303 95.4851 71.5294 95.4121 72.0181C95.4122 72.5106 95.2509 72.9895 94.953 73.3816Z" fill="#455A64"/>
<path d="M79.6583 30.3592L88.3769 29.6635C88.4326 28.6433 88.3769 24.706 88.3769 24.706C88.3769 24.706 92.0081 24.1402 92.0498 20.5322C92.0916 16.9242 91.4655 8.57202 91.4655 8.57202C89.403 7.68556 87.1411 7.36605 84.9137 7.64651C82.6863 7.92698 80.5742 8.79724 78.7958 10.1673L78.2578 10.5801L79.6583 30.3592Z" fill="#FFBE9D"/>
<path d="M88.367 24.6504C86.692 24.6846 85.0448 24.2179 83.6367 23.3101C83.6367 23.3101 84.7544 25.9211 88.3716 25.5918L88.367 24.6504Z" fill="#EB996E"/>
<path d="M78.6895 14.3179C78.6292 14.2901 76.1945 13.5805 76.2734 16.0616C76.3522 18.5427 78.8286 17.9491 78.8286 17.8795C78.8286 17.81 78.6895 14.3179 78.6895 14.3179Z" fill="#FFBE9D"/>
<path d="M78.0454 16.9659C78.0454 16.9659 77.999 16.9938 77.9295 17.0309C77.8253 17.0727 77.709 17.0727 77.6048 17.0309C77.4445 16.9351 77.3118 16.7992 77.22 16.6365C77.1281 16.4739 77.0801 16.2901 77.0808 16.1034C77.0681 15.8912 77.103 15.6789 77.1828 15.4819C77.2029 15.4031 77.2422 15.3305 77.2972 15.2706C77.3523 15.2107 77.4213 15.1654 77.4982 15.1387C77.547 15.1247 77.5992 15.1281 77.6458 15.1484C77.6923 15.1687 77.7304 15.2047 77.7532 15.25C77.7903 15.3196 77.7764 15.3706 77.7903 15.3706C77.8042 15.3706 77.8413 15.3289 77.8182 15.2269C77.8032 15.1654 77.7671 15.1113 77.7161 15.0738C77.6455 15.0259 77.5595 15.0061 77.475 15.0182C77.3742 15.0429 77.2813 15.0924 77.2044 15.162C77.1275 15.2316 77.0691 15.3192 77.0344 15.417C76.9371 15.6354 76.8941 15.874 76.9092 16.1126C76.9036 16.3339 76.9635 16.552 77.0815 16.7393C77.1996 16.9266 77.3703 17.0749 77.5724 17.1654C77.6398 17.1826 77.7102 17.1845 77.7784 17.1709C77.8467 17.1572 77.911 17.1284 77.9666 17.0865C78.0408 17.0355 78.05 16.9659 78.0454 16.9659Z" fill="#EB996E"/>
<path d="M90.2608 14.1371C90.2621 14.2725 90.2104 14.403 90.1169 14.5009C90.0233 14.5988 89.8952 14.6563 89.7599 14.6611C89.6943 14.6661 89.6284 14.6581 89.566 14.6375C89.5036 14.6168 89.4459 14.5839 89.3962 14.5408C89.3466 14.4976 89.306 14.4451 89.2769 14.3861C89.2478 14.3271 89.2307 14.263 89.2266 14.1974C89.2253 14.062 89.2769 13.9314 89.3705 13.8335C89.464 13.7356 89.5921 13.6781 89.7274 13.6733C89.793 13.6683 89.8589 13.6763 89.9214 13.697C89.9838 13.7176 90.0415 13.7505 90.0911 13.7936C90.1407 13.8368 90.1813 13.8893 90.2104 13.9483C90.2395 14.0073 90.2566 14.0714 90.2608 14.1371Z" fill="#263238"/>
<path d="M90.7596 13.6594C90.6946 13.7243 90.2958 13.4368 89.7486 13.4368C89.2014 13.4368 88.7793 13.715 88.7191 13.6501C88.6588 13.5852 88.7562 13.4971 88.9324 13.3672C89.175 13.1998 89.4631 13.1108 89.7579 13.1121C90.0473 13.1127 90.3294 13.2034 90.5648 13.3718C90.7364 13.5063 90.792 13.6269 90.7596 13.6594Z" fill="#263238"/>
<path d="M84.6709 14.1788C84.674 14.2472 84.6634 14.3155 84.6398 14.3797C84.6162 14.444 84.58 14.5028 84.5334 14.5529C84.4868 14.603 84.4306 14.6433 84.3682 14.6715C84.3058 14.6996 84.2385 14.715 84.17 14.7168C84.1045 14.7218 84.0386 14.7138 83.9761 14.6931C83.9137 14.6725 83.856 14.6396 83.8064 14.5965C83.7567 14.5533 83.7162 14.5007 83.6871 14.4418C83.6579 14.3828 83.6408 14.3186 83.6367 14.253C83.6366 14.1184 83.6888 13.989 83.7822 13.8921C83.8757 13.7952 84.0031 13.7384 84.1376 13.7336C84.267 13.7232 84.3954 13.7641 84.4951 13.8473C84.5949 13.9305 84.6579 14.0496 84.6709 14.1788Z" fill="#263238"/>
<path d="M85.2835 13.7614C85.2185 13.831 84.8197 13.5388 84.2678 13.5388C83.716 13.5388 83.3032 13.8217 83.243 13.7522C83.1827 13.6826 83.2754 13.5991 83.4563 13.4693C83.6967 13.3014 83.984 13.2137 84.2771 13.2188C84.567 13.2168 84.8498 13.3078 85.0841 13.4785C85.2556 13.6084 85.3113 13.7336 85.2835 13.7614Z" fill="#263238"/>
<path d="M87.6026 19.5135C87.517 19.5493 87.2866 18.9972 86.6411 18.7993C85.9957 18.6013 85.4319 18.912 85.3883 18.8197C85.3447 18.7273 85.4745 18.653 85.721 18.5451C86.047 18.4023 86.4131 18.3794 86.7544 18.4806C87.0784 18.5797 87.3511 18.8012 87.5146 19.098C87.6457 19.3398 87.6429 19.5017 87.6026 19.5135Z" fill="#263238"/>
<path d="M85.4278 11.5772C85.3721 11.7302 84.8156 11.656 84.1617 11.7348C83.5079 11.8137 82.9792 11.9945 82.8911 11.8554C82.854 11.7905 82.9421 11.6514 83.1554 11.503C83.4341 11.3211 83.752 11.2083 84.0829 11.1737C84.4182 11.1332 84.7584 11.173 85.0753 11.2896C85.3304 11.387 85.451 11.503 85.4278 11.5772Z" fill="#263238"/>
<path d="M90.5571 12.0455C90.4597 12.1708 90.0934 12.0455 89.6296 12.0455C89.1659 12.0455 88.7763 12.1337 88.7021 11.9992C88.6279 11.8647 88.7021 11.809 88.8969 11.6884C89.1263 11.5441 89.3936 11.4714 89.6645 11.4797C89.9355 11.4879 90.1978 11.5768 90.418 11.7348C90.5478 11.8508 90.6174 11.9806 90.5571 12.0455Z" fill="#263238"/>
<path d="M93.2151 6.26251C93.2417 6.03774 93.2105 5.8099 93.1245 5.60054C93.0385 5.39118 92.9005 5.20721 92.7236 5.06603C92.5404 4.93268 92.3157 4.86879 92.0897 4.88578C91.8638 4.90277 91.6512 4.99953 91.49 5.15878C91.5242 5.00903 91.527 4.8538 91.4981 4.70293C91.4691 4.55207 91.4091 4.40886 91.3219 4.2824C91.2347 4.15595 91.1222 4.04899 90.9914 3.96834C90.8607 3.88769 90.7146 3.83509 90.5625 3.81389C89.9689 3.77679 89.468 4.22664 88.893 4.37967C88.3226 4.50058 87.7283 4.4322 87.2003 4.1849C86.6623 3.97157 86.1615 3.67013 85.6189 3.47072C84.4698 3.05022 83.2011 3.10087 82.0892 3.61164C80.9774 4.12241 80.1124 5.0519 79.6828 6.19759C79.278 6.09718 78.8522 6.12238 78.462 6.26983C78.0718 6.41729 77.7358 6.68001 77.4985 7.02307C77.0379 7.72485 76.8545 8.57271 76.9838 9.40212C77.0604 9.95838 77.1988 10.5043 77.3965 11.0299C77.3965 11.0763 77.3965 11.1227 77.3965 11.169C77.4382 13.1678 77.6608 15.5098 78.5142 15.5237C79.9982 15.5237 79.6411 12.7412 79.6411 12.7412C81.4636 12.0363 80.7865 9.30938 81.241 8.89664C81.6955 8.48389 82.6323 7.50537 86.4583 9.46705C87.8768 10.1002 89.4584 10.2721 90.9799 9.95863H91.0772H91.1097C91.4559 9.87217 91.7862 9.73129 92.0882 9.54125C92.4457 9.33647 92.7284 9.02289 92.8952 8.64621C92.9726 8.45668 92.9941 8.24893 92.9571 8.04757C92.9201 7.8462 92.8262 7.65966 92.6865 7.51002C92.9844 7.157 93.1687 6.72214 93.2151 6.26251Z" fill="#263238"/>
<path d="M86.4431 14.1556C86.4199 14.1556 86.4431 13.9562 86.3271 13.6176C86.1915 13.1424 85.9009 12.7262 85.5017 12.4351C85.1825 12.1967 84.8032 12.0519 84.4064 12.0168C84.0096 11.9816 83.6109 12.0576 83.2548 12.2361C82.8986 12.4147 82.5992 12.6887 82.39 13.0277C82.1807 13.3667 82.0699 13.7572 82.0699 14.1556C82.0699 14.5539 82.1807 14.9444 82.39 15.2834C82.5992 15.6224 82.8986 15.8965 83.2548 16.075C83.6109 16.2536 84.0096 16.3295 84.4064 16.2944C84.8032 16.2593 85.1825 16.1144 85.5017 15.8761C85.8992 15.5832 86.1892 15.1676 86.3271 14.6935C86.4245 14.355 86.4199 14.1556 86.4431 14.1556C86.4663 14.1556 86.4431 14.202 86.4431 14.2993C86.4462 14.4396 86.4321 14.5798 86.4013 14.7167C86.2908 15.2298 86.0035 15.6877 85.5898 16.0106C85.2807 16.2545 84.9146 16.4158 84.5259 16.479C84.1373 16.5423 83.7389 16.5056 83.3684 16.3723C83.0473 16.2591 82.7546 16.0776 82.5106 15.8402C82.2665 15.6028 82.077 15.3152 81.955 14.9973C81.833 14.6795 81.7814 14.3389 81.804 13.9992C81.8265 13.6595 81.9226 13.3287 82.0855 13.0298C82.2484 12.7308 82.4743 12.4708 82.7475 12.2677C83.0208 12.0646 83.3349 11.9233 83.6681 11.8535C84.0014 11.7837 84.3458 11.7871 84.6776 11.8635C85.0094 11.9399 85.3206 12.0874 85.5898 12.2959C86.0039 12.6205 86.291 13.08 86.4013 13.5944C86.4323 13.7313 86.4463 13.8715 86.4431 14.0118C86.4431 14.1046 86.4431 14.1556 86.4431 14.1556Z" fill="#263238"/>
<path d="M92.4715 14.1556C92.4715 14.1556 92.4715 13.9562 92.3555 13.6177C92.2201 13.1436 91.9315 12.7277 91.5347 12.4351C91.2155 12.1968 90.8363 12.0519 90.4395 12.0168C90.0426 11.9817 89.6439 12.0576 89.2878 12.2362C88.9317 12.4147 88.6322 12.6888 88.423 13.0278C88.2137 13.3667 88.1029 13.7572 88.1029 14.1556C88.1029 14.554 88.2137 14.9445 88.423 15.2835C88.6322 15.6224 88.9317 15.8965 89.2878 16.0751C89.6439 16.2536 90.0426 16.3296 90.4395 16.2944C90.8363 16.2593 91.2155 16.1145 91.5347 15.8761C91.9297 15.5818 92.2179 15.1666 92.3555 14.6936C92.4529 14.355 92.4483 14.1556 92.4715 14.1556C92.4947 14.1556 92.4715 14.202 92.4715 14.2994C92.4745 14.4397 92.4605 14.5798 92.4297 14.7168C92.3191 15.2298 92.0319 15.6877 91.6182 16.0106C91.3096 16.2538 90.9443 16.4145 90.5565 16.4778C90.1688 16.5411 89.7713 16.5048 89.4014 16.3724C88.943 16.2103 88.5461 15.9101 88.2654 15.5131C87.9847 15.1161 87.834 14.6418 87.834 14.1556C87.834 13.6694 87.9847 13.1951 88.2654 12.7982C88.5461 12.4012 88.943 12.101 89.4014 11.9389C89.7709 11.8058 90.1682 11.7688 90.5559 11.8312C90.9436 11.8937 91.3091 12.0536 91.6182 12.296C92.0322 12.6206 92.3194 13.08 92.4297 13.5945C92.4607 13.7314 92.4747 13.8715 92.4715 14.0118C92.4715 14.1046 92.4715 14.1556 92.4715 14.1556Z" fill="#263238"/>
<path d="M81.9072 13.9933C81.3932 14.1404 80.8603 14.2107 80.3258 14.202C79.7953 14.269 79.2578 14.2581 78.7305 14.1695C79.2438 14.0191 79.7771 13.9487 80.3119 13.9608C80.8424 13.8942 81.3798 13.9052 81.9072 13.9933Z" fill="#263238"/>
<path d="M103.969 42.9176L106.849 48.107L108.607 33.995C108.684 32.9725 108.482 31.9481 108.022 31.0316C107.829 30.622 107.59 30.2361 107.308 29.8815C106.953 29.4427 106.539 29.0542 106.079 28.7267C105.982 28.6824 105.9 28.6087 105.847 28.5158C105.793 28.423 105.769 28.3158 105.78 28.209C105.79 28.1023 105.833 28.0014 105.904 27.9204C105.974 27.8395 106.068 27.7825 106.172 27.7575C106.636 27.7065 107.888 28.3789 108.876 29.7331C109.863 31.0872 109.966 28.4809 110.021 27.5349C110.077 26.5888 110.383 23.6765 110.684 23.4678C111.148 23.1663 111.547 23.5976 111.473 24.5437C111.399 25.4897 111.361 28.3325 111.862 28.3511C112.363 28.3696 112.567 23.5466 112.567 23.5466C112.567 23.5466 112.447 22.5032 113.031 22.5078C114.07 22.5078 113.467 27.6091 113.397 28.0728C113.351 28.4067 113.894 28.4485 113.926 28.0728C113.958 27.6972 114.028 23.2591 115.085 23.2498C115.902 23.2498 114.622 27.4514 115.122 28.3928C115.623 29.3343 115.762 25.0955 116.542 25.1234C116.829 25.1234 117.047 25.179 116.616 27.5905C116.384 28.889 115.526 30.758 115.266 33.2901L115.197 33.944C115.146 37.0975 114.45 46.5998 111.584 53.8344C111.183 54.8227 110.521 55.683 109.667 56.3226C108.814 56.9623 107.803 57.357 106.742 57.4644C105.681 57.5717 104.61 57.3876 103.646 56.9318C102.682 56.476 101.861 55.7659 101.27 54.8778C99.5079 52.2205 96.7207 45.2735 96.7207 45.2735L103.969 42.9176Z" fill="#FFBE9D"/>
<path d="M113.692 32.0055C113.692 32.0287 113.53 32.0055 113.279 32.1122C112.941 32.2302 112.657 32.4655 112.477 32.7753L112.38 32.9516L112.324 32.7568C112.242 32.4794 112.112 32.2188 111.939 31.9869C111.604 31.5333 111.14 31.1908 110.608 31.0038C110.2 30.86 109.922 30.8693 109.922 30.8322C110.163 30.7833 110.413 30.801 110.645 30.8832C111.225 31.0406 111.734 31.3906 112.088 31.8756C112.273 32.124 112.408 32.4059 112.486 32.7058H112.333C112.434 32.5359 112.568 32.3883 112.728 32.2719C112.887 32.1555 113.068 32.0728 113.261 32.0287C113.399 31.9757 113.55 31.9676 113.692 32.0055Z" fill="#EB996E"/>
<path d="M98.6641 32.6176L106.849 48.107L108.241 34.4124H115.573L112.878 53.9318C112.749 55.0077 112.318 56.025 111.634 56.8656C110.95 57.7062 110.042 58.3356 109.015 58.6806C106.353 59.5756 102.815 58.5322 101.502 56.0511L96.707 47.8891L98.6641 32.6176Z" fill="#00B8AD"/>
<g opacity="0.3">
<path d="M106.617 47.5876C105.868 48.1093 105.354 48.906 105.189 49.8044C105.024 50.6951 105.007 51.607 105.138 52.5034C105.144 52.7637 105.214 53.0185 105.342 53.2454C105.408 53.3568 105.511 53.4423 105.632 53.4879C105.753 53.5334 105.887 53.5362 106.01 53.4958C106.105 53.441 106.183 53.3609 106.236 53.2643C106.288 53.1676 106.313 53.0584 106.307 52.9486C106.291 52.7308 106.243 52.5166 106.163 52.3133C105.932 51.5501 105.872 50.7452 105.988 49.9563C106.104 49.1674 106.394 48.4139 106.835 47.7499" fill="black"/>
</g>
<path d="M75.4612 28.9911C76.6855 28.7592 77.8727 28.314 79.3103 28.2537C82.3286 29.2065 85.5671 29.2065 88.5854 28.2537C88.9657 28.3047 89.5129 28.3511 90.1483 28.43C94.1876 28.8937 95.7365 29.7609 98.6396 32.6037L98.3196 48.9511C98.3196 48.9511 99.2935 67.5569 99.2471 70.562H71.6445L71.6028 57.9572V54.5254L62.541 57.8458L63.3665 53.0785C63.3665 53.0785 67.429 37.2552 68.069 35.1219C68.8202 32.5342 71.6028 29.7285 75.4612 28.9911Z" fill="#00A69C"/>
<path d="M66.7009 53.3289L79.9503 49.8832L83.7392 56.0465L70.244 61.7275C69.5373 62.0401 68.7721 62.1982 67.9994 62.1912C66.917 62.1902 65.8593 61.8679 64.9603 61.2652C64.0613 60.6626 63.3613 59.8066 62.9491 58.8058L62.541 57.8041L66.7009 53.3289Z" fill="#00B8AD"/>
<g opacity="0.3">
<path d="M71.5059 61.2405C71.9379 61.9367 72.5478 62.505 73.2728 62.8869C74.9284 63.7819 76.9828 63.7587 78.759 63.1744C80.5267 62.5198 82.162 61.5521 83.5866 60.3177C85.5341 58.7465 87.3318 56.9984 88.9569 55.0958C89.0196 55.041 89.0694 54.9732 89.1031 54.8971C89.1367 54.821 89.1533 54.7384 89.1517 54.6552C89.1053 54.3677 88.6879 54.3306 88.419 54.3723C85.6735 54.8083 83.1693 56.1392 80.665 57.3496C77.6877 58.7904 74.6424 60.0858 71.529 61.2359" fill="black"/>
</g>
<path d="M97.5739 42.7321C97.5615 42.7755 97.5444 42.8175 97.5229 42.8573L97.3513 43.2144C97.2725 43.3674 97.1566 43.5483 97.0267 43.7663C96.8626 44.0098 96.6845 44.2436 96.4934 44.4665C95.9712 45.0816 95.3582 45.6133 94.6755 46.0433C93.7721 46.618 92.7656 47.0117 91.7121 47.2027C90.4283 47.4316 89.1079 47.3408 87.8676 46.9383C86.4431 46.4764 85.1545 45.6705 84.1158 44.5917C82.9464 43.4091 82.1415 41.9152 81.797 40.2881C81.62 39.4275 81.6121 38.5407 81.7738 37.6772C81.95 36.7854 82.3346 35.948 82.8961 35.2332C83.4584 34.5095 84.2189 33.9649 85.0851 33.6657C85.5138 33.5181 85.9707 33.4705 86.4207 33.5266C86.8722 33.588 87.2927 33.791 87.6218 34.1063C87.7852 34.2624 87.916 34.4493 88.0067 34.6563C88.0975 34.8632 88.1463 35.0861 88.1505 35.312C88.1485 35.7497 88.0179 36.177 87.7748 36.541C87.2804 37.2128 86.5495 37.6719 85.7297 37.8256C84.2681 38.1558 82.7481 38.1256 81.3008 37.7375C79.7666 37.3324 78.3635 36.5368 77.2281 35.4282C76.0927 34.3197 75.2638 32.936 74.8222 31.4119C74.613 30.7593 74.5005 30.0797 74.4883 29.3945C74.5002 29.437 74.508 29.4805 74.5115 29.5244L74.5671 29.9139C74.6456 30.4121 74.7619 30.9035 74.9149 31.384C75.4761 33.1527 76.5474 34.7161 77.9943 35.8778C78.9976 36.665 80.1536 37.2351 81.3889 37.552C82.8032 37.9218 84.2857 37.9457 85.7111 37.6215C86.4738 37.4753 87.1539 37.0484 87.6171 36.425C87.8349 36.0998 87.9511 35.7173 87.9511 35.3259C87.9482 35.1304 87.9056 34.9375 87.8259 34.7589C87.7462 34.5803 87.631 34.4198 87.4873 34.2871C87.194 34.006 86.8188 33.8257 86.416 33.7724C86.0018 33.721 85.5814 33.7655 85.1871 33.9022C84.368 34.19 83.6485 34.7067 83.1141 35.3909C82.5772 36.0766 82.2086 36.8787 82.0382 37.7328C81.8757 38.5644 81.8757 39.4195 82.0382 40.251C82.3658 41.8333 83.138 43.2893 84.2642 44.448C85.2761 45.506 86.5303 46.3018 87.9186 46.7667C89.1286 47.167 90.4181 47.2657 91.675 47.0543C92.7106 46.8744 93.7023 46.4982 94.5966 45.9459C95.2734 45.5301 95.8859 45.0176 96.4146 44.4248C96.8632 43.9057 97.2521 43.3379 97.5739 42.7321Z" fill="#E0E0E0"/>
<path d="M98.7332 60.8C98.5436 60.2143 98.2901 59.6513 97.9773 59.1212C97.5425 58.407 96.9578 57.7958 96.2635 57.3298C95.5693 56.8637 94.7822 56.5541 93.9565 56.4221C92.8193 56.2252 91.6529 56.279 90.5387 56.5798C89.9179 56.7412 89.315 56.965 88.7393 57.2476C88.1259 57.5363 87.5599 57.9162 87.0605 58.3746C86.5416 58.8494 86.2011 59.4877 86.0959 60.1832C86.035 60.5359 86.0775 60.8988 86.2182 61.2279C86.3589 61.5571 86.5918 61.8385 86.8889 62.0382C87.1861 62.2562 87.5576 62.3473 87.9219 62.2917C88.2862 62.2361 88.6135 62.0381 88.832 61.7414C89.3014 61.1061 89.6187 60.3715 89.7595 59.5942C90.0869 58.0575 89.9809 56.46 89.4535 54.9799C88.9747 53.5964 88.1511 52.3578 87.0605 51.3811C86.0724 50.4966 84.9163 49.82 83.6612 49.3916C82.3219 48.9232 80.8984 48.7447 79.4849 48.8678C78.0714 48.9909 76.7002 49.4129 75.462 50.1058C74.938 50.3887 74.5577 50.6484 74.2934 50.82L74.0012 51.0194L73.8945 51.0843C74.3638 50.6791 74.8735 50.3232 75.4156 50.0224C76.8871 49.1597 78.5564 48.6917 80.2619 48.6635C81.439 48.6424 82.6109 48.8244 83.7261 49.2015C85.0115 49.6293 86.1965 50.3141 87.2089 51.2142C88.3309 52.2148 89.1812 53.4831 89.6807 54.901C90.2232 56.4243 90.3324 58.0682 89.9961 59.6499C89.8505 60.4634 89.5205 61.2328 89.0315 61.8991C88.7727 62.2363 88.3932 62.46 87.9728 62.5232C87.5525 62.5863 87.124 62.484 86.7776 62.2376C86.4318 62.0174 86.1653 61.6924 86.0171 61.3101C85.8749 60.9429 85.8286 60.5455 85.8826 60.1554C85.989 59.4099 86.3513 58.7246 86.9075 58.2169C87.424 57.7454 88.0088 57.3546 88.6419 57.0575C89.2359 56.7711 89.8574 56.5458 90.4969 56.3851C91.6408 56.0889 92.8351 56.043 93.9983 56.2506C94.8416 56.3949 95.6431 56.7221 96.3465 57.2092C97.05 57.6963 97.6382 58.3315 98.07 59.0702C98.3023 59.4684 98.489 59.8916 98.6265 60.3316C98.6635 60.4458 98.6945 60.5619 98.7193 60.6794C98.7292 60.7188 98.7338 60.7594 98.7332 60.8Z" fill="#E0E0E0"/>
<path d="M73.4858 45.2596C73.4858 45.2596 73.4162 45.3755 73.2539 45.5517C73.0342 45.8063 72.7921 46.0407 72.5305 46.252C72.1393 46.5653 71.7147 46.8344 71.2644 47.0543C70.7099 47.3232 70.1242 47.5226 69.5207 47.6479C68.423 47.8484 67.298 47.8484 66.2002 47.6479C65.8689 47.5906 65.5408 47.5163 65.2171 47.4253C64.9898 47.3557 64.8646 47.314 64.8693 47.2954C64.8739 47.2769 65.3887 47.3743 66.2234 47.4763C67.303 47.62 68.3984 47.5934 69.4697 47.3975C70.0528 47.2751 70.6205 47.0885 71.1624 46.841C71.6059 46.635 72.0284 46.3865 72.4238 46.0989C73.0916 45.612 73.458 45.2317 73.4858 45.2596Z" fill="#E0E0E0"/>
<path d="M71.0151 61.3472C70.8896 60.8518 70.7188 60.369 70.505 59.9049C70.2386 59.356 69.8642 58.8665 69.4042 58.4657C68.9443 58.0648 68.4081 57.7609 67.8279 57.5722C67.2477 57.3834 66.6354 57.3136 66.0276 57.367C65.4199 57.4204 64.8291 57.5959 64.2907 57.8829C63.8452 58.1321 63.423 58.4207 63.0293 58.7455C63.0964 58.6218 63.186 58.5116 63.2936 58.4209C63.5684 58.1477 63.8807 57.915 64.2211 57.7299C64.7755 57.4094 65.391 57.2092 66.0278 57.1423C66.6646 57.0753 67.3083 57.1431 67.9172 57.3412C68.526 57.5394 69.0864 57.8634 69.5618 58.2923C70.0372 58.7212 70.417 59.2454 70.6766 59.8307C70.8376 60.1785 70.95 60.5467 71.0105 60.9252C71.0372 61.0644 71.0388 61.2074 71.0151 61.3472Z" fill="#E0E0E0"/>
<path d="M100.244 53.6721C100.18 53.5246 100.138 53.3683 100.119 53.2083C100.029 52.7914 99.9717 52.3681 99.9475 51.9423C99.9045 51.3084 99.9201 50.6719 99.9939 50.0409C100.091 49.2667 100.27 48.505 100.527 47.7685C100.794 47.0363 101.139 46.3351 101.557 45.677C101.898 45.14 102.289 44.6369 102.725 44.1744C103.013 43.8618 103.323 43.5704 103.653 43.3025C103.767 43.1965 103.895 43.106 104.033 43.0336C104.066 43.0707 103.542 43.4973 102.841 44.2903C102.432 44.7603 102.061 45.2628 101.733 45.7929C100.931 47.0957 100.411 48.5524 100.207 50.0687C100.124 50.6833 100.091 51.3038 100.11 51.9237C100.152 53.0275 100.291 53.6721 100.244 53.6721Z" fill="#E0E0E0"/>
<path d="M114.11 44.5964C114.11 44.5964 114.036 44.7123 113.855 44.87C113.589 45.0896 113.288 45.2635 112.965 45.3848C112.428 45.5813 111.856 45.6602 111.286 45.6162C110.717 45.5722 110.163 45.4063 109.663 45.1297C109.108 44.8203 108.651 44.3606 108.346 43.8034C108.101 43.3557 107.929 42.872 107.836 42.3704C107.766 42.039 107.724 41.7024 107.711 41.364C107.685 41.2401 107.685 41.1123 107.711 40.9884C107.752 40.9884 107.785 41.5171 107.984 42.3333C108.101 42.8084 108.282 43.2655 108.522 43.6921C108.818 44.2062 109.248 44.6308 109.765 44.921C110.239 45.181 110.761 45.3419 111.299 45.3937C111.837 45.4455 112.38 45.3873 112.895 45.2224C113.324 45.0637 113.732 44.8534 114.11 44.5964Z" fill="#E0E0E0"/>
<path d="M99.2521 33.7863C99.1552 33.8778 99.0419 33.9502 98.9182 33.9996C98.5951 34.1604 98.2495 34.2714 97.8933 34.3289C97.3632 34.4147 96.8215 34.3974 96.2979 34.2779C95.6565 34.1278 95.0512 33.852 94.5171 33.4663C93.5416 32.7551 92.8773 31.6956 92.6621 30.5076C92.597 30.1544 92.5783 29.7943 92.6065 29.4363C92.6094 29.3032 92.6344 29.1716 92.6807 29.0468C92.696 29.5243 92.7456 30.0001 92.8291 30.4705C93.087 31.5849 93.7331 32.5712 94.6516 33.253C95.1612 33.6201 95.7355 33.8875 96.3443 34.0414C96.8415 34.1646 97.3567 34.1976 97.8654 34.1388C98.3374 34.0636 98.8015 33.9456 99.2521 33.7863Z" fill="#E0E0E0"/>
<path d="M84.7 70.3672C84.3319 69.6947 83.9294 69.0414 83.4942 68.4102C82.4046 66.9157 80.9841 65.6935 79.3436 64.8393C78.4419 64.3727 77.4875 64.0162 76.5008 63.7773C75.6935 63.5889 74.8672 63.494 74.0383 63.4944C73.273 63.5238 72.5099 63.5934 71.752 63.7031C71.9436 63.6218 72.1445 63.5642 72.3502 63.5315C72.9054 63.411 73.4704 63.3412 74.0383 63.3228C74.8826 63.2982 75.7268 63.3776 76.5518 63.5593C77.5607 63.7908 78.5362 64.1492 79.4549 64.626C81.1285 65.4925 82.5622 66.759 83.6287 68.3128C83.9492 68.7793 84.2315 69.2709 84.4727 69.7829C84.5727 69.9674 84.6491 70.1637 84.7 70.3672Z" fill="#E0E0E0"/>
<path d="M79.9512 49.8832C80.8794 49.4255 81.6651 48.7232 82.2236 47.8519C82.4789 47.4736 82.6905 47.0676 82.8543 46.6415C83.0489 46.1082 83.1721 45.5515 83.2206 44.9859C83.2206 44.4619 83.8282 44.1883 84.111 44.5639C84.3939 44.9396 84.4496 46.3726 83.7864 47.9215C83.1232 49.4704 85.4327 48.2276 86.2814 47.787C87.1301 47.3464 89.8152 46.1128 90.1491 46.2705C90.6407 46.5024 90.4784 47.0867 89.6204 47.5041C88.7625 47.9215 86.2814 49.3591 86.5226 49.8229C86.7637 50.2866 91.0488 47.9679 91.0488 47.9679C91.0488 47.9679 91.8928 47.3279 92.185 47.8287C92.7183 48.7562 88.0112 50.8292 87.5475 51.0194C87.2321 51.1492 87.4779 51.6408 87.8118 51.4831C88.1457 51.3254 92.0366 49.0902 92.5885 50.0084C93.0151 50.7087 88.7161 51.7706 88.1503 52.6842C87.5846 53.5978 91.3363 51.5434 91.7166 52.2205C91.8557 52.4802 91.9253 52.6842 89.6112 53.5561C88.3683 54.0199 86.3092 54.2425 83.9812 55.3184L83.3737 55.592" fill="#FFBE9D"/>
<path d="M87.0645 13.9133L87.3124 17.8578C87.3124 17.8578 88.4345 18.0654 89.0354 17.3157C88.6138 15.9587 87.9328 14.7831 87.0645 13.9133Z" fill="#EB996E"/>
<path d="M88.1356 14.0165C88.1078 14.0814 87.7322 13.9701 87.2638 13.9933C86.7954 14.0165 86.429 14.1463 86.3966 14.086C86.3641 14.0257 86.7258 13.7707 87.2545 13.7521C87.7832 13.7336 88.1681 13.9608 88.1356 14.0165Z" fill="#263238"/>
<path d="M104.576 147.751C103.779 148.892 102.22 148.511 101.502 147.816C100.783 147.12 100.472 146.109 100.198 145.145C99.5631 142.942 98.9231 140.628 99.3961 138.388C99.5058 137.701 99.8045 137.059 100.259 136.533C100.487 136.277 100.778 136.085 101.104 135.977C101.429 135.869 101.778 135.848 102.114 135.916C102.897 136.125 103.384 136.89 103.737 137.622C104.773 139.779 105.316 142.14 105.328 144.532C105.405 145.652 105.141 146.769 104.572 147.737" fill="#00A69C"/>
<path d="M101.581 153.538C100.24 152.908 98.731 152.724 97.2774 153.014C96.4829 153.085 95.7349 153.419 95.1534 153.965C94.62 154.549 94.518 155.579 95.1302 156.084C95.5224 156.353 95.9976 156.473 96.4704 156.423C97.6066 156.423 98.868 156.21 99.777 156.887C100.296 157.276 100.64 157.926 101.261 158.12C101.572 158.191 101.897 158.159 102.187 158.029C102.478 157.9 102.72 157.68 102.875 157.402C103.17 156.829 103.234 156.165 103.056 155.547C102.98 155.121 102.808 154.719 102.553 154.37C102.297 154.022 101.964 153.738 101.581 153.538Z" fill="#40CAC2"/>
<path d="M106.775 149.388C106.36 148.851 106.083 148.221 105.966 147.553C105.85 146.885 105.898 146.198 106.107 145.553C106.546 144.269 107.331 143.131 108.375 142.265C109.56 141.21 110.94 140.397 112.437 139.872C113.014 139.636 113.637 139.53 114.26 139.561C114.571 139.578 114.874 139.671 115.141 139.833C115.408 139.995 115.631 140.22 115.79 140.488C116.221 141.3 115.79 142.288 115.368 143.095C114.584 144.515 113.693 145.873 112.701 147.157C111.904 148.187 110.985 149.202 109.77 149.666C108.555 150.13 107.285 150.079 106.64 149.235" fill="#40CAC2"/>
<path d="M104.633 164.989C104.589 164.819 104.564 164.645 104.559 164.469L104.42 163.055C104.355 162.456 104.267 161.747 104.105 160.972C103.916 160.136 103.663 159.316 103.349 158.519C103.037 157.726 102.615 156.979 102.097 156.302C101.673 155.75 101.131 155.3 100.511 154.985C100.091 154.775 99.6398 154.634 99.1749 154.568C99.0012 154.562 98.8286 154.537 98.6602 154.494C98.8343 154.475 99.01 154.475 99.1842 154.494C99.6659 154.53 100.137 154.652 100.575 154.856C101.229 155.164 101.802 155.619 102.25 156.186C102.792 156.872 103.23 157.635 103.548 158.45C103.869 159.258 104.119 160.093 104.295 160.945C104.431 161.64 104.523 162.343 104.573 163.05C104.619 163.653 104.633 164.14 104.643 164.474C104.658 164.645 104.655 164.818 104.633 164.989Z" fill="#263238"/>
<path d="M104.535 163.899C104.523 163.819 104.523 163.738 104.535 163.658V162.971C104.535 162.373 104.535 161.506 104.507 160.439C104.452 158.301 104.266 155.338 103.914 152.092C103.561 148.845 103.079 145.928 102.648 143.837C102.546 143.313 102.444 142.84 102.346 142.446C102.249 142.051 102.175 141.671 102.096 141.384L101.938 140.716C101.912 140.638 101.898 140.557 101.896 140.475C101.929 140.549 101.957 140.624 101.98 140.702C102.031 140.873 102.096 141.096 102.179 141.36C102.263 141.625 102.36 142.005 102.462 142.418C102.564 142.83 102.685 143.299 102.796 143.809C103.386 146.538 103.831 149.297 104.127 152.073C104.484 155.319 104.642 158.283 104.656 160.421C104.656 161.492 104.656 162.359 104.619 162.957C104.619 163.236 104.586 163.467 104.577 163.648C104.573 163.733 104.559 163.817 104.535 163.899Z" fill="#263238"/>
<path d="M104.52 158.195C104.501 157.954 104.501 157.712 104.52 157.471C104.548 157.007 104.608 156.34 104.738 155.523C104.897 154.565 105.11 153.616 105.373 152.681C105.691 151.534 106.087 150.41 106.561 149.318C107.388 147.311 108.571 145.47 110.053 143.883C110.311 143.613 110.585 143.359 110.874 143.123C110.999 143.016 111.11 142.909 111.221 142.826L111.541 142.603C111.733 142.458 111.936 142.33 112.149 142.218C111.449 142.766 110.785 143.358 110.159 143.99C108.727 145.588 107.578 147.418 106.76 149.402C106.288 150.486 105.888 151.6 105.564 152.736C105.292 153.661 105.067 154.599 104.891 155.547C104.738 156.358 104.655 157.021 104.604 157.48C104.594 157.72 104.566 157.959 104.52 158.195Z" fill="#263238"/>
<path d="M217.747 3.66366L213.23 0L217.747 3.66366Z" fill="white"/>
<path d="M259.194 66.3539H233.738V148.74H259.194V66.3539Z" fill="#EBEBEB"/>
<path d="M280.8 66.3678H259.193V148.726H280.8V66.3678Z" fill="#E0E0E0"/>
<path d="M256.15 69.6929H235.727V87.4408H256.15V69.6929Z" fill="#E0E0E0"/>
<path d="M256.15 89.4488H235.727V107.197H256.15V89.4488Z" fill="#E0E0E0"/>
<path d="M256.15 109.209H235.727V126.957H256.15V109.209Z" fill="#E0E0E0"/>
<path d="M256.15 128.965H235.727V146.713H256.15V128.965Z" fill="#E0E0E0"/>
<path d="M245.941 72.967C245.941 73.1074 245.899 73.2446 245.821 73.3612C245.743 73.4779 245.632 73.5689 245.503 73.6226C245.373 73.6763 245.23 73.6903 245.093 73.663C244.955 73.6356 244.829 73.568 244.729 73.4688C244.63 73.3695 244.562 73.2431 244.535 73.1055C244.508 72.9678 244.522 72.8252 244.576 72.6955C244.629 72.5659 244.72 72.455 244.837 72.3771C244.954 72.2991 245.091 72.2575 245.231 72.2575C245.419 72.2575 245.6 72.3323 245.733 72.4653C245.866 72.5984 245.941 72.7789 245.941 72.967Z" fill="#FAFAFA"/>
<path d="M245.941 92.9548C245.941 93.0951 245.899 93.2323 245.821 93.349C245.743 93.4657 245.632 93.5566 245.503 93.6103C245.373 93.664 245.23 93.6781 245.093 93.6507C244.955 93.6233 244.829 93.5558 244.729 93.4565C244.63 93.3573 244.562 93.2309 244.535 93.0932C244.508 92.9556 244.522 92.8129 244.576 92.6833C244.629 92.5536 244.72 92.4428 244.837 92.3648C244.954 92.2869 245.091 92.2453 245.231 92.2453C245.419 92.2453 245.6 92.32 245.733 92.4531C245.866 92.5862 245.941 92.7666 245.941 92.9548Z" fill="#FAFAFA"/>
<path d="M245.941 112.947C245.941 113.088 245.899 113.225 245.821 113.341C245.743 113.458 245.632 113.549 245.503 113.603C245.373 113.656 245.23 113.671 245.093 113.643C244.955 113.616 244.829 113.548 244.729 113.449C244.63 113.35 244.562 113.223 244.535 113.086C244.508 112.948 244.522 112.805 244.576 112.676C244.629 112.546 244.72 112.435 244.837 112.357C244.954 112.279 245.091 112.238 245.231 112.238C245.419 112.238 245.6 112.312 245.733 112.445C245.866 112.579 245.941 112.759 245.941 112.947Z" fill="#FAFAFA"/>
<path d="M245.941 132.935C245.941 133.075 245.899 133.213 245.821 133.329C245.743 133.446 245.632 133.537 245.503 133.591C245.373 133.644 245.23 133.658 245.093 133.631C244.955 133.604 244.829 133.536 244.729 133.437C244.63 133.338 244.562 133.211 244.535 133.073C244.508 132.936 244.522 132.793 244.576 132.663C244.629 132.534 244.72 132.423 244.837 132.345C244.954 132.267 245.091 132.225 245.231 132.225C245.419 132.227 245.599 132.302 245.731 132.435C245.864 132.567 245.939 132.747 245.941 132.935Z" fill="#FAFAFA"/>
<path d="M236.678 148.74H233.738V165.263H236.678V148.74Z" fill="#E0E0E0"/>
<path d="M259.087 148.74H256.146V165.263H259.087V148.74Z" fill="#E0E0E0"/>
<path d="M280.485 148.74H277.545V165.263H280.485V148.74Z" fill="#E0E0E0"/>
<path d="M257.408 48.2165C258.204 46.142 259.244 44.1695 260.506 42.3407C260.876 41.69 261.433 41.1662 262.106 40.8382C263.27 40.3744 264.532 41.1072 265.57 41.7935L267.987 43.3796C268.062 43.4177 268.13 43.4705 268.184 43.535C268.239 43.5996 268.281 43.6744 268.307 43.7552C268.348 44.052 267.977 44.2189 267.676 44.2607C266.647 44.3774 265.61 44.1206 264.754 43.5372C264.105 43.0735 263.474 42.4289 262.69 42.5123C261.717 42.6144 261.299 43.7459 260.905 44.6456C260.085 46.6015 258.642 48.2318 256.801 49.2831" fill="#F5F5F5"/>
<path d="M257.403 48.6153C257.589 43.7923 257.779 38.9275 258.934 34.2389C260.088 29.5504 262.296 24.9917 265.927 21.8057C265.463 25.8728 263.97 29.7452 262.505 33.5711L256.592 49.0188" fill="#F5F5F5"/>
<path d="M256.559 50.373C255.873 45.9767 254.64 41.6832 252.891 37.5919C252.691 36.9671 252.302 36.4196 251.778 36.0244C250.953 35.5282 249.895 35.8575 248.996 36.247C246.9 37.1848 244.96 38.4358 243.24 39.957C243.091 40.063 242.983 40.2169 242.934 40.393C242.928 40.53 242.971 40.6649 243.056 40.7724C243.142 40.8799 243.263 40.9527 243.398 40.9773C243.665 41.0297 243.942 41.0121 244.2 40.9263L249.023 39.8133C249.28 39.6951 249.56 39.6361 249.843 39.6407C250.126 39.6453 250.404 39.7133 250.656 39.8397C250.909 39.9662 251.131 40.1478 251.304 40.3711C251.477 40.5945 251.598 40.854 251.657 41.1303C253.234 44.3148 254.814 47.4992 256.397 50.6837" fill="#F5F5F5"/>
<path d="M263.896 13.9868C259.865 18.7701 257.505 24.7373 257.172 30.9834C256.717 41.2555 256.096 48.6478 256.096 48.6478H257.227C257.227 48.6478 259.495 27.9504 261.007 24.3239C262.519 20.6973 264.875 15.5729 263.896 13.9868Z" fill="#EBEBEB"/>
<path d="M263.896 13.9868C263.854 14.0991 263.807 14.209 263.753 14.3161C263.646 14.5433 263.498 14.8494 263.317 15.2436C262.941 16.0505 262.426 17.2285 261.847 18.7078C261.267 20.1872 260.636 21.9541 260.033 23.9807C259.369 26.156 258.843 28.371 258.457 30.6124C258.253 31.8089 258.16 32.9822 258.072 34.123C257.984 35.2638 257.919 36.3676 257.858 37.4157C257.738 39.5118 257.608 41.4039 257.432 42.9807C257.255 44.5575 257.056 45.8374 256.88 46.6907C256.796 47.1267 256.713 47.4652 256.657 47.6924C256.634 47.8087 256.603 47.9233 256.564 48.0356C256.57 47.9168 256.587 47.7987 256.615 47.6832C256.657 47.4513 256.727 47.1174 256.796 46.6768C256.949 45.8003 257.135 44.5296 257.26 42.9668C257.385 41.4039 257.529 39.4979 257.64 37.4017C257.696 36.3537 257.761 35.2499 257.84 34.1091C257.919 32.9683 258.021 31.7903 258.225 30.5799C258.61 28.3287 259.145 26.1056 259.825 23.9251C260.441 21.9124 261.086 20.1269 261.68 18.6522C262.273 17.1774 262.816 16.0041 263.215 15.2111C263.409 14.8077 263.576 14.5062 263.678 14.2836C263.74 14.1771 263.813 14.0776 263.896 13.9868Z" fill="#E0E0E0"/>
<path d="M268.107 23.605C268.107 23.605 260.456 30.9092 259.593 37.8005C258.73 44.6919 258.285 48.3834 258.285 48.3834H259.041C259.041 48.3834 260.854 38.5611 263.215 35.4632C265.575 32.3654 268.618 24.4352 268.107 23.605Z" fill="#EBEBEB"/>
<path d="M268.015 24.0688C267.985 24.1491 267.947 24.2267 267.904 24.3007C267.811 24.4676 267.69 24.681 267.547 24.9453C267.217 25.525 266.763 26.3366 266.211 27.3012C265.089 29.2953 263.54 32.0547 262.135 35.2453C260.913 37.9601 259.996 40.8016 259.398 43.7181C259.18 44.8357 259.055 45.7539 258.986 46.3893C258.944 46.7093 258.93 46.9551 258.907 47.122C258.901 47.2079 258.889 47.2932 258.87 47.3771C258.859 47.2909 258.859 47.2036 258.87 47.1174C258.87 46.9504 258.87 46.7 258.907 46.38C258.978 45.4782 259.094 44.5805 259.255 43.6902C259.814 40.7645 260.716 37.9145 261.94 35.1989C263.166 32.4761 264.548 29.8267 266.081 27.2641C266.661 26.2763 267.138 25.4833 267.472 24.9453L267.862 24.3192C267.904 24.2308 267.956 24.1469 268.015 24.0688Z" fill="#E0E0E0"/>
<path d="M253.313 24.8896C253.313 24.8896 252.181 39.317 254.825 47.9289H255.752C255.752 47.9289 256.341 29.2721 253.313 24.8896Z" fill="#EBEBEB"/>
<path d="M253.943 27.6165C253.965 27.6825 253.978 27.7512 253.98 27.8206C253.98 27.9783 254.018 28.1731 254.041 28.4049C254.087 28.9475 254.152 29.671 254.231 30.5568C254.379 32.3747 254.569 34.8882 254.769 37.6661C254.968 40.444 255.135 42.9575 255.233 44.7801C255.284 45.6658 255.325 46.3986 255.353 46.9365C255.353 47.173 255.353 47.3678 255.376 47.5255C255.384 47.5948 255.384 47.6648 255.376 47.7342C255.352 47.669 255.339 47.5998 255.339 47.5301C255.339 47.3725 255.302 47.1777 255.279 46.9458C255.228 46.4032 255.168 45.6751 255.089 44.794C254.94 42.9714 254.75 40.4579 254.551 37.68C254.351 34.9021 254.185 32.3886 254.087 30.566C254.036 29.6803 253.994 28.9522 253.967 28.4096C253.967 28.1731 253.967 27.9829 253.967 27.8206C253.951 27.7538 253.943 27.6852 253.943 27.6165Z" fill="#E0E0E0"/>
<path d="M251.518 47.0942C251.518 47.0942 254.301 49.0837 254.153 50.0112C254.004 50.9387 247.321 55.9148 247.748 59.8289C248.175 63.7429 251.375 66.4466 256.856 66.2333C262.338 66.02 266.034 62.6067 265.538 59.1193C265.041 55.6319 259.602 50.09 259.541 49.8211C259.36 49.0559 261.981 47.0942 261.981 47.0942H251.518Z" fill="#E0E0E0"/>
<path d="M261.493 52.1491C261.493 52.2094 259.471 52.2558 256.981 52.2558C254.491 52.2558 252.469 52.2094 252.469 52.1491C252.469 52.0888 254.486 52.0424 256.981 52.0424C259.476 52.0424 261.493 52.0935 261.493 52.1491Z" fill="#FAFAFA"/>
<path d="M262.125 53.0952C262.125 53.1555 259.741 53.2019 256.806 53.2019C253.87 53.2019 251.486 53.1555 251.486 53.0952C251.486 53.0349 253.865 52.9932 256.806 52.9932C259.746 52.9932 262.125 53.0395 262.125 53.0952Z" fill="#FAFAFA"/>
<path d="M263.09 54.1433C263.09 54.2035 260.279 54.2499 256.806 54.2499C253.332 54.2499 250.531 54.2128 250.531 54.1433C250.531 54.0737 253.342 54.0366 256.81 54.0366C260.279 54.0366 263.09 54.0876 263.09 54.1433Z" fill="#FAFAFA"/>
<path d="M263.939 55.5392C263.939 55.5994 260.693 55.6458 256.695 55.6458C252.697 55.6458 249.451 55.5994 249.451 55.5392C249.451 55.4789 252.697 55.4325 256.695 55.4325C260.693 55.4325 263.939 55.4835 263.939 55.5392Z" fill="#FAFAFA"/>
<path d="M193.141 46.1852L190.275 51.3746L188.517 37.2672C188.441 36.2433 188.643 35.2176 189.102 34.2992C189.297 33.8924 189.537 33.5083 189.816 33.1537C190.171 32.7149 190.585 32.3265 191.045 31.999C191.509 31.7439 191.416 31.0715 190.957 31.0251C190.498 30.9787 189.241 31.6512 188.253 33.0007C187.265 34.3502 187.159 31.7532 187.103 30.8071C187.047 29.8611 186.741 26.9441 186.44 26.74C185.976 26.4386 185.577 26.8699 185.656 27.8113C185.735 28.7527 185.763 31.6048 185.267 31.6233C184.77 31.6419 184.557 26.8188 184.557 26.8188C184.557 26.8188 184.678 25.7754 184.093 25.7754C183.05 25.7754 183.653 30.8767 183.722 31.3404C183.773 31.6743 183.231 31.7114 183.198 31.3404C183.166 30.9694 183.096 26.522 182.034 26.5174C181.223 26.5174 182.498 30.7144 181.997 31.6558C181.496 32.5972 181.357 28.3631 180.578 28.3863C180.29 28.3863 180.073 28.4466 180.508 30.8581C180.74 32.1566 181.594 34.0209 181.858 36.553L181.928 37.2116C181.974 40.3651 182.67 49.8674 185.54 57.102C185.94 58.0904 186.602 58.9509 187.455 59.5908C188.308 60.2306 189.319 60.6255 190.38 60.7329C191.441 60.8402 192.511 60.656 193.475 60.2C194.439 59.7441 195.26 59.0337 195.849 58.1454C197.616 55.4881 200.403 48.5364 200.403 48.5364L193.141 46.1852Z" fill="#B78876"/>
<path d="M183.416 35.2684C183.416 35.2684 183.578 35.2684 183.829 35.3797C184.168 35.4959 184.453 35.7316 184.631 36.0429L184.728 36.2191L184.784 36.0197C184.868 35.7431 184.998 35.4828 185.169 35.2499C185.505 34.7983 185.969 34.4576 186.5 34.2713C186.908 34.1229 187.191 34.1322 187.186 34.0997C186.945 34.0479 186.694 34.0656 186.463 34.1508C185.884 34.3077 185.377 34.6579 185.025 35.1432C184.838 35.393 184.701 35.6764 184.622 35.9779L184.779 35.9548C184.571 35.6162 184.238 35.3731 183.852 35.2777C183.711 35.2295 183.559 35.2263 183.416 35.2684Z" fill="#A36957"/>
<path d="M202.629 11.1718C201.289 11.4779 200.046 12.1874 199.921 13.5601C199.795 14.9328 199.967 16.3798 199.392 17.6319C198.743 19.0232 197.194 20.0805 197.143 21.6295C197.11 22.557 197.671 23.4613 197.644 24.412C197.602 25.9609 196.016 27.1342 195.932 28.6878C195.877 29.8008 196.619 30.8721 196.438 31.9758C196.299 32.8384 195.631 33.5108 195.348 34.3363C194.787 35.978 195.914 37.782 197.379 38.7049C198.2 39.2213 199.124 39.5521 200.087 39.6741C201.049 39.7962 202.026 39.7066 202.95 39.4115C203.874 39.1164 204.723 38.6231 205.436 37.9659C206.15 37.3088 206.711 36.5037 207.081 35.607C207.893 33.636 207.716 31.4332 207.545 29.2907C206.994 22.6652 206.585 16.0319 206.316 9.39099" fill="#263238"/>
<path d="M230.738 158.094C230.738 158.094 217.507 116.532 217.238 115.233C216.997 114.056 221.811 85.2703 222.414 77.8178L205.399 78.4532V78.5784L198.164 78.9772L204.884 163.07L212.304 162.94L211.682 133.649C216.51 146.634 223.93 160.904 223.93 160.904L230.738 158.094Z" fill="#B78876"/>
<path d="M212.039 143.383C212.039 143.133 211.942 134.289 211.942 134.289C211.845 134.818 208.941 126.609 209.011 126.109C209.025 125.849 212.039 143.383 212.039 143.383Z" fill="#A36957"/>
<path d="M208.658 122.222C208.617 122.384 208.6 122.551 208.607 122.718C208.582 123.17 208.582 123.622 208.607 124.073C208.607 124.36 208.648 124.676 208.686 125C208.723 125.325 208.774 125.696 208.853 126.067C209.011 126.875 209.225 127.671 209.493 128.45C210.058 130.101 210.689 131.553 211.134 132.601L211.677 133.839C211.737 133.994 211.815 134.142 211.909 134.28C211.885 134.119 211.838 133.963 211.77 133.816C211.668 133.515 211.505 133.079 211.306 132.545C210.907 131.479 210.304 130.018 209.743 128.372C209.478 127.603 209.26 126.82 209.089 126.025C209.01 125.659 208.955 125.306 208.904 124.977C208.853 124.648 208.815 124.337 208.797 124.049C208.741 123.488 208.718 123.025 208.704 122.709C208.706 122.546 208.691 122.382 208.658 122.222Z" fill="#A36957"/>
<path d="M204.494 163.394V162.662L212.517 162.309L212.541 165.347L212.044 165.379C209.841 165.509 200.84 165.88 199.365 165.435C197.719 164.943 204.494 163.394 204.494 163.394Z" fill="#455A64"/>
<path d="M212.646 165.161H212.507L212.113 165.189L210.666 165.254C209.437 165.305 207.744 165.347 205.875 165.356C204.006 165.365 202.309 165.356 201.084 165.296L199.633 165.245L199.239 165.222H199.1H199.633L201.084 165.249C202.309 165.249 204.006 165.286 205.875 165.277C207.744 165.268 209.437 165.235 210.661 165.208L212.113 165.171H212.507L212.646 165.161Z" fill="#263238"/>
<path d="M201.891 165.421C201.829 165.181 201.739 164.949 201.622 164.73C201.475 164.527 201.307 164.341 201.121 164.173C201.371 164.263 201.578 164.443 201.701 164.679C201.857 164.893 201.925 165.158 201.891 165.421Z" fill="#263238"/>
<path d="M204.244 164.215C204.244 164.215 204.11 164.095 203.994 163.909C203.878 163.724 203.799 163.566 203.822 163.552C203.846 163.538 203.957 163.677 204.073 163.858C204.189 164.039 204.268 164.201 204.244 164.215Z" fill="#263238"/>
<path d="M204.887 163.872C204.887 163.872 204.743 163.807 204.609 163.687C204.474 163.566 204.372 163.445 204.391 163.427C204.409 163.408 204.535 163.492 204.674 163.612C204.813 163.733 204.906 163.854 204.887 163.872Z" fill="#263238"/>
<path d="M205.296 163.116C205.163 163.166 205.02 163.185 204.878 163.172C204.738 163.19 204.595 163.176 204.461 163.13C204.594 163.08 204.737 163.061 204.878 163.074C205.019 163.061 205.161 163.075 205.296 163.116Z" fill="#263238"/>
<path d="M205.435 162.587C205.298 162.679 205.136 162.726 204.972 162.722C204.814 162.747 204.653 162.726 204.508 162.662C204.661 162.636 204.816 162.623 204.972 162.625C205.125 162.597 205.28 162.585 205.435 162.587Z" fill="#263238"/>
<path d="M203.97 163.52C203.801 163.552 203.628 163.552 203.459 163.52C203.274 163.497 203.091 163.458 202.912 163.404C202.804 163.372 202.7 163.328 202.601 163.274C202.57 163.257 202.543 163.235 202.521 163.208C202.498 163.181 202.482 163.15 202.472 163.116C202.463 163.077 202.466 163.037 202.48 163C202.494 162.963 202.518 162.931 202.55 162.907C202.746 162.808 202.969 162.782 203.182 162.832C203.395 162.882 203.584 163.005 203.714 163.181C203.792 163.284 203.848 163.4 203.881 163.524C203.891 163.569 203.891 163.614 203.881 163.659C203.826 163.502 203.746 163.355 203.645 163.223C203.53 163.089 203.378 162.991 203.209 162.94C203.007 162.874 202.787 162.89 202.597 162.986C202.513 163.047 202.546 163.139 202.639 163.195C202.729 163.247 202.826 163.287 202.926 163.316C203.098 163.377 203.275 163.422 203.455 163.45C203.775 163.506 203.97 163.506 203.97 163.52Z" fill="#263238"/>
<path d="M203.84 163.547C203.776 163.44 203.754 163.313 203.78 163.19C203.794 163.055 203.842 162.926 203.919 162.815C203.962 162.738 204.024 162.675 204.099 162.629C204.173 162.584 204.258 162.558 204.346 162.555C204.398 162.566 204.443 162.597 204.473 162.641C204.502 162.685 204.513 162.739 204.504 162.792C204.491 162.873 204.461 162.95 204.415 163.019C204.349 163.133 204.268 163.237 204.174 163.329C204.096 163.422 203.995 163.494 203.882 163.538C203.882 163.538 203.984 163.445 204.123 163.283C204.206 163.19 204.278 163.087 204.337 162.977C204.411 162.866 204.457 162.671 204.337 162.648C204.216 162.625 204.077 162.764 203.998 162.866C203.929 162.966 203.88 163.08 203.854 163.2C203.837 163.315 203.832 163.431 203.84 163.547Z" fill="#263238"/>
<path d="M212.474 162.977C212.474 162.977 212.247 162.977 211.885 163C211.415 163.055 210.97 163.242 210.601 163.538C210.232 163.834 209.954 164.228 209.798 164.674C209.678 165.017 209.668 165.249 209.65 165.245C209.64 165.191 209.64 165.136 209.65 165.082C209.664 164.936 209.692 164.792 209.733 164.651C209.876 164.182 210.157 163.767 210.539 163.46C210.921 163.154 211.387 162.969 211.876 162.931C212.03 162.913 212.185 162.913 212.34 162.931C212.386 162.94 212.431 162.956 212.474 162.977Z" fill="#263238"/>
<path d="M208.635 164.526C208.252 164.611 207.859 164.648 207.467 164.637C207.076 164.654 206.685 164.622 206.303 164.54C206.303 164.512 206.827 164.54 207.467 164.54C208.107 164.54 208.631 164.498 208.635 164.526Z" fill="#263238"/>
<path d="M210.184 164.507C210.184 164.507 210.142 164.619 210.086 164.739C210.03 164.86 210.007 164.966 209.979 164.962C209.952 164.957 209.938 164.837 209.979 164.697C210.021 164.558 210.184 164.489 210.184 164.507Z" fill="#263238"/>
<path d="M210.781 163.775C210.781 163.775 210.749 163.877 210.67 163.96C210.591 164.044 210.503 164.095 210.484 164.076C210.466 164.058 210.517 163.974 210.6 163.891C210.684 163.807 210.763 163.756 210.781 163.775Z" fill="#263238"/>
<path d="M211.627 163.436C211.627 163.459 211.516 163.459 211.4 163.501C211.284 163.543 211.196 163.608 211.177 163.589C211.159 163.571 211.219 163.459 211.367 163.413C211.516 163.367 211.636 163.408 211.627 163.436Z" fill="#263238"/>
<path d="M212.224 163.274C212.224 163.297 212.192 163.339 212.122 163.366C212.053 163.394 211.997 163.394 211.988 163.366C211.978 163.339 212.02 163.302 212.09 163.274C212.159 163.246 212.215 163.251 212.224 163.274Z" fill="#263238"/>
<path d="M223.785 161.716L223.479 161.048L230.653 157.444L231.914 160.199L231.478 160.436C229.521 161.451 221.461 165.481 219.936 165.681C218.234 165.903 223.785 161.716 223.785 161.716Z" fill="#455A64"/>
<path d="M231.943 159.986C231.943 159.986 231.905 160.014 231.827 160.055L231.474 160.241L230.18 160.899C229.081 161.442 227.555 162.179 225.853 162.954C224.151 163.728 222.607 164.391 221.457 164.86L220.112 165.402L219.746 165.546C219.703 165.567 219.658 165.581 219.611 165.588L219.737 165.528L220.098 165.37L221.434 164.795C222.556 164.331 224.11 163.636 225.812 162.866C227.514 162.096 229.058 161.368 230.152 160.834L231.46 160.208L231.817 160.041L231.943 159.986Z" fill="#263238"/>
<path d="M222.242 164.628C222.085 164.434 221.906 164.26 221.708 164.109C221.496 163.981 221.268 163.879 221.031 163.807C221.292 163.805 221.548 163.883 221.764 164.029C221.98 164.176 222.147 164.385 222.242 164.628Z" fill="#263238"/>
<path d="M223.892 162.569C223.764 162.535 223.644 162.475 223.539 162.393C223.354 162.272 223.219 162.156 223.233 162.138C223.247 162.119 223.41 162.193 223.59 162.309C223.771 162.425 223.906 162.546 223.892 162.569Z" fill="#263238"/>
<path d="M224.342 161.989C224.342 162.012 224.184 161.989 224.008 161.934C223.831 161.878 223.692 161.813 223.702 161.785C223.711 161.757 223.859 161.785 224.035 161.841C224.212 161.896 224.346 161.961 224.342 161.989Z" fill="#263238"/>
<path d="M224.402 161.136C224.18 161.308 223.922 161.429 223.646 161.488C223.646 161.461 223.795 161.363 224.004 161.266C224.212 161.168 224.388 161.108 224.402 161.136Z" fill="#263238"/>
<path d="M224.311 160.593C224.311 160.593 224.181 160.779 223.944 160.909C223.807 161 223.645 161.049 223.48 161.048C223.611 160.958 223.751 160.882 223.898 160.821C224.125 160.7 224.292 160.57 224.311 160.593Z" fill="#263238"/>
<path d="M223.359 162.045C223.217 162.14 223.06 162.211 222.895 162.254C222.717 162.309 222.533 162.348 222.348 162.369C222.235 162.384 222.122 162.384 222.009 162.369C221.975 162.367 221.941 162.357 221.91 162.341C221.879 162.325 221.851 162.303 221.828 162.277C221.808 162.244 221.797 162.206 221.797 162.168C221.797 162.129 221.808 162.091 221.828 162.059C221.966 161.889 222.159 161.773 222.374 161.731C222.588 161.689 222.811 161.725 223.002 161.832C223.115 161.891 223.214 161.973 223.294 162.073C223.35 162.142 223.368 162.189 223.363 162.193C223.252 162.071 223.12 161.969 222.974 161.892C222.812 161.816 222.632 161.789 222.454 161.813C222.244 161.835 222.05 161.94 221.917 162.105C221.866 162.193 221.917 162.267 222.042 162.277C222.145 162.286 222.249 162.286 222.352 162.277C222.534 162.26 222.714 162.229 222.89 162.184C223.169 162.11 223.354 162.031 223.359 162.045Z" fill="#263238"/>
<path d="M223.249 162.124C223.15 162.049 223.08 161.942 223.049 161.822C223.006 161.694 222.996 161.557 223.021 161.423C223.03 161.336 223.06 161.253 223.109 161.18C223.159 161.108 223.226 161.05 223.304 161.011C223.416 160.974 223.685 161.205 223.703 161.289C223.722 161.372 223.569 161.331 223.559 161.405C223.545 161.535 223.514 161.663 223.467 161.785C223.388 161.998 223.295 162.105 223.286 162.096C223.276 162.087 223.341 161.971 223.402 161.767C223.439 161.646 223.462 161.522 223.471 161.396C223.471 161.266 223.471 161.071 223.327 161.103C223.184 161.136 223.137 161.317 223.109 161.442C223.084 161.561 223.084 161.685 223.109 161.804C223.147 161.914 223.193 162.021 223.249 162.124Z" fill="#263238"/>
<path d="M230.896 158.066C230.896 158.066 230.678 158.14 230.367 158.33C229.958 158.569 229.627 158.92 229.411 159.342C229.196 159.763 229.106 160.238 229.152 160.709C229.173 160.904 229.206 161.098 229.249 161.289C229.249 161.289 229.217 161.243 229.18 161.145C229.133 161.005 229.101 160.861 229.082 160.714C229.02 160.228 229.106 159.734 229.329 159.298C229.553 158.861 229.903 158.503 230.335 158.27C230.462 158.198 230.598 158.14 230.738 158.098C230.789 158.08 230.842 158.069 230.896 158.066Z" fill="#263238"/>
<path d="M228.024 161.052C227.711 161.288 227.368 161.481 227.004 161.627C226.655 161.806 226.284 161.937 225.9 162.017C225.9 161.989 226.364 161.808 226.967 161.553C227.57 161.298 228.01 161.025 228.024 161.052Z" fill="#263238"/>
<path d="M229.444 160.412C229.467 160.412 229.444 160.533 229.444 160.663C229.444 160.793 229.444 160.904 229.444 160.913C229.444 160.923 229.355 160.816 229.355 160.663C229.355 160.51 229.42 160.385 229.444 160.412Z" fill="#263238"/>
<path d="M229.661 159.485C229.689 159.485 229.661 159.592 229.633 159.698C229.605 159.805 229.54 159.893 229.517 159.884C229.494 159.875 229.517 159.777 229.545 159.666C229.573 159.555 229.661 159.485 229.661 159.485Z" fill="#263238"/>
<path d="M230.305 158.831C230.305 158.859 230.212 158.901 230.124 158.984C230.036 159.068 229.985 159.165 229.957 159.156C229.93 159.146 229.957 159.021 230.059 158.915C230.161 158.808 230.301 158.803 230.305 158.831Z" fill="#263238"/>
<path d="M230.789 158.437C230.789 158.437 230.789 158.511 230.734 158.562C230.678 158.613 230.627 158.641 230.609 158.622C230.59 158.604 230.609 158.548 230.664 158.497C230.72 158.446 230.771 158.418 230.789 158.437Z" fill="#263238"/>
<path d="M219.816 63.6409L219.742 49.5057L228.423 47.9057C228.423 47.9057 227.496 43.7319 226.294 39.7158C225.367 36.5577 223.373 35.2174 220.957 34.0395V33.9978L220.748 33.9421C218.759 33.0498 216.635 32.4949 214.464 32.3004L206.042 32.3978C206.042 32.3978 199.605 31.5955 196.044 36.182C194.653 37.9489 190.428 50.0436 190.428 50.0436L200.538 54.913L199.578 48.2072C199.578 48.2072 199.768 53.0673 200.389 54.607C200.732 55.4649 201.734 58.1315 201.734 58.1315L201.604 66.173L219.816 63.6409Z" fill="#00B8AD"/>
<path d="M226.082 38.7837C225.97 38.9228 225.53 38.7095 224.76 38.5518C223.681 38.3422 222.567 38.3979 221.514 38.7141C220.187 39.0805 218.731 39.9523 217.029 41.0329C216.107 41.6447 215.147 42.1962 214.154 42.6838C212.994 43.2537 211.734 43.5909 210.444 43.6763C209.164 43.7236 207.887 43.5382 206.674 43.129C205.63 42.7799 204.606 42.3728 203.608 41.9094C202.681 41.492 201.832 41.0978 201.044 40.8103C200.312 40.541 199.56 40.3332 198.794 40.1888C197.711 39.9622 196.59 39.9733 195.511 40.2213C194.741 40.4114 194.296 40.6201 194.18 40.481C194.064 40.3419 194.333 39.8874 195.108 39.3633C196.268 38.6866 197.608 38.3807 198.947 38.4869C199.847 38.5294 200.739 38.6678 201.609 38.8996C202.566 39.1594 203.509 39.469 204.434 39.8271C206.321 40.5366 208.325 41.3529 210.296 41.2416C212.266 41.1302 214.112 40.0729 215.861 39.099C217.609 38.1251 219.436 37.2162 221.147 36.9982C222.489 36.7709 223.869 36.9943 225.071 37.6335C225.952 38.1761 226.184 38.6724 226.082 38.7837Z" fill="#FAFAFA"/>
<path d="M219.858 51.9729C219.747 52.1027 219.441 52.0471 218.93 51.9729C218.261 51.8533 217.583 51.7912 216.904 51.7874C216.49 51.782 216.077 51.8382 215.68 51.9543L215.554 52.0007L215.383 52.0703L215.026 52.2279C214.785 52.3392 214.562 52.4644 214.274 52.5989C213.755 52.8726 213.189 53.1925 212.54 53.5264C211.85 53.8592 211.131 54.1293 210.393 54.3334C208.964 54.7084 207.48 54.8247 206.01 54.6766C204.822 54.5641 203.659 54.2635 202.565 53.7861C200.71 52.9468 199.884 51.959 200.06 51.7039C200.237 51.4488 201.345 51.8245 203.084 52.1676C205.298 52.6085 207.583 52.5483 209.771 51.9914C210.383 51.824 210.983 51.6148 211.566 51.3654C212.15 51.1149 212.749 50.832 213.356 50.5862C213.662 50.4657 213.973 50.3497 214.284 50.2523C214.441 50.2013 214.599 50.1596 214.747 50.1179L214.984 50.0576L215.262 50.0065C215.881 49.9237 216.51 49.9551 217.117 50.0993C217.936 50.2678 218.704 50.6234 219.362 51.1381C219.826 51.5091 219.96 51.8523 219.858 51.9729Z" fill="#FAFAFA"/>
<path d="M226.082 38.7837C225.97 38.9228 225.53 38.7095 224.76 38.5518C223.681 38.3422 222.567 38.3979 221.514 38.7141C220.187 39.0805 218.731 39.9523 217.029 41.0329C216.107 41.6447 215.147 42.1962 214.154 42.6838C212.994 43.2537 211.734 43.5909 210.444 43.6763C209.164 43.7236 207.887 43.5382 206.674 43.129C205.63 42.7799 204.606 42.3728 203.608 41.9094C202.681 41.492 201.832 41.0978 201.044 40.8103C200.312 40.541 199.56 40.3332 198.794 40.1888C197.711 39.9622 196.59 39.9733 195.511 40.2213C194.741 40.4114 194.296 40.6201 194.18 40.481C194.064 40.3419 194.333 39.8874 195.108 39.3633C196.268 38.6866 197.608 38.3807 198.947 38.4869C199.847 38.5294 200.739 38.6678 201.609 38.8996C202.566 39.1594 203.509 39.469 204.434 39.8271C206.321 40.5366 208.325 41.3529 210.296 41.2416C212.266 41.1302 214.112 40.0729 215.861 39.099C217.609 38.1251 219.436 37.2162 221.147 36.9982C222.489 36.7709 223.869 36.9943 225.071 37.6335C225.952 38.1761 226.184 38.6724 226.082 38.7837Z" fill="#FAFAFA"/>
<path d="M219.858 51.9729C219.747 52.1027 219.441 52.0471 218.93 51.9729C218.261 51.8533 217.583 51.7912 216.904 51.7874C216.49 51.782 216.077 51.8382 215.68 51.9543L215.554 52.0007L215.383 52.0703L215.026 52.2279C214.785 52.3392 214.562 52.4644 214.274 52.5989C213.755 52.8726 213.189 53.1925 212.54 53.5264C211.85 53.8592 211.131 54.1293 210.393 54.3334C208.964 54.7084 207.48 54.8247 206.01 54.6766C204.822 54.5641 203.659 54.2635 202.565 53.7861C200.71 52.9468 199.884 51.959 200.06 51.7039C200.237 51.4488 201.345 51.8245 203.084 52.1676C205.298 52.6085 207.583 52.5483 209.771 51.9914C210.383 51.824 210.983 51.6148 211.566 51.3654C212.15 51.1149 212.749 50.832 213.356 50.5862C213.662 50.4657 213.973 50.3497 214.284 50.2523C214.441 50.2013 214.599 50.1596 214.747 50.1179L214.984 50.0576L215.262 50.0065C215.881 49.9237 216.51 49.9551 217.117 50.0993C217.936 50.2678 218.704 50.6234 219.362 51.1381C219.826 51.5091 219.96 51.8523 219.858 51.9729Z" fill="#FAFAFA"/>
<path d="M225.269 78.583C225.2 73.9919 221.309 63.0658 221.309 63.0658L201.641 63.8959C201.641 63.8959 196.623 74.5252 196.799 85.2843C196.976 96.0434 200.046 125.204 200.046 125.204H223.841L223.168 103.371C222.9 96.3123 225.404 87.5056 225.269 78.583Z" fill="#263238"/>
<path d="M222.14 65.5005C222.122 65.5527 222.102 65.6037 222.079 65.6536L221.889 66.1173L221.129 67.7915C220.461 69.257 219.501 71.3485 218.314 73.9316C215.944 79.121 212.665 86.2953 209.433 94.3785C207.833 98.4224 206.418 102.323 205.217 105.898C204.647 107.693 204.076 109.395 203.622 110.999C203.39 111.802 203.158 112.581 202.945 113.318C202.732 114.056 202.551 114.793 202.37 115.479C201.985 116.871 201.711 118.113 201.442 119.217C201.313 119.769 201.192 120.279 201.085 120.752C200.979 121.225 200.9 121.68 200.816 122.055C200.659 122.825 200.533 123.447 200.445 123.85C200.399 124.049 200.366 124.203 200.339 124.314C200.331 124.368 200.317 124.421 200.297 124.471C200.297 124.471 200.802 120.97 202.198 115.433C202.379 114.742 202.565 114.018 202.759 113.263C202.954 112.507 203.195 111.737 203.427 110.944C203.891 109.325 204.438 107.623 205.004 105.842C206.191 102.258 207.601 98.3529 209.206 94.2997C212.452 86.2118 215.745 79.0468 218.156 73.8945L221.041 67.7822C221.384 67.0727 221.653 66.5208 221.838 66.1266C221.931 65.9504 222.001 65.8066 222.052 65.7C222.072 65.6298 222.101 65.5627 222.14 65.5005Z" fill="#455A64"/>
<path d="M217.994 125.167C217.935 125.072 217.885 124.971 217.846 124.866L217.456 123.989C217.122 123.224 216.668 122.106 216.135 120.715C213.373 113.446 211.479 105.876 210.491 98.1627C210.305 96.6834 210.18 95.4822 210.115 94.6521C210.087 94.2579 210.064 93.9379 210.046 93.6968C210.034 93.5842 210.034 93.4708 210.046 93.3582C210.075 93.4674 210.094 93.5793 210.101 93.6921C210.134 93.9333 210.171 94.2487 210.222 94.6197C210.31 95.4451 210.463 96.6416 210.686 98.1164C211.765 105.799 213.652 113.346 216.315 120.632C216.826 122.023 217.243 123.154 217.568 123.929L217.911 124.824C217.953 124.934 217.981 125.05 217.994 125.167Z" fill="#455A64"/>
<path d="M204.889 33.9745C204.944 31.6558 204.954 29.2303 204.954 29.2303C204.954 29.2303 201.995 28.6599 201.475 24.7644C201.104 21.9448 201.564 17.08 201.809 14.8864C201.892 14.1555 202.176 13.4619 202.63 12.883C206.962 11.2506 211.186 12.1688 214.15 15.6655L213.431 34.429C213.343 36.6087 211.404 38.2689 209.072 38.139C206.707 38.0463 204.838 36.1774 204.889 33.9745Z" fill="#B78876"/>
<path d="M202.633 19.1577C202.628 19.287 202.674 19.4132 202.76 19.5094C202.847 19.6055 202.968 19.6641 203.097 19.6724C203.161 19.6815 203.226 19.6772 203.288 19.6598C203.35 19.6423 203.408 19.6121 203.458 19.5711C203.507 19.5301 203.548 19.4791 203.577 19.4215C203.606 19.3639 203.622 19.3009 203.626 19.2365C203.631 19.1071 203.585 18.9809 203.498 18.8848C203.412 18.7886 203.291 18.7301 203.162 18.7217C203.098 18.7126 203.033 18.7169 202.971 18.7344C202.909 18.7518 202.851 18.782 202.801 18.823C202.752 18.864 202.711 18.915 202.682 18.9726C202.653 19.0302 202.636 19.0932 202.633 19.1577Z" fill="#263238"/>
<path d="M201.952 18.6382C202.012 18.7078 202.416 18.4388 202.93 18.4527C203.445 18.4666 203.858 18.7449 203.913 18.68C203.969 18.615 203.881 18.5362 203.714 18.4063C203.486 18.2408 203.212 18.1486 202.93 18.142C202.651 18.1339 202.376 18.2151 202.147 18.3739C201.98 18.5037 201.919 18.6104 201.952 18.6382Z" fill="#263238"/>
<path d="M208.161 19.4684C208.154 19.598 208.2 19.7249 208.287 19.8213C208.373 19.9178 208.495 19.9759 208.624 19.9831C208.688 19.9922 208.753 19.9879 208.815 19.9705C208.878 19.953 208.935 19.9228 208.985 19.8818C209.035 19.8408 209.075 19.7898 209.104 19.7322C209.133 19.6746 209.15 19.6116 209.153 19.5472C209.157 19.4182 209.111 19.2926 209.025 19.1967C208.938 19.1008 208.818 19.0419 208.689 19.0324C208.626 19.0233 208.561 19.0276 208.498 19.0451C208.436 19.0625 208.379 19.0927 208.329 19.1337C208.279 19.1747 208.238 19.2257 208.21 19.2833C208.181 19.3409 208.164 19.4039 208.161 19.4684Z" fill="#263238"/>
<path d="M207.536 18.9675C207.596 19.0324 208 18.7634 208.515 18.7774C209.029 18.7913 209.442 19.0695 209.498 19.0092C209.553 18.9489 209.465 18.8608 209.298 18.731C209.07 18.5655 208.797 18.4733 208.515 18.4666C208.236 18.4608 207.962 18.5418 207.731 18.6985C207.564 18.833 207.508 18.9675 207.536 18.9675Z" fill="#263238"/>
<path d="M204.953 29.2304C206.781 29.306 208.593 28.8725 210.189 27.9782C210.189 27.9782 208.858 30.6123 204.986 30.1486L204.953 29.2304Z" fill="#A36957"/>
<path d="M212.356 20.6277C211.892 21.699 210.77 22.5245 210.923 23.6792C211.025 24.4212 211.502 25.1169 211.386 25.8635C211.271 26.791 210.297 27.4542 210.158 28.3863C209.991 29.5364 211.085 30.4268 211.549 31.4981C212.198 33.0563 211.368 34.8093 211.349 36.4974C211.383 37.7929 211.884 39.0325 212.76 39.9873C213.637 40.942 214.829 41.5474 216.117 41.6914C217.16 41.7749 218.333 41.4595 218.899 40.5645C219.363 39.8271 219.256 38.8903 219.525 38.0695C219.92 36.8452 221.084 35.9501 221.329 34.6887C221.793 32.37 219.011 30.4871 219.182 28.1498C219.261 27.1527 219.878 26.2948 220.138 25.3163C220.307 24.6776 220.321 24.0076 220.179 23.3623C220.037 22.7169 219.743 22.1149 219.321 21.6062C218.64 20.79 217.643 20.2521 217.058 19.3617C216.395 18.3507 216.372 17.0429 216.131 15.8882C215.826 14.4377 215.158 13.0884 214.19 11.9666C213.221 10.8449 211.984 9.98747 210.593 9.47482C209.203 8.96218 207.705 8.81108 206.24 9.0357C204.775 9.26032 203.391 9.85331 202.218 10.759C202.218 10.759 201.555 13.7688 204.643 14.2697C207.732 14.7705 209.165 14.1908 209.513 15.429C209.433 15.9403 209.476 16.4632 209.637 16.9548C209.798 17.4465 210.074 17.893 210.44 18.2579C211.693 19.677 212.894 19.3895 212.356 20.6277Z" fill="#263238"/>
<path d="M206.083 24.3007C206.066 24.1395 206.103 23.9773 206.188 23.8393C206.273 23.7014 206.402 23.5955 206.553 23.5382C206.705 23.481 206.871 23.4756 207.026 23.5229C207.181 23.5703 207.316 23.6676 207.41 23.7998C207.458 23.8655 207.491 23.9417 207.505 24.0223C207.518 24.1028 207.513 24.1855 207.489 24.2636C207.432 24.3783 207.342 24.4724 207.229 24.5325C207.123 24.6067 207.003 24.6585 206.876 24.6848C206.749 24.7111 206.618 24.7114 206.491 24.6856C206.366 24.6557 206.256 24.5835 206.178 24.4812C206.1 24.3789 206.06 24.2529 206.065 24.1244" fill="#A36957"/>
<path d="M208.328 21.5691C208.282 21.6155 208.18 21.5691 208.101 21.5135C208.022 21.4578 207.999 21.3326 208.045 21.2862C208.092 21.2399 208.194 21.2631 208.272 21.3419C208.351 21.4207 208.361 21.5228 208.328 21.5691Z" fill="#A36957"/>
<path d="M209.067 21.0915C209.123 21.1286 209.127 21.226 209.067 21.3141C209.007 21.4022 208.928 21.4486 208.867 21.4115C208.807 21.3744 208.807 21.2816 208.867 21.1935C208.928 21.1054 209.007 21.059 209.067 21.0915Z" fill="#A36957"/>
<path d="M209.892 21.4857C209.836 21.5228 209.744 21.4857 209.688 21.4022C209.632 21.3187 209.628 21.2213 209.688 21.1842C209.748 21.1471 209.832 21.1842 209.892 21.2677C209.952 21.3512 209.943 21.4486 209.892 21.4857Z" fill="#A36957"/>
<path d="M209.076 22.1303C209.049 22.1529 209.015 22.1652 208.98 22.165C208.945 22.1649 208.911 22.1523 208.884 22.1295C208.857 22.1067 208.84 22.0751 208.834 22.0405C208.828 22.0058 208.835 21.9703 208.853 21.9402C208.88 21.9176 208.914 21.9052 208.949 21.9054C208.984 21.9055 209.018 21.9182 209.045 21.941C209.072 21.9638 209.09 21.9953 209.095 22.03C209.101 22.0647 209.094 22.1002 209.076 22.1303Z" fill="#A36957"/>
<path d="M202.299 21.6387C202.262 21.6944 202.128 21.6665 202.054 21.5367C201.979 21.4068 202.026 21.2816 202.091 21.277C202.156 21.2723 202.216 21.3419 202.262 21.4161C202.287 21.4468 202.304 21.4834 202.31 21.5225C202.317 21.5615 202.313 21.6016 202.299 21.6387Z" fill="#A36957"/>
<path d="M202.894 21.444C202.834 21.444 202.81 21.3234 202.843 21.2167C202.875 21.1101 202.959 21.0451 203.024 21.0683C203.089 21.0915 203.107 21.1935 203.075 21.2956C203.042 21.3976 202.959 21.4671 202.894 21.444Z" fill="#A36957"/>
<path d="M203.433 21.6758C203.377 21.6434 203.382 21.5181 203.433 21.3929C203.484 21.2677 203.604 21.1935 203.66 21.226C203.715 21.2584 203.711 21.3836 203.66 21.5089C203.609 21.6341 203.493 21.7083 203.433 21.6758Z" fill="#A36957"/>
<path d="M202.621 22.5198C202.57 22.5662 202.454 22.5198 202.398 22.3807C202.343 22.2416 202.398 22.1303 202.449 22.1256C202.5 22.121 202.579 22.1952 202.621 22.288C202.663 22.3807 202.672 22.4781 202.621 22.5198Z" fill="#A36957"/>
<path d="M208.885 17.3722C208.829 17.4974 208.38 17.4232 207.846 17.4278C207.313 17.4325 206.863 17.5067 206.807 17.3815C206.752 17.2562 207.197 16.9455 207.846 16.9455C208.496 16.9455 208.941 17.2562 208.885 17.3722Z" fill="#263238"/>
<path d="M203.159 17.5762C203.136 17.7061 202.797 17.7524 202.403 17.7339C202.009 17.7153 201.679 17.6226 201.67 17.4881C201.661 17.3536 202.004 17.2238 202.431 17.2516C202.857 17.2794 203.182 17.4556 203.159 17.5762Z" fill="#263238"/>
<path d="M198.057 72.6331C197.974 71.6082 202.231 71.0424 202.579 70.9682C202.927 70.894 202.838 70.3746 202.518 70.4581C202.055 70.5833 197.232 71.7427 197.139 70.7363C197.083 70.1798 198.094 70.1752 198.094 70.1752C198.094 70.1752 202.695 69.4239 202.63 68.9509C202.565 68.4779 199.847 68.8257 198.948 69.0065C198.048 69.1874 197.603 68.8349 197.853 68.3712C198.02 68.0558 200.789 67.4437 201.688 67.2675C202.588 67.0912 205.083 66.7341 203.692 65.9133C202.301 65.0924 201.554 63.9794 201.559 63.5296C201.571 63.4256 201.615 63.328 201.685 63.2505C201.756 63.1729 201.848 63.1194 201.951 63.0974C202.053 63.0754 202.16 63.086 202.256 63.1278C202.352 63.1695 202.432 63.2403 202.486 63.3302C202.84 63.7373 203.249 64.0932 203.701 64.3875C204.067 64.6438 204.473 64.8366 204.902 64.958C205.366 65.0878 205.779 65.1806 206.126 65.2501C208.529 64.4942 219.923 59.3141 219.923 59.3141L219.946 49.4918L227.737 48.0541L227.895 57.6167C227.927 59.5952 227.334 61.5332 226.2 63.1545C225.065 64.7759 223.448 65.9978 221.579 66.646L207.105 71.6731V71.6499C205.559 72.3884 203.974 73.0417 202.356 73.607C200.084 74.298 200.037 74.0939 199.982 73.8157C199.889 73.069 203.933 72.4522 202.987 72.0812C202.041 71.7102 198.127 73.4215 198.057 72.6331Z" fill="#B78876"/>
<path d="M205.6 19.0723L205.57 23.023C205.57 23.023 204.575 23.2795 204 22.557C204.311 21.1831 204.864 19.9791 205.6 19.0723Z" fill="#A36957"/>
<path d="M149.493 62.6319C149.639 61.0138 148.256 59.9937 146.237 59.9937C145.202 59.9959 144.183 60.2644 143.275 60.7745C142.367 61.2846 141.599 62.0201 141.041 62.9133L135.424 59.6683C137.829 56.0627 141.866 53.6795 147.689 53.6795C153.779 53.6795 157.901 56.3177 157.481 61.2952C156.939 67.6093 150.369 68.5415 150.051 72.2702H143.008C143.463 67.0113 149.235 65.6746 149.493 62.6319ZM141.513 78.7602C141.639 77.5621 142.211 76.4598 143.11 75.6819C144.009 74.9041 145.166 74.5105 146.341 74.583C148.986 74.583 150.695 76.3418 150.489 78.7602C150.349 79.9662 149.77 81.0738 148.867 81.8613C147.964 82.6489 146.804 83.0583 145.619 83.0077C142.965 83.0077 141.307 81.1082 141.513 78.7602Z" fill="#00B8AD"/>
</svg>
