<svg width="333" height="248" viewBox="0 0 333 248" fill="none" xmlns="http://www.w3.org/2000/svg">
<path d="M332.332 217.611H0V217.777H332.332V217.611Z" fill="#EBEBEB"/>
<path d="M299.032 228.305H277.018V228.471H299.032V228.305Z" fill="#EBEBEB"/>
<path d="M220.15 230.113H214.374V230.279H220.15V230.113Z" fill="#EBEBEB"/>
<path d="M276.354 222.137H263.599V222.303H276.354V222.137Z" fill="#EBEBEB"/>
<path d="M63.5751 223.254H34.8683V223.42H63.5751V223.254Z" fill="#EBEBEB"/>
<path d="M73.7045 223.254H69.4972V223.42H73.7045V223.254Z" fill="#EBEBEB"/>
<path d="M149.649 226.059H87.3833V226.225H149.649V226.059Z" fill="#EBEBEB"/>
<path d="M166.099 217.618C166.286 216.115 166.199 213.922 164.338 213.304C161.42 212.347 159.685 210.087 159.785 207.528C159.885 204.969 156.814 202.49 154.514 204.869C152.215 207.249 152.52 203.028 149.45 201.998C146.379 200.968 143.773 203.467 144.618 205.753C145.462 208.04 142.431 209.455 138.802 207.515C135.173 205.574 131.185 209.11 131.949 211.868C132.713 214.627 132.089 214.939 129.796 214.022C127.848 213.237 124.618 214.999 124.545 217.604L166.099 217.618Z" fill="#E6E6E6"/>
<path d="M49.6504 52.6879H109.929C117.652 52.6879 119.513 41.8804 112.222 39.3414L111.936 39.2484C120.005 32.522 102.305 18.3513 83.0763 37.9722C84.5784 31.4319 67.4833 33.7981 62.259 42.7245C60.398 36.8622 44.1004 47.0449 49.6504 52.6879Z" fill="#F0F0F0"/>
<path d="M196.548 35.9915H232.692C232.692 35.9915 241.166 32.8012 240.07 24.3466C238.973 15.8921 226.178 22.9376 226.178 22.9376C226.178 22.9376 230.053 11.1398 217.664 14.4897C205.275 17.8396 204.052 29.531 204.052 29.531C204.052 29.531 187.787 26.6863 196.548 35.9915Z" fill="#F0F0F0"/>
<path d="M254.24 63.2826H278.102C278.102 63.2826 283.698 61.1757 282.974 55.5925C282.249 50.0093 273.801 54.662 273.801 54.662C273.801 54.662 276.36 46.8787 268.178 49.0854C265.875 49.6786 263.798 50.9365 262.204 52.7023C260.611 54.4681 259.573 56.6637 259.219 59.0155C259.219 59.0155 248.458 57.1611 254.24 63.2826Z" fill="#F0F0F0"/>
<path d="M150.28 142.304C153.085 153.71 124.731 148.745 117.798 143.634C110.866 138.523 105.495 145.415 94.5351 132.049C83.5748 118.682 106.546 123.116 105.775 117.034C105.004 110.952 130.367 121.401 139.227 121.5C167.249 121.766 147.476 130.899 150.28 142.304Z" fill="#E6E6E6"/>
<path d="M62.1593 127.23C59.8197 142.304 88.4534 139.048 95.2729 132.933C102.092 126.818 107.901 136.828 118.39 120.098C128.878 103.368 105.761 106.559 106.246 98.4366C106.732 90.3145 81.4279 101.355 72.4018 100.431C43.9143 97.4529 64.4724 112.162 62.1593 127.23Z" fill="#E6E6E6"/>
<path d="M111.391 130.42L111.956 151.909L112.787 175.019L123.754 217.704H105.668L103.681 187.395L100.736 173.962L101.627 151.284L100.358 122.91L98.6161 106.014H107.616L111.391 130.42Z" fill="#F0F0F0"/>
<path d="M106.034 134.103L113.159 120.803L118.762 107.975L115.133 122.524L108.433 138.057L106.034 134.103Z" fill="#F0F0F0"/>
<path d="M112.195 128.945C118.177 142.776 139.2 127.615 141.44 119.46C143.68 111.305 153.404 117.313 153.165 98.5231C152.926 79.733 136.15 92.4946 132.354 85.3694C128.559 78.2442 114.169 98.5895 106.519 101.694C82.4182 111.491 106.233 115.1 112.195 128.945Z" fill="#E6E6E6"/>
<path d="M117.287 86.9513C128.466 95.9708 105.163 109.995 96.2633 109.689C87.3634 109.384 89.3308 119.526 71.006 114.023C52.6813 108.52 71.9166 97.5593 66.4398 92.2686C60.963 86.9779 86.712 80.1584 92.8203 74.3892C112.129 56.1707 106.1 77.9318 117.287 86.9513Z" fill="#E6E6E6"/>
<path d="M103.242 157.638L89.1313 138.622L80.8097 123.72L79.2943 127.09L100.736 173.962L103.242 157.638Z" fill="#F0F0F0"/>
<path d="M242.968 86.6987C236.713 92.1756 210.658 96.8349 216.069 102.917C221.479 108.998 201.938 118.642 220.276 126.18C238.614 133.717 236.82 122.856 245.759 124.073C254.699 125.289 278.474 112.773 267.354 102.239C256.234 91.7037 262.761 69.4241 242.968 86.6987Z" fill="#E6E6E6"/>
<path d="M186.638 78.0514C195.657 81.6074 222.875 78.0049 221.233 85.9144C219.592 93.8239 243.526 97.3799 230.539 110.912C217.551 124.445 213.065 112.86 205.281 116.894C197.498 120.929 168.06 115.884 172.494 101.607C176.927 87.3301 158.19 66.8319 186.638 78.0514Z" fill="#E6E6E6"/>
<path d="M225.195 81.614L236.58 82.3717L239.305 104.013L245.965 140.477L247.142 163.527L250.777 181.666L262.09 217.704H239.166L234.44 161.061L233.091 140.417L227.541 112.76L225.195 81.614Z" fill="#F0F0F0"/>
<path d="M233.516 122.863L220.502 102.265L211.682 83.1959L222.509 100.211L235.391 117.951L233.516 122.863Z" fill="#F0F0F0"/>
<path d="M251.994 72.1027C258.042 74.6949 276.181 71.89 275.131 77.759C274.081 83.628 290.079 86.167 281.485 96.2765C272.891 106.386 269.833 97.8119 264.682 100.863C259.531 103.914 239.824 100.298 242.702 89.6897C245.58 79.0817 232.905 63.9074 251.994 72.1027Z" fill="#E6E6E6"/>
<path d="M230.758 54.8946C221.014 57.7859 187.355 50.1223 191.662 59.3744C195.969 68.6265 168.399 69.5637 187.993 86.7253C207.588 103.887 209.502 91.2251 220.024 96.888C230.545 102.551 264.33 100.59 254.739 83.6745C245.148 66.7588 261.518 45.7887 230.758 54.8946Z" fill="#E6E6E6"/>
<path d="M243.985 130.387L257.989 114.402L262.941 101.7L254.686 111.996L240.296 125.11L243.985 130.387Z" fill="#F0F0F0"/>
<path d="M238.548 218.169C238.707 216.268 238.448 213.809 236.228 213.078C232.473 211.835 230.246 208.93 230.372 205.64C230.499 202.35 226.544 199.146 223.573 202.23C220.602 205.315 221.007 199.858 217.053 198.535C213.098 197.212 209.741 200.423 210.825 203.36C211.908 206.298 208.006 208.139 203.334 205.64C198.661 203.141 193.523 207.687 194.514 211.243C195.504 214.799 194.693 215.198 191.735 214.015C189.343 213.051 185.434 215.065 185.002 218.169H238.548Z" fill="#EBEBEB"/>
<path d="M69.5969 217.617H137.865C138.822 214.414 136.342 210.572 133.637 210.034C130.314 209.369 126.991 203.52 126.818 199.798C126.645 196.076 120.676 184.624 111.371 191.696C102.066 198.768 104.891 192.752 98.1642 190.758C91.4378 188.764 87.1839 194.487 90.135 198.774C90.135 198.774 83.3754 197.079 80.5905 203.394C77.8055 209.708 80.5905 213.629 80.5905 213.629C80.5905 213.629 72.0429 213.357 69.5969 217.617Z" fill="#EBEBEB"/>
<path d="M166.166 247.627C237.34 247.627 295.038 244.258 295.038 240.103C295.038 235.948 237.34 232.579 166.166 232.579C94.9921 232.579 37.2943 235.948 37.2943 240.103C37.2943 244.258 94.9921 247.627 166.166 247.627Z" fill="#F5F5F5"/>
<path d="M181.832 217.784C181.832 217.784 187.814 212.466 186.039 211.602C184.265 210.738 182.051 215.59 181.832 214.866C181.613 214.141 183.008 207.415 179.672 207.88C176.335 208.345 179.672 214.866 179.672 214.866C179.672 214.866 177.199 212.207 176.349 212.612C175.498 213.018 179.007 217.784 179.007 217.784H181.832Z" fill="#40CAC2"/>
<path d="M96.5689 218.894C96.5689 218.894 95.2396 214.374 97.9514 213.47C100.663 212.566 102.298 210.459 102.212 208.066C102.126 205.673 104.99 203.347 107.15 205.587C109.311 207.827 109.018 203.866 111.889 202.928C114.761 201.991 117.207 204.298 116.416 206.438C115.625 208.578 118.463 209.907 121.859 208.093C125.256 206.278 128.991 209.582 128.273 212.167C127.556 214.753 128.14 215.039 130.267 214.161C132.394 213.284 136.249 215.743 134.92 218.907C133.591 222.071 96.5689 218.894 96.5689 218.894Z" fill="#40CAC2"/>
<path d="M218.927 220.303C217.205 219.14 218.754 217.159 220.469 216.926C222.184 216.694 223.912 214.646 223.992 213.344C224.071 212.041 227.169 208.026 231.968 210.506C236.766 212.985 235.291 210.871 238.794 210.173C242.296 209.475 244.463 211.503 242.934 212.978C242.934 212.978 246.431 212.387 247.873 214.6C249.315 216.813 247.873 218.189 247.873 218.189C247.873 218.189 254.44 218.056 253.855 220.808C253.27 223.56 218.927 220.303 218.927 220.303Z" fill="#40CAC2"/>
<path d="M65.9213 216.86C65.9213 216.86 71.2054 206.551 69.876 205.56C68.5467 204.57 65.9279 214.201 65.9213 213.423C65.9146 212.646 66.0675 199.565 63.6282 200.084C61.1889 200.602 63.6282 212.679 63.6282 212.679C63.6282 212.679 60.3448 206.504 59.0553 206.976C57.7659 207.448 62.8505 214.779 62.8505 214.779C62.8505 214.779 59.8197 212.938 59.0553 213.084C58.2909 213.231 62.8505 216.88 62.8505 216.88L65.9213 216.86Z" fill="#40CAC2"/>
<path d="M270.784 218.116C270.784 218.116 265.5 207.807 266.829 206.817C268.158 205.826 270.784 215.457 270.784 214.68C270.784 213.902 270.638 200.821 273.077 201.34C275.516 201.858 273.077 213.935 273.077 213.935C273.077 213.935 276.367 207.767 277.65 208.232C278.933 208.698 273.841 216.016 273.841 216.016C273.841 216.016 276.879 214.174 277.637 214.321C278.394 214.467 273.841 218.116 273.841 218.116H270.784Z" fill="#40CAC2"/>
<path d="M287.434 228.697L38.4707 228.697V217.318C38.4707 216.985 38.6031 216.666 38.8387 216.43C39.0742 216.194 39.3938 216.062 39.7269 216.062L286.178 216.062C286.511 216.062 286.83 216.194 287.066 216.43C287.301 216.666 287.434 216.985 287.434 217.318V228.697Z" fill="#263238"/>
<path opacity="0.7" d="M287.434 228.697L38.4707 228.697V217.318C38.4707 216.985 38.6031 216.666 38.8387 216.43C39.0742 216.194 39.3938 216.062 39.7269 216.062L286.178 216.062C286.511 216.062 286.83 216.194 287.066 216.43C287.301 216.666 287.434 216.985 287.434 217.318V228.697Z" fill="white"/>
<path opacity="0.2" d="M39.6937 227.129H55.9979V218.568H39.6937V227.129Z" fill="white"/>
<path opacity="0.2" d="M56.8752 226.311H73.1794V217.75H56.8752V226.311Z" fill="white"/>
<path opacity="0.2" d="M73.8707 226.318H84.4854V220.874H73.8707V226.318Z" fill="white"/>
<path opacity="0.2" d="M272.811 227.016H283.426V221.572H272.811V227.016Z" fill="white"/>
<path opacity="0.2" d="M85.3362 225.6H96.4958V218.149H85.3362V225.6Z" fill="white"/>
<path opacity="0.2" d="M97.3199 224.596H104.91V217.146H97.3199V224.596Z" fill="white"/>
<path opacity="0.2" d="M263.991 226.019H271.581V218.568H263.991V226.019Z" fill="white"/>
<path opacity="0.2" d="M129.304 226.019H136.894V218.568H129.304V226.019Z" fill="white"/>
<path opacity="0.2" d="M121.334 222.29H128.925V217.139H121.334V222.29Z" fill="white"/>
<path opacity="0.2" d="M105.682 226.577H118.184V219.126H105.682V226.577Z" fill="white"/>
<path opacity="0.2" d="M137.758 225.6H150.26V218.149H137.758V225.6Z" fill="white"/>
<path opacity="0.2" d="M74.6084 220.15H82.6575V217.75H74.6084V220.15Z" fill="white"/>
<path opacity="0.2" d="M275.377 220.316H283.426V217.916H275.377V220.316Z" fill="white"/>
<path opacity="0.2" d="M119.653 225.793H127.702V223.393H119.653V225.793Z" fill="white"/>
<path opacity="0.2" d="M151.357 227.129H167.661V218.568H151.357V227.129Z" fill="white"/>
<path opacity="0.2" d="M168.539 226.311H184.843V217.75H168.539V226.311Z" fill="white"/>
<path opacity="0.2" d="M185.534 226.318H196.149V220.874H185.534V226.318Z" fill="white"/>
<path opacity="0.2" d="M197 225.6H208.159V218.149H197V225.6Z" fill="white"/>
<path opacity="0.2" d="M208.984 224.596H216.574V217.146H208.984V224.596Z" fill="white"/>
<path opacity="0.2" d="M240.967 226.019H248.558V218.568H240.967V226.019Z" fill="white"/>
<path opacity="0.2" d="M232.998 222.29H240.588V217.139H232.998V222.29Z" fill="white"/>
<path opacity="0.2" d="M217.345 226.577H229.847V219.126H217.345V226.577Z" fill="white"/>
<path opacity="0.2" d="M249.422 225.6H261.924V218.149H249.422V225.6Z" fill="white"/>
<path opacity="0.2" d="M186.272 220.15H194.321V217.75H186.272V220.15Z" fill="white"/>
<path opacity="0.2" d="M231.316 225.793H239.365V223.393H231.316V225.793Z" fill="white"/>
<path d="M74.3027 22.8378C73.8275 22.7274 73.3628 22.5762 72.9136 22.3858C72.0761 22.0602 71.006 21.5085 69.8827 20.9701C68.9512 20.5098 67.9493 20.2088 66.9183 20.0795C66.1274 19.9931 65.589 20.0795 65.5159 19.8734C65.4428 19.6674 65.908 19.2819 66.8452 19.1024C68.0832 18.9345 69.3428 19.1503 70.4543 19.7205C71.4947 20.2652 72.4434 20.9694 73.2659 21.8076C73.9172 22.4257 74.3027 22.8378 74.3027 22.8378Z" fill="#40CAC2"/>
<path d="M79.1813 18.9097L78.1777 19.3018C77.5795 19.5478 76.8483 19.8934 75.9843 20.259C74.3027 21.0034 72.867 21.7744 72.661 21.4354C72.5546 21.2825 72.7739 20.9037 73.2592 20.4384C73.9035 19.8291 74.6506 19.3385 75.4658 18.9895C76.3024 18.6285 77.2209 18.4999 78.1245 18.6172C78.3983 18.6547 78.6677 18.7192 78.9287 18.81L79.1813 18.9097Z" fill="#40CAC2"/>
<path d="M65.25 25.769L64.9775 25.6029C64.8046 25.4899 64.5454 25.3436 64.233 25.1775C63.4451 24.7518 62.6223 24.3938 61.7738 24.1074C59.8197 23.4028 58.0716 23.5623 58.0184 23.2632C58.0184 23.1303 58.4172 22.9043 59.1749 22.798C60.1663 22.686 61.17 22.7973 62.1128 23.1237C63.0554 23.4554 63.8974 24.0229 64.5587 24.772C64.7586 24.9937 64.9366 25.2341 65.0905 25.4899L65.25 25.769Z" fill="#40CAC2"/>
<path d="M67.1709 21.7279L66.4663 22.1333L64.9044 23.004C63.7279 23.6687 62.8173 24.4065 62.5913 24.2071C62.4916 24.1074 62.5913 23.795 62.8904 23.3895C63.2968 22.8451 63.8131 22.3922 64.4059 22.0602C65.0023 21.7414 65.6706 21.5812 66.3467 21.5949C66.6258 21.6056 66.9026 21.6503 67.1709 21.7279Z" fill="#40CAC2"/>
<path d="M63.6282 19.4281C63.6282 19.4281 62.9635 19.1955 61.9532 18.7635C60.9429 18.3314 59.5804 17.7332 58.0849 17.2414C56.8257 16.8156 55.4976 16.6307 54.17 16.6964C53.1464 16.7562 52.4951 16.9556 52.402 16.7695C52.309 16.5834 52.8473 16.1048 53.9906 15.7393C55.479 15.3686 57.0435 15.4426 58.4903 15.9519C59.8915 16.4498 61.1827 17.2151 62.2922 18.2052C62.7594 18.5882 63.2054 18.9965 63.6282 19.4281Z" fill="#40CAC2"/>
<path d="M68.1213 13.7187L67.7491 13.825C67.5032 13.8848 67.1642 13.9912 66.7588 14.1175C65.7404 14.4503 64.7418 14.8409 63.7678 15.2873C61.4947 16.3042 60.0324 17.813 59.72 17.5737C59.5738 17.4607 59.7599 16.909 60.3381 16.1912C61.1149 15.2667 62.0893 14.5285 63.1895 14.031C64.29 13.5375 65.4965 13.3273 66.699 13.4196C67.0583 13.4458 67.4144 13.5059 67.7624 13.599L68.1213 13.7187Z" fill="#40CAC2"/>
<path d="M269.116 43.901L266.55 68.4936H253.735L251.176 43.901H269.116Z" fill="#263238"/>
<path opacity="0.3" d="M269.116 43.901L266.55 68.4936H253.735L251.176 43.901H269.116Z" fill="white"/>
<path d="M262.529 63.2028H257.757V240.568H262.529V63.2028Z" fill="#263238"/>
<path opacity="0.3" d="M262.529 63.2028H257.757V240.568H262.529V63.2028Z" fill="white"/>
<path d="M265.201 66.9914H255.085L252.838 45.3965H267.447L265.201 66.9914Z" fill="#40CAC2"/>
<path opacity="0.4" d="M265.201 66.9914H255.085L252.838 45.3965H267.447L265.201 66.9914Z" fill="white"/>
<path d="M258.813 67.3304H258.122L257.371 44.6454H258.062L258.813 67.3304Z" fill="#263238"/>
<path opacity="0.3" d="M258.813 67.3304H258.122L257.371 44.6454H258.062L258.813 67.3304Z" fill="white"/>
<path opacity="0.2" d="M269.116 43.901L266.55 68.4936H258.494L257.531 43.901H269.116Z" fill="white"/>
<path d="M260.143 35.9915C260.143 35.9915 252.539 43.4956 246.716 43.4956L248.524 44.6787H271.788L273.595 43.4956C267.746 43.4956 260.143 35.9915 260.143 35.9915Z" fill="#263238"/>
<path opacity="0.4" d="M273.569 43.4956L271.761 44.6787H248.498L246.69 43.4956C252.519 43.4956 260.116 35.9915 260.116 35.9915C260.116 35.9915 267.74 43.4956 273.569 43.4956Z" fill="white"/>
<path opacity="0.2" d="M273.569 43.4956L271.761 44.6787H256.666C256.214 43.9409 255.889 43.3959 255.889 43.3959C259.943 41.5215 260.143 35.9915 260.143 35.9915C260.143 35.9915 267.74 43.4956 273.569 43.4956Z" fill="white"/>
<path d="M255.842 237.285H264.443C264.659 237.285 264.872 237.327 265.071 237.41C265.27 237.492 265.451 237.613 265.604 237.766C265.756 237.918 265.877 238.099 265.96 238.298C266.042 238.498 266.085 238.711 266.085 238.927V240.562H254.201V238.927C254.201 238.711 254.243 238.498 254.326 238.298C254.408 238.099 254.529 237.918 254.681 237.766C254.834 237.613 255.015 237.492 255.214 237.41C255.413 237.327 255.627 237.285 255.842 237.285Z" fill="#263238"/>
<path opacity="0.5" d="M255.842 237.285H264.443C264.659 237.285 264.872 237.327 265.071 237.41C265.27 237.492 265.451 237.613 265.604 237.766C265.756 237.918 265.877 238.099 265.96 238.298C266.042 238.498 266.085 238.711 266.085 238.927V240.562H254.201V238.927C254.201 238.711 254.243 238.498 254.326 238.298C254.408 238.099 254.529 237.918 254.681 237.766C254.834 237.613 255.015 237.492 255.214 237.41C255.413 237.327 255.627 237.285 255.842 237.285Z" fill="white"/>
<path d="M89.0782 200.05L81.3947 240.575H86.2799L93.9634 200.05H89.0782Z" fill="#263238"/>
<path d="M196.421 200.05L188.738 240.575H193.623L201.307 200.05H196.421Z" fill="#263238"/>
<path opacity="0.3" d="M89.0782 200.05L81.3947 240.575H86.2799L93.9634 200.05H89.0782Z" fill="white"/>
<path opacity="0.3" d="M196.421 200.05L188.738 240.575H193.623L201.307 200.05H196.421Z" fill="white"/>
<path d="M238.129 219.06H85.7084V224.005H238.129V219.06Z" fill="#263238"/>
<path opacity="0.5" d="M238.129 219.06H85.7084V224.005H238.129V219.06Z" fill="white"/>
<path d="M123.627 200.05L131.311 240.575H136.196L128.513 200.05H123.627Z" fill="#263238"/>
<path d="M230.964 200.05L238.647 240.575H243.533L235.849 200.05H230.964Z" fill="#263238"/>
<path opacity="0.3" d="M123.627 200.05L131.311 240.575H136.196L128.513 200.05H123.627Z" fill="white"/>
<path opacity="0.3" d="M230.964 200.05L238.647 240.575H243.533L235.849 200.05H230.964Z" fill="white"/>
<path d="M194.368 199.798H189.509L181.373 154.581H186.232L194.368 199.798Z" fill="#263238"/>
<path opacity="0.3" d="M194.368 199.798H189.509L181.373 154.581H186.232L194.368 199.798Z" fill="white"/>
<path d="M97.8783 199.798H93.0196L84.8842 154.581H89.7428L97.8783 199.798Z" fill="#263238"/>
<path d="M146.12 199.798H141.261L133.125 154.581H137.991L146.12 199.798Z" fill="#263238"/>
<path opacity="0.3" d="M97.8783 199.798H93.0196L84.8842 154.581H89.7428L97.8783 199.798Z" fill="white"/>
<path opacity="0.3" d="M146.12 199.798H141.261L133.125 154.581H137.991L146.12 199.798Z" fill="white"/>
<path d="M202.762 157.665H75.1468L73.6248 149.204H201.24L202.762 157.665Z" fill="#263238"/>
<path d="M205.514 172.979H77.8985L76.3765 164.511H203.992L205.514 172.979Z" fill="#263238"/>
<path d="M208.266 188.286H80.6568L79.1348 179.825H206.744L208.266 188.286Z" fill="#263238"/>
<path d="M244.556 198.469H81.9198V204.324H244.556V198.469Z" fill="#263238"/>
<path opacity="0.5" d="M202.762 157.665H75.1468L73.6248 149.204H201.24L202.762 157.665Z" fill="white"/>
<path opacity="0.5" d="M205.514 172.979H77.8985L76.3765 164.511H203.992L205.514 172.979Z" fill="white"/>
<path opacity="0.5" d="M208.266 188.286H80.6568L79.1348 179.825H206.744L208.266 188.286Z" fill="white"/>
<path opacity="0.5" d="M244.556 198.469H81.9198V204.324H244.556V198.469Z" fill="white"/>
<path opacity="0.2" d="M244.556 198.469H121.853V204.324H244.556V198.469Z" fill="white"/>
<path d="M199.725 198.389L201.433 174.241H217.504L220.748 198.183L199.725 198.389Z" fill="#263238"/>
<path opacity="0.3" d="M205.64 174.241V197.385L202.875 194.095L199.725 198.389L201.433 174.241H205.64Z" fill="black"/>
<path d="M213.357 180.822H213.158C209.509 180.616 208.784 175.544 208.757 175.325L209.422 175.238C209.422 175.285 210.087 179.984 213.204 180.164C213.465 180.199 213.731 180.17 213.978 180.078C214.225 179.987 214.445 179.836 214.62 179.639C215.65 178.389 214.906 175.398 214.899 175.365L215.564 175.199C215.597 175.338 216.401 178.522 215.152 180.057C214.933 180.316 214.656 180.519 214.345 180.652C214.033 180.785 213.695 180.843 213.357 180.822Z" fill="white"/>
<path d="M209.548 175.278C209.548 175.336 209.537 175.394 209.514 175.448C209.492 175.501 209.459 175.55 209.418 175.591C209.376 175.632 209.327 175.664 209.273 175.686C209.219 175.707 209.161 175.718 209.103 175.717C209.045 175.718 208.988 175.707 208.934 175.685C208.881 175.664 208.832 175.631 208.791 175.591C208.75 175.55 208.718 175.501 208.696 175.447C208.674 175.394 208.664 175.336 208.664 175.278C208.664 175.22 208.674 175.162 208.696 175.108C208.718 175.054 208.75 175.005 208.791 174.964C208.831 174.922 208.88 174.889 208.934 174.867C208.987 174.845 209.045 174.833 209.103 174.833C209.162 174.833 209.22 174.845 209.274 174.867C209.328 174.889 209.377 174.922 209.418 174.963C209.459 175.005 209.492 175.054 209.515 175.108C209.537 175.162 209.548 175.22 209.548 175.278Z" fill="white"/>
<path d="M215.238 175.724C215.484 175.724 215.683 175.524 215.683 175.278C215.683 175.032 215.484 174.833 215.238 174.833C214.992 174.833 214.793 175.032 214.793 175.278C214.793 175.524 214.992 175.724 215.238 175.724Z" fill="white"/>
<path d="M215.431 190.918H228.445V187.847H215.431V190.918Z" fill="#40CAC2"/>
<path opacity="0.7" d="M215.431 190.918H228.445V187.847H215.431V190.918Z" fill="white"/>
<path d="M223.407 187.568H233.603C234.066 187.596 234.501 187.8 234.819 188.138C235.137 188.475 235.314 188.922 235.314 189.386C235.314 189.85 235.137 190.296 234.819 190.634C234.501 190.972 234.066 191.176 233.603 191.204H223.407V190.539H224.955C225.114 190.551 225.274 190.53 225.424 190.478C225.575 190.425 225.712 190.342 225.829 190.234C225.946 190.126 226.039 189.995 226.103 189.849C226.167 189.703 226.2 189.545 226.2 189.386C226.2 189.227 226.167 189.069 226.103 188.923C226.039 188.777 225.946 188.646 225.829 188.538C225.712 188.429 225.575 188.346 225.424 188.294C225.274 188.241 225.114 188.221 224.955 188.233H223.407V187.568Z" fill="#40CAC2"/>
<g opacity="0.4">
<path d="M223.407 187.568H233.603C234.066 187.596 234.501 187.8 234.819 188.138C235.137 188.475 235.314 188.922 235.314 189.386C235.314 189.85 235.137 190.296 234.819 190.634C234.501 190.972 234.066 191.176 233.603 191.204H223.407V190.539H224.955C225.114 190.551 225.274 190.53 225.424 190.478C225.575 190.425 225.712 190.342 225.829 190.234C225.946 190.126 226.039 189.995 226.103 189.849C226.167 189.703 226.2 189.545 226.2 189.386C226.2 189.227 226.167 189.069 226.103 188.923C226.039 188.777 225.946 188.646 225.829 188.538C225.712 188.429 225.575 188.346 225.424 188.294C225.274 188.241 225.114 188.221 224.955 188.233H223.407V187.568Z" fill="white"/>
</g>
<path d="M214.766 187.568H224.955C225.203 187.553 225.452 187.589 225.685 187.673C225.919 187.758 226.133 187.89 226.314 188.06C226.495 188.23 226.639 188.436 226.737 188.664C226.836 188.892 226.887 189.137 226.887 189.386C226.887 189.634 226.836 189.88 226.737 190.108C226.639 190.336 226.495 190.542 226.314 190.712C226.133 190.882 225.919 191.014 225.685 191.098C225.452 191.183 225.203 191.219 224.955 191.204H214.766V190.539H224.955C225.114 190.551 225.274 190.53 225.424 190.478C225.575 190.425 225.712 190.342 225.829 190.234C225.946 190.126 226.039 189.995 226.103 189.849C226.167 189.703 226.2 189.545 226.2 189.386C226.2 189.227 226.167 189.069 226.103 188.923C226.039 188.777 225.946 188.646 225.829 188.538C225.712 188.429 225.575 188.346 225.424 188.294C225.274 188.241 225.114 188.221 224.955 188.233H214.766V187.568Z" fill="#40CAC2"/>
<g opacity="0.2">
<path d="M214.766 187.568H224.955C225.203 187.553 225.452 187.589 225.685 187.673C225.919 187.758 226.133 187.89 226.314 188.06C226.495 188.23 226.639 188.436 226.737 188.664C226.836 188.892 226.887 189.137 226.887 189.386C226.887 189.634 226.836 189.88 226.737 190.108C226.639 190.336 226.495 190.542 226.314 190.712C226.133 190.882 225.919 191.014 225.685 191.098C225.452 191.183 225.203 191.219 224.955 191.204H214.766V190.539H224.955C225.114 190.551 225.274 190.53 225.424 190.478C225.575 190.425 225.712 190.342 225.829 190.234C225.946 190.126 226.039 189.995 226.103 189.849C226.167 189.703 226.2 189.545 226.2 189.386C226.2 189.227 226.167 189.069 226.103 188.923C226.039 188.777 225.946 188.646 225.829 188.538C225.712 188.429 225.575 188.346 225.424 188.294C225.274 188.241 225.114 188.221 224.955 188.233H214.766V187.568Z" fill="white"/>
</g>
<path d="M212.759 194.554H225.773V191.483H212.759V194.554Z" fill="#40CAC2"/>
<path opacity="0.7" d="M212.759 194.554H225.773V191.483H212.759V194.554Z" fill="white"/>
<path d="M220.735 191.204H230.931C231.412 191.204 231.873 191.395 232.214 191.735C232.554 192.075 232.745 192.537 232.745 193.018C232.745 193.499 232.554 193.961 232.214 194.301C231.873 194.642 231.412 194.833 230.931 194.833H220.735V194.168H222.283C222.434 194.168 222.584 194.138 222.723 194.081C222.863 194.023 222.99 193.938 223.096 193.831C223.203 193.725 223.288 193.598 223.346 193.458C223.404 193.319 223.433 193.169 223.433 193.018C223.433 192.867 223.404 192.718 223.346 192.578C223.288 192.439 223.203 192.312 223.096 192.205C222.99 192.098 222.863 192.014 222.723 191.956C222.584 191.898 222.434 191.868 222.283 191.868H220.735V191.204Z" fill="#263238"/>
<g opacity="0.2">
<path d="M220.735 191.204H230.931C231.412 191.204 231.873 191.395 232.214 191.735C232.554 192.075 232.745 192.537 232.745 193.018C232.745 193.499 232.554 193.961 232.214 194.301C231.873 194.642 231.412 194.833 230.931 194.833H220.735V194.168H222.283C222.434 194.168 222.584 194.138 222.723 194.081C222.863 194.023 222.99 193.938 223.096 193.831C223.203 193.725 223.288 193.598 223.346 193.458C223.404 193.319 223.433 193.169 223.433 193.018C223.433 192.867 223.404 192.718 223.346 192.578C223.288 192.439 223.203 192.312 223.096 192.205C222.99 192.098 222.863 192.014 222.723 191.956C222.584 191.898 222.434 191.868 222.283 191.868H220.735V191.204Z" fill="white"/>
</g>
<path d="M212.087 191.204H222.283C222.765 191.204 223.226 191.395 223.566 191.735C223.907 192.075 224.098 192.537 224.098 193.018C224.098 193.499 223.907 193.961 223.566 194.301C223.226 194.642 222.765 194.833 222.283 194.833H212.087V194.168H222.283C222.434 194.168 222.584 194.138 222.723 194.081C222.863 194.023 222.99 193.938 223.096 193.831C223.203 193.725 223.288 193.598 223.346 193.458C223.403 193.319 223.433 193.169 223.433 193.018C223.433 192.867 223.403 192.718 223.346 192.578C223.288 192.439 223.203 192.312 223.096 192.205C222.99 192.098 222.863 192.014 222.723 191.956C222.584 191.898 222.434 191.868 222.283 191.868H212.087V191.204Z" fill="#263238"/>
<g opacity="0.4">
<path d="M212.087 191.204H222.283C222.765 191.204 223.226 191.395 223.566 191.735C223.907 192.075 224.098 192.537 224.098 193.018C224.098 193.499 223.907 193.961 223.566 194.301C223.226 194.642 222.765 194.833 222.283 194.833H212.087V194.168H222.283C222.434 194.168 222.584 194.138 222.723 194.081C222.863 194.023 222.99 193.938 223.096 193.831C223.203 193.725 223.288 193.598 223.346 193.458C223.403 193.319 223.433 193.169 223.433 193.018C223.433 192.867 223.403 192.718 223.346 192.578C223.288 192.439 223.203 192.312 223.096 192.205C222.99 192.098 222.863 192.014 222.723 191.956C222.584 191.898 222.434 191.868 222.283 191.868H212.087V191.204Z" fill="white"/>
</g>
<path d="M233.762 195.119H220.748V198.189H233.762V195.119Z" fill="#40CAC2"/>
<path opacity="0.7" d="M233.762 195.119H220.748V198.189H233.762V195.119Z" fill="white"/>
<path d="M234.427 194.833H224.238C223.99 194.818 223.741 194.854 223.508 194.938C223.274 195.023 223.06 195.154 222.879 195.325C222.698 195.495 222.554 195.7 222.456 195.928C222.357 196.156 222.306 196.402 222.306 196.651C222.306 196.899 222.357 197.145 222.456 197.373C222.554 197.601 222.698 197.806 222.879 197.977C223.06 198.147 223.274 198.278 223.508 198.363C223.741 198.448 223.99 198.484 224.238 198.469H234.427V197.804H224.238C224.079 197.816 223.919 197.795 223.769 197.743C223.618 197.69 223.481 197.607 223.364 197.499C223.247 197.391 223.154 197.259 223.09 197.113C223.026 196.967 222.993 196.81 222.993 196.651C222.993 196.491 223.026 196.334 223.09 196.188C223.154 196.042 223.247 195.911 223.364 195.802C223.481 195.694 223.618 195.611 223.769 195.559C223.919 195.506 224.079 195.485 224.238 195.497H234.427V194.833Z" fill="#40CAC2"/>
<path d="M225.779 194.833H215.59C215.342 194.818 215.094 194.854 214.86 194.938C214.627 195.023 214.413 195.154 214.232 195.325C214.051 195.495 213.907 195.7 213.808 195.928C213.71 196.156 213.659 196.402 213.659 196.651C213.659 196.899 213.71 197.145 213.808 197.373C213.907 197.601 214.051 197.806 214.232 197.977C214.413 198.147 214.627 198.278 214.86 198.363C215.094 198.448 215.342 198.484 215.59 198.469H225.779V197.804H224.231C223.94 197.782 223.668 197.651 223.47 197.437C223.272 197.223 223.162 196.942 223.162 196.651C223.162 196.359 223.272 196.078 223.47 195.864C223.668 195.651 223.94 195.52 224.231 195.497H225.779V194.833Z" fill="#40CAC2"/>
<g opacity="0.4">
<path d="M234.427 194.833H224.238C223.99 194.818 223.741 194.854 223.508 194.938C223.274 195.023 223.06 195.154 222.879 195.325C222.698 195.495 222.554 195.7 222.456 195.928C222.357 196.156 222.306 196.402 222.306 196.651C222.306 196.899 222.357 197.145 222.456 197.373C222.554 197.601 222.698 197.806 222.879 197.977C223.06 198.147 223.274 198.278 223.508 198.363C223.741 198.448 223.99 198.484 224.238 198.469H234.427V197.804H224.238C224.079 197.816 223.919 197.795 223.769 197.743C223.618 197.69 223.481 197.607 223.364 197.499C223.247 197.391 223.154 197.259 223.09 197.113C223.026 196.967 222.993 196.81 222.993 196.651C222.993 196.491 223.026 196.334 223.09 196.188C223.154 196.042 223.247 195.911 223.364 195.802C223.481 195.694 223.618 195.611 223.769 195.559C223.919 195.506 224.079 195.485 224.238 195.497H234.427V194.833Z" fill="white"/>
</g>
<path d="M146.299 150.46C148.723 149.735 151.049 148.715 153.225 147.422C153.851 147.031 154.419 146.555 154.913 146.007C155.034 145.866 155.145 145.717 155.245 145.561C152.873 137.28 150.473 133.65 145.442 133.272C141.613 138.203 146.299 150.46 146.299 150.46Z" fill="#263238"/>
<path opacity="0.2" d="M153.225 147.422C153.851 147.031 154.419 146.555 154.913 146.007C154.494 145.139 153.979 144.321 153.378 143.567C152.822 144.782 152.767 146.167 153.225 147.422Z" fill="black"/>
<path d="M234.507 237.444L238.441 233.078L228.099 224.031L224.164 228.398L234.507 237.444Z" fill="#FFC3BD"/>
<path opacity="0.2" d="M224.164 228.398L228.099 224.038L233.43 228.697L229.495 233.064L224.164 228.398Z" fill="black"/>
<path d="M236.474 231.137L230.738 234.46C230.639 234.516 230.563 234.606 230.525 234.714C230.487 234.821 230.49 234.939 230.532 235.045L232.526 239.963C232.58 240.083 232.658 240.191 232.756 240.279C232.854 240.367 232.97 240.433 233.095 240.474C233.22 240.514 233.352 240.529 233.483 240.515C233.614 240.502 233.741 240.461 233.855 240.395C235.849 239.199 236.733 238.521 239.252 237.072C240.808 236.175 244.37 234.413 246.51 233.164C248.651 231.914 247.541 229.728 246.51 230.06C242.011 231.522 239.485 231.316 237.478 230.964C237.133 230.91 236.781 230.971 236.474 231.137Z" fill="#263238"/>
<path d="M239.365 229.442C239.319 229.375 239.256 229.322 239.182 229.288C239.109 229.254 239.027 229.241 238.947 229.249C238.215 229.322 237.252 231.243 237.139 231.429C237.126 231.448 237.119 231.47 237.119 231.492C237.119 231.515 237.126 231.537 237.139 231.555C237.152 231.574 237.17 231.588 237.192 231.595C237.213 231.602 237.237 231.602 237.258 231.595C238.009 231.369 239.292 230.884 239.518 230.18C239.539 230.104 239.55 230.026 239.551 229.947C239.545 229.763 239.48 229.586 239.365 229.442ZM238.973 229.482C239.014 229.477 239.056 229.484 239.093 229.502C239.131 229.519 239.163 229.547 239.186 229.581C239.25 229.651 239.295 229.736 239.317 229.828C239.339 229.919 239.337 230.015 239.312 230.106C239.186 230.505 238.508 230.944 237.478 231.29C237.83 230.638 238.521 229.528 238.973 229.482Z" fill="#40CAC2"/>
<path d="M237.511 228.857C237.439 228.78 237.344 228.729 237.241 228.712C237.137 228.696 237.031 228.714 236.939 228.764C236.843 228.804 236.757 228.865 236.687 228.942C236.617 229.018 236.565 229.11 236.534 229.209C236.268 230.013 237.112 231.482 237.145 231.542C237.155 231.56 237.169 231.575 237.187 231.586C237.204 231.596 237.224 231.602 237.245 231.602C237.265 231.602 237.286 231.596 237.303 231.586C237.321 231.575 237.335 231.56 237.345 231.542C237.614 230.964 237.748 230.332 237.737 229.694C237.757 229.398 237.678 229.103 237.511 228.857ZM236.753 229.282C236.773 229.213 236.809 229.15 236.857 229.097C236.906 229.044 236.966 229.003 237.032 228.977C237.205 228.903 237.291 228.977 237.338 229.016C237.637 229.355 237.498 230.585 237.238 231.23C237.026 230.811 236.567 229.827 236.753 229.309V229.282Z" fill="#40CAC2"/>
<path d="M150.659 140.197C149.523 146.605 152.281 152.766 157.359 156.635C157.774 156.935 158.264 157.117 158.775 157.16C158.775 157.16 158.808 157.16 158.775 157.22C158.92 157.048 159.099 156.908 159.3 156.808C159.502 156.708 159.721 156.65 159.946 156.638C160.17 156.627 160.395 156.661 160.606 156.739C160.816 156.817 161.009 156.937 161.172 157.093C161.334 157.248 161.463 157.435 161.551 157.642C161.638 157.849 161.683 158.072 161.681 158.296C161.68 158.521 161.632 158.743 161.541 158.949C161.451 159.155 161.319 159.34 161.154 159.493L160.855 159.845C160.259 160.444 159.53 160.893 158.727 161.157C157.924 161.42 157.071 161.49 156.236 161.36C153.145 160.915 151.085 159.214 149.124 157.093C146.887 154.619 145.276 151.644 144.425 148.419C143.574 145.194 143.508 141.812 144.232 138.556C145.448 134.255 151.61 135.837 150.672 140.197H150.659Z" fill="#E9B376"/>
<path d="M153.059 141.613C153.814 144.848 154.347 148.13 154.654 151.437C155.226 156.249 155.644 161.015 156.196 168.971L132.102 172.812C131.51 165.946 129.496 158.336 122.75 143.747C122.368 142.989 122.16 142.155 122.142 141.307C122.124 140.458 122.296 139.616 122.646 138.843C122.996 138.069 123.515 137.384 124.164 136.838C124.814 136.291 125.577 135.897 126.399 135.684C127.336 135.438 128.34 135.192 129.37 134.98C132.971 134.142 136.627 133.562 140.31 133.245C141.52 133.165 142.776 133.119 143.979 133.099C148.326 132.992 152.254 137.386 153.059 141.613Z" fill="#263238"/>
<path d="M164.298 155.598L164.046 157.166C163.999 157.458 163.884 157.734 163.71 157.973C163.535 158.211 163.306 158.404 163.042 158.536L160.543 159.778C160.049 160.024 159.503 160.148 158.952 160.139C158.401 160.131 157.859 159.992 157.372 159.732L156.768 159.406C157 156.748 159.194 154.089 159.194 154.089L159.739 153.251C159.845 153.078 159.985 152.927 160.151 152.808C160.316 152.689 160.503 152.604 160.701 152.557C160.9 152.511 161.105 152.504 161.306 152.538C161.507 152.572 161.7 152.645 161.872 152.753L163.527 153.803C163.817 153.994 164.045 154.266 164.182 154.585C164.319 154.904 164.359 155.256 164.298 155.598Z" fill="#EBB376"/>
<path d="M133.338 196.594C142.191 203.493 163.388 201.134 182.669 198.455C184.889 201.958 187.555 205.157 190.599 207.973C199.146 216.129 210.632 222.981 218.202 227.029C222.928 229.568 226.132 231.017 226.132 231.017L231.649 225.102C231.649 225.102 221.32 215.796 209.894 205.653C202.131 198.741 193.856 191.43 188 186.378C187.677 186.108 187.308 185.898 186.91 185.76C186.321 185.564 185.713 185.433 185.095 185.368L183.799 185.188L182.743 185.049C176.222 184.138 161.965 182.344 161.965 182.344L155.983 167.449L131.53 168.246C131.53 168.246 125.708 190.652 133.338 196.594Z" fill="#40CAC2"/>
<path d="M233.888 225.726L226.909 233.177L223.566 230.818L231.15 222.915L233.888 225.726Z" fill="#263238"/>
<path opacity="0.2" d="M180.303 184.963C183.334 192.806 186.771 200.486 190.599 207.973C199.146 216.129 210.632 222.981 218.202 227.029C216.489 219.535 213.69 212.332 209.894 205.647C208.831 203.779 207.647 201.878 206.338 199.984C199.884 190.679 192.234 187.103 186.91 185.754C186.245 185.594 185.667 185.461 185.095 185.361C184.205 185.202 183.414 185.102 182.743 185.042C181.933 184.951 181.117 184.925 180.303 184.963Z" fill="black"/>
<path d="M211.968 232.526L217.511 230.592L212.792 217.684L207.249 219.618L211.968 232.526Z" fill="#FFC3BD"/>
<path opacity="0.2" d="M207.249 219.625L212.799 217.691L215.225 224.344L209.675 226.278L207.249 219.625Z" fill="black"/>
<path d="M216.72 227.98L210.074 228.146C209.958 228.143 209.847 228.185 209.76 228.261C209.674 228.337 209.62 228.443 209.608 228.558L208.984 233.822C208.973 233.955 208.991 234.088 209.035 234.214C209.08 234.34 209.15 234.454 209.241 234.551C209.332 234.648 209.443 234.725 209.566 234.777C209.689 234.829 209.821 234.854 209.954 234.852C212.267 234.752 213.377 234.586 216.295 234.52C218.089 234.473 222.064 234.639 224.543 234.58C227.022 234.52 227.089 232.061 226.052 231.868C221.399 230.984 219.286 229.588 217.697 228.319C217.421 228.096 217.075 227.976 216.72 227.98Z" fill="#263238"/>
<path d="M220.077 227.847C220.068 227.767 220.038 227.691 219.99 227.627C219.942 227.563 219.878 227.512 219.804 227.481C219.14 227.189 217.365 228.385 217.146 228.525C217.128 228.537 217.114 228.554 217.106 228.574C217.097 228.594 217.095 228.616 217.099 228.638C217.102 228.66 217.112 228.681 217.128 228.697C217.143 228.714 217.163 228.726 217.185 228.731C217.95 228.89 219.312 229.083 219.844 228.571C219.898 228.517 219.945 228.457 219.984 228.392C220.074 228.225 220.106 228.034 220.077 227.847ZM219.711 227.694C219.749 227.71 219.782 227.737 219.805 227.771C219.829 227.805 219.842 227.845 219.844 227.886C219.869 227.978 219.869 228.074 219.845 228.165C219.82 228.256 219.772 228.339 219.704 228.405C219.405 228.697 218.601 228.751 217.531 228.558C218.149 228.159 219.292 227.514 219.711 227.694Z" fill="#40CAC2"/>
<path d="M218.727 226.444C218.704 226.341 218.646 226.248 218.562 226.183C218.479 226.117 218.375 226.083 218.269 226.085C218.166 226.072 218.061 226.083 217.963 226.118C217.864 226.152 217.776 226.21 217.704 226.285C217.079 226.856 217.112 228.551 217.119 228.618C217.118 228.638 217.123 228.659 217.134 228.676C217.145 228.694 217.16 228.708 217.179 228.717C217.196 228.727 217.215 228.733 217.235 228.733C217.255 228.733 217.275 228.727 217.292 228.717C217.805 228.339 218.228 227.851 218.528 227.288C218.687 227.037 218.757 226.74 218.727 226.444ZM217.857 226.444C217.908 226.394 217.97 226.356 218.038 226.333C218.106 226.31 218.178 226.303 218.249 226.311C218.442 226.311 218.488 226.418 218.501 226.491C218.601 226.936 217.883 227.946 217.352 228.385C217.345 227.92 217.438 226.843 217.857 226.451V226.444Z" fill="#40CAC2"/>
<path opacity="0.3" d="M133.338 196.594C142.191 203.493 163.388 201.134 182.669 198.455C184.889 201.958 187.555 205.157 190.599 207.973C199.146 216.129 210.632 222.981 218.202 227.029C222.928 229.568 226.132 231.017 226.132 231.017L231.649 225.102C231.649 225.102 221.32 215.796 209.894 205.653C202.131 198.741 193.856 191.43 188 186.378C187.677 186.108 187.308 185.898 186.91 185.76C186.321 185.564 185.713 185.433 185.095 185.368L183.799 185.188L182.743 185.049C176.222 184.138 161.965 182.344 161.965 182.344L155.983 167.449L131.53 168.246C131.53 168.246 125.708 190.652 133.338 196.594Z" fill="black"/>
<path d="M133.724 173.883C133.724 173.883 170.48 170.2 184.085 171.762C197.378 173.284 215.411 220.695 215.411 220.695L207.488 223.44C192.413 206.411 183.866 194.095 180.303 184.962C148.027 196.986 136.256 196.022 136.256 196.022L133.724 173.883Z" fill="#40CAC2"/>
<path opacity="0.3" d="M133.724 173.883C133.724 173.883 170.48 170.2 184.085 171.762C197.378 173.284 215.411 220.695 215.411 220.695L207.488 223.44C192.413 206.411 183.866 194.095 180.303 184.962C148.027 196.986 136.256 196.022 136.256 196.022L133.724 173.883Z" fill="black"/>
<path d="M217.059 221.958L207.362 225.128L205.56 221.453L216.009 218.169L217.059 221.958Z" fill="#263238"/>
<path opacity="0.2" d="M180.303 184.962C180.303 184.962 179.293 181.958 177.213 181.466C175.132 180.974 157.685 181.174 157.685 181.174L180.303 184.962Z" fill="black"/>
<path opacity="0.2" d="M131.876 148.433C131.876 148.433 134.534 154.182 131.876 156.149C129.217 158.117 127.11 149.031 131.876 148.433Z" fill="black"/>
<path d="M144.126 137.014C144.126 137.014 150.4 144.112 156.754 170.247L159.519 167.429C159.519 167.429 160.696 163.481 157.671 162.869C157.671 162.869 158.894 157.971 156.183 156.429C156.183 156.429 155.618 150.054 153.491 148.007C153.435 147.144 153.239 146.296 152.912 145.495C152.754 145.048 152.496 144.643 152.159 144.309C151.822 143.975 151.414 143.722 150.965 143.567C150.965 143.567 148.785 134.515 144.983 132.933C141.181 131.351 144.126 137.014 144.126 137.014Z" fill="#40CAC2"/>
<path opacity="0.2" d="M157.685 162.843L156.196 164.976C156.196 164.976 158.03 164.976 157.685 162.843Z" fill="black"/>
<path opacity="0.2" d="M156.196 156.429L154.361 158.855C154.656 158.854 154.947 158.786 155.21 158.655C155.474 158.523 155.704 158.333 155.882 158.098C156.059 157.863 156.18 157.59 156.235 157.3C156.289 157.01 156.276 156.712 156.196 156.429Z" fill="black"/>
<path opacity="0.2" d="M153.537 148.007L151.829 149.862C151.829 149.862 153.737 149.39 153.537 148.007Z" fill="black"/>
<path opacity="0.2" d="M150.068 141.866L148.938 143.567C149.281 143.439 149.575 143.205 149.778 142.9C149.981 142.594 150.083 142.232 150.068 141.866Z" fill="black"/>
<path d="M171.649 141.307L169.742 140.364L163.095 142.597L153.79 140.743L152.102 147.801C152.102 147.801 152.102 155.551 152.547 155.611C152.992 155.671 163.035 155.611 163.035 155.611L167.94 152.075L171.649 141.307Z" fill="#E0E0E0"/>
<path d="M151.397 141.407L148.266 157.625L160.815 158.316L169.283 155.452L172.819 140.184L163.128 143.295L151.397 141.407Z" fill="#40CAC2"/>
<path opacity="0.5" d="M151.397 141.407L148.266 157.625L160.815 158.316L169.283 155.452L172.819 140.184L163.128 143.295L151.397 141.407Z" fill="white"/>
<path opacity="0.2" d="M163.128 143.295L160.815 158.316L148.266 157.632L151.397 141.407L163.128 143.295Z" fill="white"/>
<path d="M144.126 137.014C144.126 137.014 148.114 132.614 144.883 130.301C141.653 127.988 125.03 128.599 124.279 131.796C123.528 134.993 144.126 137.014 144.126 137.014Z" fill="#40CAC2"/>
<path opacity="0.2" d="M144.126 137.014C144.126 137.014 148.114 132.614 144.883 130.301C141.653 127.988 125.03 128.599 124.279 131.796C123.528 134.993 144.126 137.014 144.126 137.014Z" fill="black"/>
<path d="M129.37 134.927C125.382 135.817 142.397 139.347 142.397 139.347C142.397 139.347 151.131 130.088 129.37 134.927Z" fill="#EBB376"/>
<path d="M130.939 122.537C131.909 126.1 133.099 132.627 130.786 135.013C130.786 135.013 132.115 136.515 141.334 138.928C143.408 135.95 141.859 135 141.859 135C137.818 134.056 137.698 131.105 138.177 128.353L130.939 122.537Z" fill="#EBB376"/>
<path opacity="0.2" d="M133.87 124.904L138.157 128.333C138.029 128.99 137.965 129.658 137.964 130.327C136.429 130.108 134.215 128.446 133.936 126.851C133.796 126.211 133.773 125.551 133.87 124.904Z" fill="black"/>
<path d="M130.852 108.181C130.852 108.181 129.078 103.295 125.09 104.259C121.102 105.223 120.158 108.912 121.48 113.318C122.803 117.725 121.022 118.636 121.022 118.636C121.022 118.636 125.674 119.393 126.087 114.063C126.499 108.732 129.237 110.401 129.237 110.401L130.852 108.181Z" fill="#263238"/>
<path d="M131.092 113.804C130.533 119.633 130.174 122.085 132.567 125.648C136.163 131.005 143.295 130.779 145.541 125.322C147.569 120.41 148.14 111.703 142.969 108.227C141.884 107.444 140.608 106.965 139.275 106.841C137.943 106.717 136.601 106.951 135.389 107.52C134.177 108.089 133.14 108.971 132.384 110.076C131.629 111.181 131.182 112.468 131.092 113.804Z" fill="#EBB376"/>
<path d="M137.884 116.768C137.818 117.253 138.011 117.699 138.316 117.765C138.622 117.832 138.928 117.486 138.981 117.001C139.034 116.516 138.855 116.064 138.549 115.997C138.243 115.931 137.958 116.276 137.884 116.768Z" fill="#263238"/>
<path d="M143.886 117.838C143.813 118.323 144.006 118.769 144.312 118.835C144.617 118.902 144.923 118.556 144.976 118.071C145.03 117.586 144.85 117.134 144.544 117.067C144.239 117.001 143.953 117.346 143.886 117.838Z" fill="#263238"/>
<path d="M144.418 117.067L145.595 116.967C145.595 116.967 144.897 117.758 144.418 117.067Z" fill="#263238"/>
<path d="M141.912 118.523C142.176 119.725 142.592 120.888 143.149 121.986C142.882 122.116 142.588 122.184 142.291 122.184C141.994 122.184 141.701 122.116 141.434 121.986L141.912 118.523Z" fill="#D58745"/>
<path d="M138.496 123.195C138.746 123.294 139.004 123.372 139.267 123.428C139.285 123.433 139.304 123.434 139.322 123.431C139.341 123.427 139.358 123.42 139.373 123.409C139.389 123.398 139.401 123.384 139.411 123.368C139.42 123.352 139.425 123.334 139.426 123.315C139.432 123.276 139.423 123.237 139.401 123.205C139.379 123.173 139.345 123.15 139.307 123.142C138.708 123.017 138.145 122.76 137.659 122.39C137.173 122.02 136.775 121.545 136.495 121.002C136.482 120.966 136.455 120.937 136.42 120.921C136.385 120.904 136.345 120.903 136.309 120.915C136.275 120.933 136.249 120.962 136.237 120.998C136.224 121.034 136.226 121.074 136.243 121.108C136.715 122.055 137.516 122.796 138.496 123.195Z" fill="#263238"/>
<path d="M137.432 113.524C137.466 113.543 137.504 113.552 137.542 113.552C137.58 113.552 137.618 113.543 137.652 113.524C137.944 113.333 138.279 113.217 138.628 113.188C138.976 113.159 139.326 113.217 139.646 113.358C139.678 113.375 139.714 113.385 139.75 113.387C139.787 113.389 139.823 113.384 139.857 113.371C139.892 113.359 139.923 113.339 139.95 113.314C139.976 113.289 139.997 113.259 140.011 113.225C140.038 113.153 140.038 113.074 140.012 113.002C139.985 112.93 139.933 112.87 139.865 112.833C139.464 112.654 139.024 112.577 138.585 112.61C138.147 112.642 137.723 112.783 137.353 113.019C137.29 113.062 137.247 113.128 137.232 113.203C137.217 113.277 137.232 113.354 137.273 113.418C137.313 113.471 137.369 113.508 137.432 113.524Z" fill="#263238"/>
<path d="M146.771 115.14C146.803 115.155 146.838 115.162 146.874 115.162C146.91 115.162 146.945 115.155 146.977 115.14C147.012 115.125 147.043 115.103 147.069 115.075C147.095 115.048 147.115 115.016 147.129 114.981C147.143 114.946 147.149 114.908 147.148 114.87C147.147 114.832 147.139 114.795 147.123 114.761C146.968 114.326 146.714 113.932 146.382 113.61C146.05 113.289 145.649 113.048 145.209 112.906C145.173 112.898 145.136 112.897 145.101 112.903C145.065 112.91 145.03 112.924 145 112.945C144.97 112.965 144.945 112.992 144.926 113.023C144.907 113.055 144.894 113.089 144.89 113.126C144.877 113.202 144.893 113.28 144.935 113.345C144.977 113.41 145.041 113.458 145.116 113.478C145.462 113.596 145.777 113.79 146.037 114.047C146.297 114.303 146.496 114.616 146.618 114.96C146.628 115 146.648 115.036 146.674 115.067C146.701 115.098 146.734 115.123 146.771 115.14Z" fill="#263238"/>
<path d="M138.423 115.997L139.599 115.897C139.599 115.897 138.915 116.688 138.423 115.997Z" fill="#263238"/>
<path d="M137.147 109.331C136.878 110.577 136.334 111.747 135.552 112.755C134.771 113.763 133.774 114.582 132.634 115.153L131.896 119.56L130.992 122.252C130.992 122.252 126.432 121.281 127.217 113.611C127.748 108.453 130.168 106.964 131.869 106.512C132.812 106.296 133.694 105.873 134.455 105.276C135.551 104.379 137.778 103.501 141.872 105.043C147.914 107.317 146.173 112.395 146.173 112.395C145.456 111.24 144.462 110.283 143.281 109.61C141.62 108.759 138.709 108.34 137.147 109.331Z" fill="#263238"/>
<path d="M128.473 118.15C128.879 119.327 129.734 120.295 130.852 120.842C132.295 121.507 133.225 120.131 132.993 118.516C132.787 117.06 131.783 114.953 130.247 114.973C128.712 114.993 127.954 116.662 128.473 118.15Z" fill="#EBB376"/>
<path d="M137.891 173.477L125.116 170.194C125.116 170.194 122.783 166.97 125.974 164.498C125.974 164.498 122.896 160.443 125.974 156.415L127.124 145.98C127.124 145.98 131.53 143.561 130.679 138.888C130.471 137.834 130.077 136.826 129.516 135.91L135.359 137.678L136.575 138.044C139.579 142.584 137.891 173.477 137.891 173.477Z" fill="#40CAC2"/>
<path opacity="0.2" d="M135.984 138.057C134.23 138.446 132.454 138.728 130.666 138.901C130.458 137.848 130.064 136.839 129.503 135.924L135.345 137.692C135.591 137.805 135.771 137.924 135.984 138.057Z" fill="black"/>
<path opacity="0.2" d="M125.974 164.511C125.974 164.511 129.211 167.256 135.212 166.99C135.212 166.99 128.44 163.879 125.974 164.511Z" fill="black"/>
<path opacity="0.2" d="M125.974 156.429C125.974 156.429 133.617 159.479 137.359 158.516C137.359 158.516 129.663 155.199 125.974 156.429Z" fill="black"/>
<path opacity="0.2" d="M127.124 151.158C127.124 151.158 135.1 153.212 137.359 151.955C137.359 151.955 129.849 149.709 127.124 151.158Z" fill="black"/>
<path opacity="0.2" d="M137.359 144.976C137.359 144.976 131.105 143.72 128.313 145.495C128.313 145.495 135.518 146.366 137.359 144.976Z" fill="black"/>
<path d="M127.123 131.271C129.782 132.487 136.582 138.051 136.582 138.051C136.582 138.051 124.352 136.828 123.627 135.166C122.903 133.504 122.61 129.197 127.123 131.271Z" fill="#40CAC2"/>
<path d="M156.276 152.401L154.501 152.008C154.171 151.934 153.828 151.94 153.501 152.025C153.173 152.111 152.871 152.274 152.62 152.5L150.214 154.641C149.746 155.061 149.386 155.588 149.164 156.177C148.942 156.766 148.865 157.399 148.938 158.024L149.024 158.815C151.929 159.672 155.671 158.456 155.671 158.456L156.781 158.23C157.01 158.191 157.23 158.106 157.426 157.981C157.623 157.856 157.793 157.693 157.926 157.502C158.059 157.311 158.152 157.095 158.201 156.868C158.25 156.64 158.253 156.405 158.21 156.176L157.791 153.963C157.712 153.585 157.528 153.238 157.26 152.962C156.992 152.685 156.65 152.491 156.276 152.401Z" fill="#EBB376"/>
<path d="M129.211 146.445C130.41 150.9 132.03 155.231 134.049 159.38C134.728 160.704 135.48 161.988 136.302 163.228L135.87 162.763C135.684 162.61 135.485 162.597 135.525 162.617C136.305 162.66 137.085 162.524 137.805 162.218C139.287 161.664 140.725 160.997 142.105 160.224C145.043 158.655 147.967 156.801 150.746 154.973C151.084 154.691 151.521 154.555 151.959 154.595C152.398 154.635 152.803 154.847 153.085 155.186C153.367 155.524 153.503 155.961 153.463 156.399C153.424 156.838 153.211 157.243 152.873 157.525C148.838 161.513 137.778 171.982 131.969 167.296C127.316 161.766 124.551 154.926 122.763 147.974C121.899 143.687 128.081 142.218 129.23 146.432L129.211 146.445Z" fill="#E9B376"/>
<path d="M124.538 136.515C120.424 139.426 120.231 143.767 122.451 152.095C125.422 153.584 132.64 151.703 132.64 151.703C132.64 151.703 130.36 138.775 124.538 136.515Z" fill="#263238"/>
<path d="M128.559 190.094C128.021 188.731 122.876 187.109 119.852 186.259C122.158 185.149 122.657 182.45 122.657 182.45C119.845 182.144 117.672 185.155 117.672 185.155C117.273 182.131 113.684 181.367 113.684 181.367C113.618 182.295 113.786 183.226 114.171 184.073C114.556 184.92 115.147 185.658 115.891 186.219C112.84 187.196 106.871 189.21 106.752 190.094C106.583 190.323 106.492 190.6 106.492 190.885V197.086C106.492 197.439 106.632 197.777 106.882 198.026C107.131 198.275 107.469 198.415 107.822 198.415H127.423C127.775 198.415 128.113 198.275 128.363 198.026C128.612 197.777 128.752 197.439 128.752 197.086V190.885C128.772 190.607 128.705 190.331 128.559 190.094Z" fill="#40CAC2"/>
<path opacity="0.3" d="M128.818 190.911V197.113C128.818 197.465 128.678 197.803 128.429 198.053C128.18 198.302 127.842 198.442 127.489 198.442H107.862C107.509 198.442 107.171 198.302 106.922 198.053C106.672 197.803 106.532 197.465 106.532 197.113V190.911C106.532 190.627 106.623 190.349 106.791 190.12C106.904 189.236 112.88 187.222 115.931 186.252C115.58 186.026 115.263 185.754 114.987 185.441C114.044 184.318 113.568 182.877 113.657 181.413C113.657 181.413 117.233 182.171 117.645 185.195C117.645 185.195 119.819 182.184 122.63 182.49C122.313 183.968 121.434 185.265 120.178 186.106C120.065 186.178 119.947 186.242 119.825 186.298H119.872L120.005 186.338L120.178 186.392C123.235 187.262 128.014 188.818 128.533 190.12C128.711 190.346 128.811 190.624 128.818 190.911Z" fill="white"/>
<path opacity="0.2" d="M116.369 186.544C116.369 186.544 108.021 189.203 108.088 189.928C108.154 190.652 116.369 186.937 116.369 186.937C116.369 186.937 115.319 187.927 115.911 188.386C116.502 188.844 116.894 187.395 116.894 187.395C116.894 187.395 116.695 189.901 117.353 190.054C118.011 190.207 118.868 188.1 116.369 186.544Z" fill="black"/>
<path opacity="0.2" d="M124.159 187.927C124.325 188.319 120.118 186.777 119.919 186.777C119.719 186.777 121.068 187.595 120.41 187.794C119.752 187.993 118.669 186.777 118.476 186.844C118.284 186.91 119.593 188.219 119.659 189.01C119.659 189.01 118.111 186.471 115.911 186.252C115.567 186.025 115.256 185.752 114.987 185.441C115.464 185.79 116.032 185.996 116.622 186.033C116.622 186.033 115.027 184.624 115.718 184.112C116.409 183.6 117.047 185.9 117.047 185.9L117.659 185.195V185.64C117.659 185.64 119.586 184.092 120.078 184.457C120.57 184.823 118.038 186.039 118.038 186.039C118.75 186.171 119.479 186.193 120.198 186.106C120.085 186.178 119.967 186.242 119.846 186.299H119.892L120.025 186.338L120.198 186.392C121.208 186.704 124.02 187.601 124.159 187.927Z" fill="black"/>
<path d="M111.338 178.794V176.8H107.881V178.794C107.881 179.057 107.826 179.317 107.719 179.557C107.613 179.798 107.458 180.013 107.263 180.19C107.067 180.366 106.91 180.581 106.802 180.821C106.694 181.062 106.639 181.322 106.639 181.586V197.452C106.638 197.587 106.664 197.721 106.716 197.846C106.768 197.972 106.845 198.085 106.941 198.18C107.038 198.275 107.153 198.349 107.279 198.399C107.405 198.448 107.54 198.472 107.675 198.468H111.61C111.876 198.467 112.13 198.36 112.318 198.173C112.506 197.985 112.612 197.73 112.614 197.465V181.599C112.613 181.336 112.558 181.077 112.452 180.836C112.345 180.596 112.19 180.381 111.996 180.203C111.792 180.029 111.627 179.814 111.514 179.57C111.4 179.327 111.34 179.063 111.338 178.794Z" fill="#40CAC2"/>
<path opacity="0.6" d="M112.581 186.584V181.599C112.58 181.336 112.525 181.077 112.418 180.836C112.312 180.596 112.157 180.381 111.963 180.204C111.766 180.028 111.609 179.813 111.501 179.572C111.394 179.332 111.338 179.071 111.338 178.808V176.814H107.881V178.808C107.881 179.071 107.826 179.33 107.719 179.571C107.613 179.811 107.458 180.026 107.263 180.204C107.067 180.379 106.91 180.594 106.802 180.835C106.694 181.075 106.639 181.336 106.639 181.599V186.584H112.581Z" fill="white"/>
<path opacity="0.6" d="M106.639 192.806V197.458C106.639 197.593 106.665 197.727 106.718 197.851C106.77 197.975 106.847 198.088 106.944 198.182C107.04 198.276 107.155 198.35 107.281 198.399C107.406 198.449 107.541 198.472 107.675 198.468H111.61C111.876 198.467 112.13 198.36 112.318 198.173C112.506 197.985 112.612 197.73 112.614 197.465V192.812L106.639 192.806Z" fill="white"/>
<path d="M111.437 176.289H107.788C107.667 176.289 107.569 176.387 107.569 176.508V177.625C107.569 177.746 107.667 177.844 107.788 177.844H111.437C111.559 177.844 111.657 177.746 111.657 177.625V176.508C111.657 176.387 111.559 176.289 111.437 176.289Z" fill="#40CAC2"/>
<path d="M105.13 198.468H98.4367L97.546 187.495H106.02L105.13 198.468Z" fill="#263238"/>
<path opacity="0.6" d="M103.781 192.354C103.781 192.748 103.664 193.134 103.445 193.461C103.225 193.789 102.914 194.045 102.55 194.196C102.185 194.347 101.784 194.386 101.398 194.309C101.011 194.232 100.655 194.042 100.377 193.764C100.098 193.485 99.9079 193.129 99.8309 192.743C99.754 192.356 99.7935 191.955 99.9444 191.591C100.095 191.226 100.351 190.915 100.679 190.696C101.007 190.477 101.392 190.36 101.787 190.36C102.315 190.36 102.823 190.57 103.197 190.944C103.571 191.318 103.781 191.825 103.781 192.354Z" fill="white"/>
<path d="M106.393 187.781H97.1738L98.0645 186.784H105.502L106.393 187.781Z" fill="#263238"/>
<path opacity="0.6" d="M106.393 187.781H97.1738L98.0645 186.784H105.502L106.393 187.781Z" fill="white"/>
<path d="M83.422 190.971H59.2482V207.867H83.422V190.971Z" fill="#263238"/>
<path d="M51.4781 187.143V240.568H84.8376V187.143H51.4781ZM81.2019 202.928H70.5673V196.534C70.5673 195.819 70.8516 195.132 71.3577 194.626C71.8637 194.12 72.5501 193.836 73.2658 193.836H78.4834C79.1922 193.846 79.8684 194.135 80.3659 194.64C80.8633 195.145 81.1422 195.825 81.1421 196.534L81.2019 202.928Z" fill="#40CAC2"/>
<path opacity="0.6" d="M51.4781 187.143V240.568H84.8376V187.143H51.4781ZM81.2019 202.928H70.5673V196.534C70.5673 195.819 70.8516 195.132 71.3577 194.626C71.8637 194.12 72.5501 193.836 73.2658 193.836H78.4834C79.1922 193.846 79.8684 194.135 80.3659 194.64C80.8633 195.145 81.1422 195.825 81.1421 196.534L81.2019 202.928Z" fill="white"/>
<path opacity="0.4" d="M65.7817 187.143H51.4781V240.568H65.7817V187.143Z" fill="white"/>
<path d="M85.622 184.324H50.6141V189.489H85.622V184.324Z" fill="#40CAC2"/>
<path opacity="0.2" d="M66.7721 184.324H50.6141V189.489H66.7721V184.324Z" fill="white"/>
</svg>
